<?xml version="1.0" encoding="utf-8"?>
<!-- Generator: Adobe Illustrator 16.0.4, SVG Export Plug-In . SVG Version: 6.00 Build 0)  -->
<!DOCTYPE svg PUBLIC "-//W3C//DTD SVG 1.1//EN" "http://www.w3.org/Graphics/SVG/1.1/DTD/svg11.dtd" [
	<!ENTITY ns_flows "http://ns.adobe.com/Flows/1.0/">
	<!ENTITY ns_extend "http://ns.adobe.com/Extensibility/1.0/">
	<!ENTITY ns_ai "http://ns.adobe.com/AdobeIllustrator/10.0/">
	<!ENTITY ns_graphs "http://ns.adobe.com/Graphs/1.0/">
]>
<svg version="1.1" id="Ebene_1" xmlns:x="&ns_extend;" xmlns:i="&ns_ai;" xmlns:graph="&ns_graphs;"
	 xmlns="http://www.w3.org/2000/svg" xmlns:xlink="http://www.w3.org/1999/xlink" xmlns:a="http://ns.adobe.com/AdobeSVGViewerExtensions/3.0/"
	 x="0px" y="0px" width="8.9px" height="9px" viewBox="0 0 8.9 9" style="enable-background:new 0 0 8.9 9;" xml:space="preserve">
<style type="text/css">
<![CDATA[
	.st0{fill:#080200;stroke:#020203;stroke-width:0.1;stroke-linecap:round;stroke-linejoin:round;stroke-miterlimit:3.8637;}
	.st1{fill:#FFFFFF;stroke:#020203;stroke-width:0.1;stroke-linecap:round;stroke-linejoin:round;stroke-miterlimit:3.8637;}
	.st2{fill:#080200;stroke:#030304;stroke-width:0.1;stroke-linecap:round;stroke-linejoin:round;stroke-miterlimit:3.8637;}
	.st3{fill:#FFFFFF;stroke:#030304;stroke-width:0.1;stroke-linecap:round;stroke-linejoin:round;stroke-miterlimit:3.8637;}
]]>
</style>
<g>
	<path class="st0" d="M5.99,3.6c0,0-0.6-0.44-0.79-0.58C5,2.87,4.53,2.54,4.53,2.54C3.98,2.93,4.07,2.86,3.77,3.08
		C3.53,3.25,3.13,3.57,3.13,3.57s0.2,0.68,0.29,0.99S3.66,5.2,3.66,5.2S4.2,5.23,4.55,5.23c0.34,0,0.9-0.03,0.9-0.03
		S5.54,5.02,5.7,4.53C5.87,4.04,5.99,3.6,5.99,3.6z"/>
	<path class="st2" d="M1.75,2.68c0,0.23,0.03,0.56,0.03,0.56S1.4,3.65,1.23,3.96C1.02,4.32,0.86,4.78,0.86,4.78S0.69,4.71,0.6,4.63
		C0.46,4.51,0.39,4.37,0.39,4.37C0.41,3.7,0.6,3.06,0.91,2.5c0,0,0.24-0.18,0.55-0.35C1.62,2.06,1.8,1.99,1.8,1.99
		S1.74,2.45,1.75,2.68z"/>
	<path class="st3" d="M1.38,6.12c0,0-0.04,0.21-0.04,0.44c0,0.24,0.01,0.55,0.01,0.55C0.75,6.41,0.39,5.5,0.39,4.5
		c0-0.04,0-0.09,0-0.13c0,0,0.07,0.14,0.21,0.26c0.09,0.08,0.26,0.15,0.26,0.15s0.05,0.17,0.23,0.65C1.25,5.91,1.38,6.12,1.38,6.12"
		/>
	<path class="st1" d="M0.86,4.78c0,0,0.16-0.46,0.37-0.82C1.4,3.65,1.78,3.24,1.78,3.24s0.39,0.1,0.64,0.17
		c0.25,0.06,0.71,0.17,0.71,0.17s0.2,0.68,0.29,0.99S3.66,5.2,3.66,5.2S3.39,5.6,3.2,5.87c-0.19,0.27-0.44,0.6-0.44,0.6
		s-0.5-0.08-0.76-0.14C1.75,6.26,1.38,6.12,1.38,6.12s-0.12-0.2-0.29-0.69C0.91,4.94,0.86,4.78,0.86,4.78"/>
	<path class="st0" d="M1.34,7.12c0.35,0.42,0.79,0.76,1.28,1.01c0,0,0.18-0.03,0.46-0.11C3.3,7.94,3.56,7.73,3.56,7.73
		S3.22,7.27,3.08,7.04C2.93,6.82,2.77,6.47,2.77,6.47s-0.5-0.08-0.76-0.14C1.75,6.26,1.38,6.12,1.38,6.12S1.34,6.32,1.33,6.56
		C1.33,6.8,1.34,7.12,1.34,7.12"/>
	<path class="st1" d="M2.62,8.12C3.17,8.4,3.79,8.56,4.45,8.56c0.6,0,1.17-0.13,1.68-0.36c0,0-0.3-0.08-0.5-0.22
		c-0.14-0.1-0.27-0.23-0.27-0.23s-0.5,0.07-0.9,0.07c-0.41,0-0.89-0.09-0.89-0.09S3.3,7.94,3.07,8.01C2.8,8.1,2.62,8.12,2.62,8.12z"
		/>
	<path class="st1" d="M3.56,7.73c0,0-0.33-0.46-0.48-0.69C2.93,6.82,2.77,6.47,2.77,6.47s0.25-0.33,0.44-0.6
		C3.39,5.6,3.66,5.2,3.66,5.2S4.2,5.23,4.55,5.23c0.34,0,0.9-0.03,0.9-0.03s0.27,0.45,0.44,0.71c0.17,0.26,0.4,0.62,0.4,0.62
		S6.01,6.95,5.78,7.27C5.55,7.59,5.36,7.75,5.36,7.75s-0.5,0.07-0.9,0.07C4.04,7.82,3.56,7.73,3.56,7.73z"/>
	<path class="st0" d="M7.61,6.19c0,0,0.03,0.2,0.01,0.49C7.59,6.96,7.53,7.15,7.53,7.15C7.15,7.59,6.67,7.96,6.13,8.2
		c0,0-0.3-0.08-0.5-0.22c-0.14-0.1-0.27-0.23-0.27-0.23s0.19-0.16,0.42-0.48c0.23-0.32,0.51-0.73,0.51-0.73s0.1,0.01,0.35-0.02
		c0.25-0.03,0.55-0.12,0.68-0.17C7.45,6.29,7.61,6.19,7.61,6.19z"/>
	<path class="st1" d="M8.13,4.52c0,0,0.12-0.02,0.2-0.11c0.08-0.09,0.16-0.3,0.16-0.3C8.51,4.24,8.51,4.37,8.51,4.5
		c0,1.01-0.37,1.94-0.98,2.65c0,0,0.06-0.18,0.08-0.47c0.02-0.29-0.01-0.49-0.01-0.49s0.17-0.27,0.28-0.61
		c0.12-0.37,0.18-0.61,0.2-0.73C8.13,4.65,8.13,4.52,8.13,4.52z"/>
	<path class="st0" d="M7.23,1.99c0,0,0.18,0.07,0.35,0.16s0.33,0.22,0.33,0.22c0.32,0.52,0.52,1.11,0.58,1.74
		c0,0-0.08,0.21-0.16,0.3c-0.08,0.09-0.2,0.11-0.2,0.11S8.04,4.31,7.9,4.07C7.75,3.83,7.64,3.66,7.54,3.52
		c-0.1-0.14-0.19-0.25-0.19-0.25s0.03-0.24,0.01-0.49C7.33,2.32,7.23,1.99,7.23,1.99z"/>
	<path class="st1" d="M7.58,2.15C7.41,2.06,7.23,1.99,7.23,1.99S7,1.73,6.81,1.59C6.61,1.44,6.34,1.28,6.2,1.2
		c-0.14-0.08-0.34-0.2-0.34-0.2S5.78,0.88,5.68,0.78C5.54,0.65,5.39,0.55,5.39,0.55C6.45,0.8,7.35,1.47,7.91,2.37
		C7.91,2.37,7.74,2.24,7.58,2.15z"/>
	<path class="st1" d="M0.91,2.5c0.57-1.01,1.57-1.76,2.75-1.99c0,0-0.16,0.08-0.3,0.21C3.27,0.82,3.2,0.97,3.2,0.97
		S2.72,1.28,2.5,1.45C2.27,1.61,1.81,1.99,1.81,1.99h0c0,0-0.18,0.07-0.35,0.16C1.15,2.32,0.91,2.5,0.91,2.5L0.91,2.5z"/>
	<path class="st0" d="M3.66,0.52c0.26-0.05,0.52-0.08,0.79-0.08c0.32,0,0.64,0.04,0.94,0.11h0c0,0,0.16,0.1,0.29,0.24
		c0.1,0.09,0.17,0.23,0.17,0.23l0,0c0,0-0.28,0.02-0.64,0.09C4.99,1.14,4.71,1.23,4.57,1.3c0,0-0.25-0.11-0.61-0.2
		C3.61,1.02,3.2,0.97,3.2,0.97s0.07-0.15,0.16-0.24C3.5,0.59,3.66,0.52,3.66,0.52"/>
	<path class="st1" d="M3.13,3.57c0,0,0.4-0.31,0.64-0.49c0.28-0.21,0.22-0.16,0.77-0.54c0,0,0.01-0.5,0.01-0.7
		c0-0.21,0.02-0.53,0.02-0.53S4.32,1.19,3.96,1.1C3.61,1.02,3.2,0.97,3.2,0.97S2.78,1.17,2.45,1.41c-0.3,0.22-0.65,0.58-0.65,0.58
		S1.74,2.45,1.75,2.68c0,0.23,0.03,0.56,0.03,0.56s0.39,0.1,0.64,0.17C2.66,3.47,3.13,3.57,3.13,3.57z"/>
	<path class="st1" d="M7.23,1.99c0,0-0.23-0.25-0.43-0.4C6.61,1.44,6.34,1.28,6.2,1.2c-0.14-0.08-0.34-0.2-0.34-0.2v0
		c0,0-0.28,0.02-0.64,0.09C4.99,1.14,4.71,1.23,4.57,1.3c0,0-0.02,0.33-0.02,0.53c0,0.21-0.01,0.7-0.01,0.7S5,2.87,5.2,3.02
		C5.4,3.16,5.99,3.6,5.99,3.6s0.39-0.09,0.64-0.15C6.89,3.4,7.35,3.27,7.35,3.27s0.03-0.24,0.01-0.49C7.33,2.32,7.23,1.99,7.23,1.99
		z"/>
	<path class="st1" d="M8.13,4.52c0,0-0.09-0.21-0.24-0.45C7.75,3.83,7.64,3.66,7.54,3.52c-0.1-0.14-0.19-0.25-0.19-0.25
		S6.89,3.4,6.64,3.46C6.38,3.51,5.99,3.6,5.99,3.6S5.87,4.04,5.7,4.53C5.54,5.02,5.45,5.21,5.45,5.21s0.27,0.45,0.44,0.71
		c0.17,0.26,0.4,0.62,0.4,0.62l0,0c0,0,0.1,0.01,0.35-0.02c0.25-0.03,0.55-0.12,0.68-0.18c0.13-0.05,0.29-0.15,0.29-0.15v0
		c0,0,0.17-0.27,0.28-0.61c0.12-0.37,0.18-0.61,0.2-0.73C8.13,4.65,8.13,4.52,8.13,4.52z"/>
</g>
</svg>
