<?xml version="1.0" encoding="utf-8"?>
<!-- Generator: Adobe Illustrator 16.0.4, SVG Export Plug-In . SVG Version: 6.00 Build 0)  -->
<!DOCTYPE svg PUBLIC "-//W3C//DTD SVG 1.1//EN" "http://www.w3.org/Graphics/SVG/1.1/DTD/svg11.dtd" [
	<!ENTITY ns_flows "http://ns.adobe.com/Flows/1.0/">
	<!ENTITY ns_extend "http://ns.adobe.com/Extensibility/1.0/">
	<!ENTITY ns_ai "http://ns.adobe.com/AdobeIllustrator/10.0/">
	<!ENTITY ns_graphs "http://ns.adobe.com/Graphs/1.0/">
]>
<svg version="1.1" id="Ebene_1" xmlns:x="&ns_extend;" xmlns:i="&ns_ai;" xmlns:graph="&ns_graphs;"
	 xmlns="http://www.w3.org/2000/svg" xmlns:xlink="http://www.w3.org/1999/xlink" xmlns:a="http://ns.adobe.com/AdobeSVGViewerExtensions/3.0/"
	 x="0px" y="0px" width="18.7px" height="51.3px" viewBox="0 0 18.7 51.3" style="enable-background:new 0 0 18.7 51.3;"
	 xml:space="preserve">
<style type="text/css">
<![CDATA[
	.st0{fill:#EE7110;}
	.st1{fill:none;stroke:#080200;stroke-width:0.35;stroke-linecap:round;stroke-linejoin:round;stroke-miterlimit:3.8637;}
	.st2{fill:#080200;}
]]>
</style>
<path class="st2" d="M12.94,51.13L12.94,51.13l-0.69-0.03c-0.03,0-0.05-0.01-0.08-0.02l-0.99-0.54c-0.04-0.02-0.07-0.06-0.08-0.1
	l-0.6-2.05l-0.31-0.06H8.44l-0.26,0.05l-0.6,2.05c-0.01,0.04-0.04,0.08-0.08,0.1l-0.99,0.55C6.49,51.1,6.46,51.1,6.44,51.1
	l-0.68,0.02c-0.05,0-0.09-0.01-0.12-0.04L5.1,50.61c-0.03-0.02-0.04-0.05-0.05-0.09l-0.2-0.8c-0.01-0.05,0-0.1,0.02-0.14l0.08-0.13
	l0.01-1.24c0-0.04,0.01-0.08,0.04-0.11l0.36-0.43L4.85,46.5c-0.02-0.05-0.02-0.1,0-0.15l0.62-1.28l-0.11-2.69l-0.74-1.89
	c-0.01-0.01-0.01-0.03-0.01-0.05l-0.28-3.07L4.3,36.7l0.03-1.58l-0.37-3.1l-0.4-1.75L3.5,28.14l-0.45-0.15
	c-0.08-0.03-0.13-0.11-0.12-0.2l0.27-1.33l0.21-3.1l0.35-1.92c0-0.02,0.01-0.04,0.02-0.05L4,21l-3.11-2.45
	c-0.01-0.01-0.02-0.02-0.03-0.03L0.3,17.76c-0.02-0.03-0.03-0.06-0.03-0.09L0.2,16.42c0-0.02,0-0.03,0-0.05l0.24-1.08l-0.03-0.58
	l0.11-0.62c0-0.02,0.01-0.04,0.02-0.06l0.66-1.08l0.45-1.82c0-0.02,0.01-0.03,0.02-0.05L2.6,9.53C2.62,9.51,2.63,9.5,2.65,9.49
	l2-1.7c0.01-0.01,0.03-0.02,0.04-0.03l1.39-0.61l1.14-0.29V6.8L7,6.69C6.95,6.66,6.91,6.61,6.91,6.55L6.76,5.31V4.07H6.62
	C6.56,4.07,6.51,4.05,6.48,4C6.44,3.95,6.44,3.89,6.46,3.84l0.77-2C7.24,1.8,7.26,1.77,7.3,1.75l1-0.63L8.06,0.97
	C8.02,0.94,7.99,0.89,7.99,0.84C7.98,0.79,8,0.73,8.04,0.7L8.5,0.23c0.04-0.04,0.1-0.06,0.16-0.05l2.32,0.47
	c0.02,0,0.05,0.01,0.07,0.03l1.08,0.77c0.02,0.01,0.04,0.03,0.05,0.06l0.62,1.08c0.01,0.02,0.02,0.03,0.02,0.05l0.31,1.54
	c0.01,0.03,0,0.06-0.01,0.09l-0.46,1.4l-0.25,1.38l1.21,0.31c0.02,0,0.03,0.01,0.04,0.02l1.22,0.71c0.02,0.01,0.03,0.02,0.05,0.04
	l1.39,1.7l1.91,3.94l0.26,0.91c0,0.02,0.01,0.03,0.01,0.05v0.53c0,0.02,0,0.04-0.01,0.06l-0.19,0.53l-0.15,1.61l-0.23,0.85
	c-0.01,0.03-0.03,0.06-0.06,0.09l-0.46,0.39l-2.91,2.41l0.15,0.63l0.47,1.27l0.48,2.84l-0.08,0.95l0.2,0.52
	c0.01,0.03,0.01,0.05,0.01,0.08l-0.17,1.56c-0.01,0.07-0.06,0.13-0.13,0.15l-0.4,0.1l-0.29,2.78l-0.45,3.43l0.09,1.75l-0.02,0.66
	L14.06,41c0,0.02,0,0.03-0.01,0.05l-0.74,1.89l-0.1,2.66l0.59,0.71c0.04,0.05,0.05,0.12,0.03,0.18l-0.52,1.18l0.37,0.42
	c0.03,0.03,0.04,0.07,0.04,0.11l0.01,1.24l0.08,0.13c0.02,0.04,0.03,0.09,0.02,0.13l-0.2,0.81c-0.01,0.03-0.03,0.06-0.05,0.09
	l-0.52,0.47C13.02,51.11,12.98,51.13,12.94,51.13z"/>
<path id="dummy-body" class="st0" d="M5.38,50.39l0.44,0.39l0.57-0.02l0.89-0.49l0.61-2.08c0.02-0.06,0.07-0.11,0.13-0.12l0.4-0.08
	h1.81l0.44,0.08c0.06,0.01,0.12,0.06,0.13,0.12l0.61,2.08l0.89,0.49l0.57,0.03l0.43-0.39l0.17-0.69l-0.06-0.11
	c-0.02-0.03-0.02-0.06-0.02-0.09l-0.01-1.22l-0.4-0.45c-0.04-0.05-0.06-0.12-0.03-0.19l0.52-1.18l-0.56-0.68
	c-0.03-0.03-0.04-0.08-0.04-0.12l0.1-2.76c0-0.02,0-0.04,0.01-0.06l0.74-1.9l0.29-3.05l0.02-0.64l-0.09-1.77l0.45-3.46l0.3-2.9
	c0.01-0.07,0.06-0.13,0.13-0.15l0.4-0.1l0.15-1.4l-0.19-0.52c-0.01-0.02-0.01-0.05-0.01-0.08l0.08-0.95l-0.47-2.77l-0.47-1.26
	l-0.18-0.76c-0.01-0.06,0.01-0.13,0.06-0.17l3.41-2.83l0.21-0.77l0.16-1.62l0.19-0.54v-0.48l-0.24-0.86l-0.29-0.56l-1.59-3.32
	l-1.35-1.64l-1.17-0.68l-1.35-0.34c-0.09-0.02-0.15-0.11-0.13-0.2l0.28-1.56l0.45-1.38l-0.29-1.47L11.89,1.7l-1.02-0.73L8.68,0.54
	L8.43,0.79l0.28,0.18C8.77,1.01,8.8,1.06,8.79,1.12c0,0.06-0.03,0.11-0.08,0.15L7.53,2.02L6.88,3.73h0.06c0.1,0,0.17,0.08,0.17,0.17
	v1.39l0.14,1.13l0.23,0.12C7.54,6.57,7.57,6.63,7.57,6.7V7c0,0.08-0.05,0.15-0.13,0.17L6.19,7.48L4.85,8.07L2.9,9.73L2,11.23
	l-0.45,1.82c0,0.02-0.01,0.03-0.02,0.05l-0.65,1.07l-0.1,0.56v0.2l0.03,0.35c0,0.02,0,0.04,0,0.05l-0.24,1.09l0.07,1.17l0.51,0.69
	l3.21,2.53c0.07,0.05,0.09,0.15,0.04,0.22l-0.28,0.49L3.76,23.4l-0.21,3.1l-0.24,1.2l0.41,0.14c0.07,0.02,0.12,0.09,0.12,0.16
	l0.07,2.23l0.4,1.74l0.37,3.14L4.65,36.7l0.03,0.65l0.28,3.04l0.74,1.9c0.01,0.02,0.01,0.04,0.01,0.06l0.11,2.76
	c0,0.03,0,0.06-0.02,0.08l-0.6,1.25l0.53,1.21c0.03,0.06,0.02,0.13-0.03,0.18l-0.39,0.46L5.3,49.51c0,0.03-0.01,0.07-0.03,0.09
	L5.2,49.71L5.38,50.39z"/>
<line class="st1" x1="7.41" y1="48.24" x2="5.88" y2="48.24"/>
<line class="st1" x1="12.82" y1="48.24" x2="11.29" y2="48.24"/>
</svg>
