<?xml version="1.0" encoding="utf-8"?>
<!-- Generator: Adobe Illustrator 16.0.4, SVG Export Plug-In . SVG Version: 6.00 Build 0)  -->
<!DOCTYPE svg PUBLIC "-//W3C//DTD SVG 1.1//EN" "http://www.w3.org/Graphics/SVG/1.1/DTD/svg11.dtd" [
	<!ENTITY ns_flows "http://ns.adobe.com/Flows/1.0/">
	<!ENTITY ns_extend "http://ns.adobe.com/Extensibility/1.0/">
	<!ENTITY ns_ai "http://ns.adobe.com/AdobeIllustrator/10.0/">
	<!ENTITY ns_graphs "http://ns.adobe.com/Graphs/1.0/">
]>
<svg version="1.1" id="Ebene_1" xmlns:x="&ns_extend;" xmlns:i="&ns_ai;" xmlns:graph="&ns_graphs;"
	 xmlns="http://www.w3.org/2000/svg" xmlns:xlink="http://www.w3.org/1999/xlink" xmlns:a="http://ns.adobe.com/AdobeSVGViewerExtensions/3.0/"
	 x="0px" y="0px" width="11.77px" height="12.56px" viewBox="0 0 11.77 12.56" style="enable-background:new 0 0 11.77 12.56;"
	 xml:space="preserve">
<style type="text/css">
<![CDATA[
	.st0{fill:#EE7110;}
	.st1{fill:#030304;}
]]>
</style>
<polygon id="cone-bottom_2_" class="st0" points="8.23,8.41 11.42,9.74 6.02,12.15 0.62,9.74 3.85,8.41 "/>
<path id="cone_1_" class="st0" d="M6.02,1.25c-0.6,0-0.78-0.16-1.02-0.39L3.67,9.59c0,0.61,1.21,1.3,2.36,1.3
	c1.15,0,2.39-0.69,2.39-1.3L7.04,0.85C6.74,1.09,6.62,1.25,6.02,1.25z"/>
<path id="cone-top_2_" class="st0" d="M7.04,0.82c0,0.23-0.46,0.45-1.02,0.45C5.46,1.27,5,1.05,5,0.82c0-0.23,0.46-0.41,1.02-0.41
	C6.58,0.41,7.04,0.59,7.04,0.82z"/>
<path class="st1" d="M11.49,9.58l-3.1-1.3L7.21,0.83c0,0,0,0,0-0.01c0-0.4-0.62-0.58-1.2-0.58S4.82,0.42,4.82,0.82v0.01l0,0
	L3.7,8.26L0.55,9.58c-0.06,0.03-0.1,0.09-0.1,0.16s0.04,0.13,0.1,0.16l5.4,2.41c0.02,0.01,0.05,0.01,0.07,0.01
	c0.02,0,0.05,0,0.07-0.01l5.4-2.41c0.06-0.03,0.1-0.09,0.1-0.16S11.55,9.61,11.49,9.58z M6.02,0.58c0.53,0,0.83,0.17,0.85,0.24
	C6.86,0.89,6.55,1.1,6.02,1.1c-0.53,0-0.84-0.21-0.84-0.28C5.19,0.75,5.49,0.58,6.02,0.58z M5.12,1.23c0.23,0.14,0.57,0.21,0.9,0.21
	s0.67-0.08,0.9-0.22l1.32,8.36c0,0.47-1.12,1.13-2.22,1.13c-1.08,0-2.18-0.66-2.19-1.1L5.12,1.23z M6.02,11.96L1.06,9.74l2.57-1.08
	L3.5,9.59c0,0.73,1.28,1.48,2.53,1.48s2.57-0.76,2.56-1.5L8.46,8.69l2.52,1.06L6.02,11.96z"/>
</svg>
