<?xml version="1.0" encoding="utf-8"?>
<!-- Generator: Adobe Illustrator 27.8.0, SVG Export Plug-In . SVG Version: 6.00 Build 0)  -->
<svg version="1.1" id="Linien" xmlns="http://www.w3.org/2000/svg" xmlns:xlink="http://www.w3.org/1999/xlink" x="0px" y="0px"
	 viewBox="0 0 751.2 751.2" style="enable-background:new 0 0 751.2 751.2;" xml:space="preserve">
<style type="text/css">
	.st0{fill:#7FBE6A;}
	.st1{fill:#A5CF91;}
	.st2{fill:none;stroke:#FFFFFF;stroke-width:2;}
	.st3{fill:#FFFFFF;}
</style>
<g>
	<g>
		<rect y="0" class="st0" width="751.2" height="751.2"/>
	</g>
	<polygon class="st1" points="694.2,751.2 694.2,0 741.6,0 741.6,751.2 	"/>
	<polygon class="st1" points="31,751.2 31,0 78.4,0 78.4,751.2 	"/>
	<polygon class="st1" points="125.8,751.2 125.8,0 173.1,0 173.1,751.2 	"/>
	<polygon class="st1" points="315.1,751.2 315.1,0 362.5,0 362.5,751.2 	"/>
	<polygon class="st1" points="410,751.2 410,0 457.3,0 457.3,751.2 	"/>
	<polygon class="st1" points="504.7,751.2 504.7,0 552.1,0 552.1,751.2 	"/>
	<polygon class="st1" points="599.5,751.2 599.5,0 646.8,0 646.8,751.2 	"/>
	<polygon class="st1" points="220.4,751.2 220.4,0 267.8,0 267.8,751.2 	"/>
	<g>
		<polyline class="st2" points="0,77.8 694.3,77.8 694.3,723.8 0,723.8 		"/>
		<line class="st2" x1="220.6" y1="77.8" x2="220.6" y2="723.8"/>
		<path class="st2" d="M299.4,400.8c0,43.5-35.3,78.8-78.8,78.8s-78.8-35.3-78.8-78.8c0-43.5,35.3-78.8,78.8-78.8
			S299.4,357.3,299.4,400.8z"/>
		<path class="st2" d="M685.7,723.8c0-4.8,3.8-8.6,8.6-8.6"/>
		<path class="st2" d="M694.3,86.4c-4.8,0-8.6-3.8-8.6-8.6"/>
		<polyline class="st2" points="694.3,574.5 552.2,574.5 552.2,227.2 694.3,227.2 		"/>
		<polyline class="st2" points="694.3,479.7 647,479.7 647,321.9 694.3,321.9 		"/>
		<path class="st2" d="M552.2,463.8c-19.1-14.4-31.4-37.2-31.4-63s12.3-48.6,31.4-63"/>
		<circle class="st3" cx="599.6" cy="400.8" r="3"/>
		<circle class="st3" cx="220.6" cy="400.8" r="3"/>
	</g>
</g>
</svg>
