<?xml version="1.0" encoding="utf-8"?>
<!-- Generator: Adobe Illustrator 16.0.4, SVG Export Plug-In . SVG Version: 6.00 Build 0)  -->
<!DOCTYPE svg PUBLIC "-//W3C//DTD SVG 1.1//EN" "http://www.w3.org/Graphics/SVG/1.1/DTD/svg11.dtd" [
	<!ENTITY ns_flows "http://ns.adobe.com/Flows/1.0/">
	<!ENTITY ns_extend "http://ns.adobe.com/Extensibility/1.0/">
	<!ENTITY ns_ai "http://ns.adobe.com/AdobeIllustrator/10.0/">
	<!ENTITY ns_graphs "http://ns.adobe.com/Graphs/1.0/">
]>
<svg version="1.1" id="Linien" xmlns:x="&ns_extend;" xmlns:i="&ns_ai;" xmlns:graph="&ns_graphs;"
	 xmlns="http://www.w3.org/2000/svg" xmlns:xlink="http://www.w3.org/1999/xlink" xmlns:a="http://ns.adobe.com/AdobeSVGViewerExtensions/3.0/"
	 x="0px" y="0px" width="757.3px" height="567.98px" viewBox="0 0 757.3 567.98" style="enable-background:new 0 0 757.3 567.98;"
	 xml:space="preserve">
<style type="text/css">
<![CDATA[
	.st0{fill:#7FBE6A;}
	.st1{fill:none;stroke:#FFFFFF;stroke-width:2;}
	.st2{fill:#FFFFFF;}
	.st3{fill:#333333;}
	.st4{fill:#A5CF91;}
]]>
</style>
<g>
	<rect x="0" class="st0" width="757.3" height="567.98"/>
</g>
<polygon class="st4" points="757.3,186.19 0,186.19 0,144.66 757.3,144.66 "/>
<polygon class="st4" points="757.3,269.3 0,269.3 0,227.77 757.3,227.77 "/>
<polygon class="st4" points="757.3,352.35 0,352.35 0,310.82 757.3,310.82 "/>
<polygon class="st4" points="757.3,435.41 0,435.41 0,393.88 757.3,393.88 "/>
<polygon class="st4" points="757.3,103.13 0,103.13 0,61.6 757.3,61.6 "/>
<rect x="0" y="559.87" class="st4" width="757.3" height="8.11"/>
<polygon class="st4" points="757.3,518.35 0,518.35 0,476.82 757.3,476.82 "/>
<polygon class="st4" points="757.3,20.04 0,20.04 0,0 757.3,0 "/>
<g>
	<polyline class="st1" points="93.16,567.98 93.16,61.72 659.44,61.72 659.44,567.98 	"/>
	<polyline class="st1" points="528.52,61.72 528.52,186.3 224.09,186.3 224.09,61.72 	"/>
	<polyline class="st1" points="445.46,61.72 445.46,103.25 307.14,103.25 307.14,61.72 	"/>
	<line class="st1" x1="659.44" y1="477" x2="93.16" y2="477"/>
	<path class="st1" d="M307.21,476.99c0-38.16,30.93-69.09,69.09-69.09c38.15,0,69.08,30.93,69.08,69.09s-30.93,69.09-69.08,69.09
		C338.15,546.08,307.21,515.15,307.21,476.99z"/>
	<path class="st1" d="M100.71,61.72c0,4.17-3.38,7.55-7.55,7.55"/>
	<path class="st1" d="M659.44,69.27c-4.17,0-7.55-3.38-7.55-7.55"/>
	<path class="st1" d="M431.48,186.36c-12.61,16.71-32.63,27.51-55.17,27.51c-22.55,0-42.57-10.8-55.18-27.51"/>
	<path class="st2" d="M373.66,144.78c0-1.46,1.18-2.64,2.65-2.64c1.46,0,2.64,1.18,2.64,2.64c0,1.46-1.18,2.64-2.64,2.64
		C374.84,147.42,373.66,146.24,373.66,144.78z"/>
	<path class="st2" d="M378.94,477c0,1.46-1.18,2.64-2.64,2.64s-2.64-1.18-2.64-2.64s1.18-2.64,2.64-2.64
		C377.76,474.35,378.94,475.53,378.94,477z"/>
</g>
<g>
	<path class="st3" d="M678.6,547.41c-0.1,0.23-0.16,0.48-0.16,0.71c0,0.6,0.42,0.88,1.22,0.88h1v-1.34h0.87V549h5.45v1.07h-5.45
		v0.87h-0.81l-0.06-0.86h-1c-1.29,0-2.09-0.58-2.09-1.85c0-0.39,0.09-0.77,0.21-1.05L678.6,547.41z"/>
	<path class="st3" d="M680.66,546.75v-1.08h3.86c1.18,0,1.69-0.35,1.69-1.18c0-0.65-0.32-1.11-1.07-1.7h-4.49v-1.07h6.32v0.88
		l-0.99,0.09v0.04c0.69,0.59,1.14,1.21,1.14,2.08c0,1.34-0.86,1.94-2.47,1.94H680.66z"/>
	<path class="st3" d="M685.55,539.76c0.44-0.54,0.75-1.1,0.75-1.86c0-0.83-0.44-1.25-0.99-1.25c-0.65,0-0.94,0.75-1.2,1.44
		c-0.33,0.9-0.75,1.89-1.82,1.89c-1.01,0-1.79-0.81-1.79-2.17c0-0.79,0.33-1.48,0.71-1.96l0.68,0.51c-0.33,0.43-0.56,0.88-0.56,1.44
		c0,0.79,0.43,1.16,0.91,1.16c0.59,0,0.82-0.69,1.09-1.4c0.34-0.91,0.71-1.92,1.91-1.92c1.03,0,1.88,0.82,1.88,2.31
		c0,0.9-0.38,1.76-0.87,2.35L685.55,539.76z"/>
	<path class="st3" d="M685.55,534.31c0.44-0.55,0.75-1.1,0.75-1.86c0-0.83-0.44-1.25-0.99-1.25c-0.65,0-0.94,0.75-1.2,1.44
		c-0.33,0.9-0.75,1.88-1.82,1.88c-1.01,0-1.79-0.81-1.79-2.17c0-0.79,0.33-1.48,0.71-1.96l0.68,0.51c-0.33,0.43-0.56,0.88-0.56,1.44
		c0,0.79,0.43,1.16,0.91,1.16c0.59,0,0.82-0.69,1.09-1.4c0.34-0.91,0.71-1.92,1.91-1.92c1.03,0,1.88,0.82,1.88,2.31
		c0,0.9-0.38,1.75-0.87,2.35L685.55,534.31z"/>
	<path class="st3" d="M677.72,528.69v-1.07h2.52l1.14,0.03c-0.51-0.57-0.88-1.27-0.88-1.98c0-1.64,1.26-2.51,3.21-2.51
		c2.16,0,3.42,1.29,3.42,2.73c0,0.58-0.29,1.25-0.78,1.81v0.04l0.62,0.09v0.86H677.72L677.72,528.69z M686.24,526.08
		c0-1.04-0.95-1.81-2.51-1.81c-1.39,0-2.33,0.47-2.33,1.66c0,0.53,0.3,1.09,0.86,1.69h3.31
		C686.06,527.07,686.24,526.5,686.24,526.08z"/>
	<path class="st3" d="M682.98,518.09c-0.81,0-1.59,0.27-1.59,1.3c0,0.74,0.34,1.39,0.68,1.89l-0.74,0.43
		c-0.38-0.58-0.82-1.47-0.82-2.48c0-1.55,1.03-2.2,2.6-2.2h3.87v0.88l-0.75,0.09v0.03c0.49,0.61,0.91,1.31,0.91,2.09
		c0,1.07-0.66,1.86-1.79,1.86C683.96,521.97,683.28,520.78,682.98,518.09z M686.28,519.81c0-0.61-0.3-1.12-0.84-1.73h-1.76
		c0.26,2.12,0.78,2.83,1.59,2.83C685.98,520.92,686.28,520.44,686.28,519.81z"/>
	<path class="st3" d="M677.72,515v-1.06h8.06c0.34,0,0.47-0.14,0.47-0.3c0-0.07,0-0.12-0.03-0.23l0.81-0.14
		c0.07,0.14,0.1,0.33,0.1,0.61c0,0.81-0.51,1.13-1.43,1.13L677.72,515L677.72,515L677.72,515z"/>
	<path class="st3" d="M677.72,511.69v-1.07h8.06c0.34,0,0.47-0.14,0.47-0.3c0-0.06,0-0.12-0.03-0.23l0.81-0.14
		c0.07,0.14,0.1,0.33,0.1,0.61c0,0.81-0.51,1.13-1.43,1.13H677.72L677.72,511.69z"/>
	<path class="st3" d="M681.53,508.19v0.94h-0.81l-0.06-0.99l-1.77-0.13v-0.9h1.77v-1.7h0.87v1.7h3.51c0.78,0,1.22-0.25,1.22-0.97
		c0-0.22-0.09-0.51-0.17-0.71l0.81-0.21c0.12,0.35,0.23,0.78,0.23,1.17c0,1.35-0.86,1.81-2.11,1.81L681.53,508.19L681.53,508.19z"/>
	<path class="st3" d="M680.66,503.98v-0.88l1.14-0.09v-0.04c-0.79-0.43-1.3-1.08-1.3-1.79c0-0.27,0.04-0.47,0.13-0.68l0.94,0.21
		c-0.06,0.21-0.1,0.35-0.1,0.61c0,0.53,0.39,1.17,1.46,1.6h4.06v1.07L680.66,503.98L680.66,503.98z"/>
	<path class="st3" d="M682.98,496.22c-0.81,0-1.59,0.27-1.59,1.3c0,0.74,0.34,1.39,0.68,1.89l-0.74,0.43
		c-0.38-0.58-0.82-1.47-0.82-2.48c0-1.55,1.03-2.2,2.6-2.2h3.87v0.88l-0.75,0.09v0.03c0.49,0.61,0.91,1.31,0.91,2.09
		c0,1.07-0.66,1.86-1.79,1.86C683.96,500.11,683.28,498.91,682.98,496.22z M686.28,497.95c0-0.61-0.3-1.12-0.84-1.73h-1.76
		c0.26,2.12,0.78,2.83,1.59,2.83C685.98,499.05,686.28,498.57,686.28,497.95z"/>
	<path class="st3" d="M678.67,493.33c-0.42,0-0.69-0.33-0.69-0.74s0.27-0.74,0.69-0.74c0.4,0,0.69,0.33,0.69,0.74
		S679.08,493.33,678.67,493.33z M680.66,493.14v-1.07h6.32v1.07H680.66z"/>
	<path class="st3" d="M680.66,489.94v-0.88l0.91-0.09v-0.04c-0.6-0.6-1.07-1.25-1.07-2.12c0-1.33,0.86-1.92,2.47-1.92h4v1.07h-3.86
		c-1.18,0-1.69,0.36-1.69,1.2c0,0.65,0.34,1.09,0.97,1.73h4.58v1.05H680.66z"/>
	<path class="st3" d="M678.67,483.02c-0.42,0-0.69-0.33-0.69-0.74c0-0.41,0.27-0.74,0.69-0.74c0.4,0,0.69,0.33,0.69,0.74
		C679.36,482.69,679.08,483.02,678.67,483.02z M680.66,482.83v-1.07h6.32v1.07H680.66z"/>
	<path class="st3" d="M680.66,479.63v-0.88l0.91-0.09v-0.04c-0.6-0.6-1.07-1.25-1.07-2.12c0-1.33,0.86-1.92,2.47-1.92h4v1.07h-3.86
		c-1.18,0-1.69,0.36-1.69,1.2c0,0.65,0.34,1.09,0.97,1.73h4.58v1.07h-6.31V479.63L680.66,479.63z"/>
	<path class="st3" d="M686.76,472.08h-0.05c-0.19,0.31-0.53,0.56-1.03,0.56c-0.53,0-0.95-0.36-1.17-0.69h-0.05
		c-0.34,0.42-0.95,0.82-1.7,0.82c-1.38,0-2.25-1.09-2.25-2.38c0-0.35,0.07-0.66,0.16-0.9v-2.2h0.82v1.3c0.29-0.3,0.77-0.52,1.3-0.52
		c1.35,0,2.2,1.03,2.2,2.31c0,0.31-0.08,0.66-0.22,0.95c0.19,0.22,0.4,0.4,0.75,0.4c0.4,0,0.69-0.26,0.69-1.12v-1.22
		c0-1.47,0.46-2.21,1.51-2.21c1.17,0,2.18,1.23,2.18,3.2c0,1.55-0.61,2.61-1.7,2.61C687.66,473,687.15,472.65,686.76,472.08z
		 M689.15,470.23c0-1.21-0.62-2-1.29-2c-0.58,0-0.78,0.45-0.78,1.27v1.09c0,0.25-0.03,0.55-0.1,0.82c0.33,0.46,0.7,0.65,1.07,0.65
		C688.72,472.07,689.15,471.38,689.15,470.23z M682.76,469.05c-0.92,0-1.47,0.6-1.47,1.34s0.55,1.34,1.47,1.34s1.51-0.61,1.51-1.34
		C684.26,469.66,683.68,469.05,682.76,469.05z"/>
	<path class="st3" d="M683.31,466.5v-2.99h0.82v2.99H683.31z"/>
	<path class="st3" d="M686.76,461.48h-0.05c-0.19,0.31-0.53,0.56-1.03,0.56c-0.53,0-0.95-0.36-1.17-0.69h-0.05
		c-0.34,0.42-0.95,0.82-1.7,0.82c-1.38,0-2.25-1.09-2.25-2.38c0-0.35,0.07-0.66,0.16-0.9v-2.2h0.82v1.3c0.29-0.3,0.77-0.52,1.3-0.52
		c1.35,0,2.2,1.03,2.2,2.31c0,0.31-0.08,0.66-0.22,0.95c0.19,0.22,0.4,0.4,0.75,0.4c0.4,0,0.69-0.26,0.69-1.12v-1.22
		c0-1.47,0.46-2.21,1.51-2.21c1.17,0,2.18,1.24,2.18,3.2c0,1.55-0.61,2.61-1.7,2.61C687.66,462.41,687.15,462.06,686.76,461.48z
		 M689.15,459.64c0-1.21-0.62-2-1.29-2c-0.58,0-0.78,0.46-0.78,1.27V460c0,0.25-0.03,0.55-0.1,0.82c0.33,0.45,0.7,0.65,1.07,0.65
		C688.72,461.47,689.15,460.78,689.15,459.64z M682.76,458.45c-0.92,0-1.47,0.6-1.47,1.34c0,0.74,0.55,1.34,1.47,1.34
		s1.51-0.61,1.51-1.34C684.26,459.07,683.68,458.45,682.76,458.45z"/>
	<path class="st3" d="M680.66,455.37v-0.88l1.14-0.09v-0.04c-0.79-0.43-1.3-1.08-1.3-1.79c0-0.27,0.04-0.47,0.13-0.68l0.94,0.21
		c-0.06,0.21-0.1,0.35-0.1,0.61c0,0.53,0.39,1.17,1.46,1.6h4.06v1.07L680.66,455.37L680.66,455.37L680.66,455.37z"/>
	<path class="st3" d="M682.98,447.61c-0.81,0-1.59,0.27-1.59,1.3c0,0.74,0.34,1.39,0.68,1.88l-0.74,0.43
		c-0.38-0.59-0.82-1.47-0.82-2.48c0-1.55,1.03-2.2,2.6-2.2h3.87v0.88l-0.75,0.09v0.03c0.49,0.61,0.91,1.31,0.91,2.09
		c0,1.07-0.66,1.86-1.79,1.86C683.96,451.5,683.28,450.3,682.98,447.61z M686.28,449.34c0-0.61-0.3-1.12-0.84-1.73h-1.76
		c0.26,2.12,0.78,2.83,1.59,2.83C685.98,450.45,686.28,449.97,686.28,449.34z"/>
	<path class="st3" d="M687.51,443.47h2.13v1.07h-8.98v-0.88l0.73-0.09v-0.04c-0.48-0.57-0.88-1.27-0.88-2.02
		c0-1.62,1.26-2.5,3.22-2.5c2.14,0,3.41,1.29,3.41,2.73c0,0.58-0.27,1.17-0.73,1.75L687.51,443.47z M686.24,441.92
		c0-1.04-0.95-1.81-2.51-1.81c-1.39,0-2.33,0.47-2.33,1.66c0,0.53,0.3,1.07,0.86,1.69h3.31
		C686.06,442.89,686.24,442.34,686.24,441.92z"/>
	<path class="st3" d="M677.72,437.32v-1.07h2.52l1.3,0.04c-0.57-0.6-1.04-1.23-1.04-2.11c0-1.33,0.86-1.92,2.47-1.92h4v1.07h-3.86
		c-1.18,0-1.69,0.36-1.69,1.2c0,0.65,0.34,1.09,0.97,1.73h4.58v1.07L677.72,437.32L677.72,437.32z"/>
	<path class="st3" d="M678.67,430.44c-0.42,0-0.69-0.33-0.69-0.74s0.27-0.74,0.69-0.74c0.4,0,0.69,0.33,0.69,0.74
		S679.08,430.44,678.67,430.44z M680.66,430.25v-1.07h6.32v1.07H680.66z"/>
	<path class="st3" d="M680.51,424.47c0-0.83,0.35-1.42,0.75-1.85l0.69,0.53c-0.33,0.38-0.56,0.77-0.56,1.27
		c0,1.14,0.99,1.98,2.44,1.98c1.44,0,2.42-0.79,2.42-1.95c0-0.6-0.3-1.11-0.64-1.48l0.7-0.48c0.51,0.57,0.82,1.3,0.82,2.05
		c0,1.68-1.21,2.96-3.3,2.96C681.71,427.52,680.51,426.1,680.51,424.47z"/>
	<path class="st3" d="M685.55,421.29c0.44-0.54,0.75-1.1,0.75-1.86c0-0.83-0.44-1.25-0.99-1.25c-0.65,0-0.94,0.75-1.2,1.44
		c-0.33,0.9-0.75,1.89-1.82,1.89c-1.01,0-1.79-0.81-1.79-2.17c0-0.79,0.33-1.48,0.71-1.96l0.68,0.51c-0.33,0.43-0.56,0.88-0.56,1.44
		c0,0.79,0.43,1.16,0.91,1.16c0.59,0,0.82-0.69,1.09-1.4c0.34-0.91,0.71-1.92,1.91-1.92c1.03,0,1.88,0.82,1.88,2.31
		c0,0.9-0.38,1.76-0.87,2.35L685.55,421.29z"/>
	<path class="st3" d="M685.5,415.11c0-0.42,0.34-0.77,0.83-0.77c0.47,0,0.81,0.35,0.81,0.77c0,0.43-0.34,0.78-0.81,0.78
		C685.84,415.89,685.5,415.54,685.5,415.11z"/>
	<path class="st3" d="M680.51,410.25c0-0.73,0.27-1.21,0.73-1.77l-1.08,0.05h-2.43v-1.08h9.26v0.88l-0.74,0.09v0.04
		c0.48,0.49,0.9,1.17,0.9,1.91c0,1.59-1.2,2.61-3.3,2.61C681.78,413,680.51,411.69,680.51,410.25z M686.24,410.15
		c0-0.58-0.29-1.09-0.87-1.61h-3.3c-0.48,0.53-0.66,1.01-0.66,1.53c0,1.01,0.98,1.82,2.42,1.82
		C685.33,411.89,686.24,411.25,686.24,410.15z"/>
	<path class="st3" d="M680.51,402.96c0-1.61,1.16-2.52,2.96-2.52c0.22,0,0.43,0.01,0.58,0.04v4.26c1.37-0.08,2.22-0.9,2.22-2.11
		c0-0.6-0.19-1.11-0.49-1.57l0.7-0.38c0.35,0.55,0.65,1.22,0.65,2.08c0,1.69-1.24,3.03-3.3,3.03
		C681.77,405.79,680.51,404.4,680.51,402.96z M683.35,401.37c-1.29,0-2,0.57-2,1.56c0,0.88,0.73,1.69,2,1.82V401.37z"/>
</g>
</svg>
