<svg width="24" height="28" viewBox="0 0 24 28" fill="none" xmlns="http://www.w3.org/2000/svg">
<g>
  <path d="M12 28C18.6274 28 24 25.3137 24 22C24 18.6863 18.6274 16 12 16C5.37258 16 0 18.6863 0 22C0 25.3137 5.37258 28 12 28Z" fill="url(#paint0)" fill-opacity="0.25"/>
  <path d="M12 24C18.6274 24 24 18.6274 24 12C24 5.37258 18.6274 0 12 0C5.37258 0 0 5.37258 0 12C0 18.6274 5.37258 24 12 24Z" fill="url(#paint1)"/>
  <path fill-rule="evenodd" clip-rule="evenodd" d="M15.5353 2.23321L12.0025 4.80001L8.46973 2.23321L9.07811 0.36001C10.9982 -0.120003 13.0069 -0.120003 14.9269 0.36001L15.5353 2.23321ZM7.96191 11.094L11.9999 8.16003L16.0379 11.094L14.4959 15.84H9.50391L7.96191 11.094ZM5.15183 9.77527L3.80303 5.62207H1.83384C0.779456 7.29828 0.158798 9.21055 0.027832 11.1865L1.61903 12.3421L5.15183 9.77527ZM3.40089 17.8248H7.76768L9.11768 21.978L7.52287 23.1372C5.68735 22.3959 4.0627 21.2139 2.79248 19.6956L3.40089 17.8248ZM16.2311 17.8248L14.8823 21.978L16.4759 23.1372C18.3118 22.3965 19.9366 21.2144 21.2063 19.6956L20.5991 17.8248H16.2311ZM22.3751 12.3421L18.8423 9.77527L20.1983 5.62207H22.1663C23.2191 7.29861 23.8377 9.21097 23.9663 11.1865L22.3751 12.3421Z" fill="url(#paint2)"/>
  <path opacity="0.15" d="M22.0278 10C22.0278 16.6275 16.6552 22 10.0278 22C7.18973 22 4.5818 21.0148 2.52734 19.3678C4.72315 22.1868 8.14979 24 11.9999 24C18.6273 24 23.9999 18.6275 23.9999 12C23.9999 8.21066 22.2435 4.83151 19.5003 2.63232C21.0843 4.66585 22.0278 7.22277 22.0278 10Z" fill="black"/>
</g>
<defs>
<linearGradient id="paint0" x1="24" y1="28.0002" x2="-2.16078" y2="27.4726" gradientUnits="userSpaceOnUse">
<stop stop-color="#253780"/>
<stop offset="1" stop-color="#253780" stop-opacity="0"/>
</linearGradient>
<linearGradient id="paint1" x1="5.1" y1="1.33333" x2="20.9685" y2="22.4453" gradientUnits="userSpaceOnUse">
<stop stop-color="#F3F3F3"/>
<stop offset="0.5" stop-color="#DDDDDD"/>
<stop offset="1" stop-color="#AFAFAF"/>
</linearGradient>
<linearGradient id="paint2" x1="5.11475" y1="1.2854" x2="20.2606" y2="22.1338" gradientUnits="userSpaceOnUse">
<stop stop-color="#868686"/>
<stop offset="0.5" stop-color="#333333"/>
<stop offset="1"/>
</linearGradient>
</defs>
</svg>
