<?xml version="1.0" encoding="utf-8"?>
<!-- Generator: Adobe Illustrator 16.0.4, SVG Export Plug-In . SVG Version: 6.00 Build 0)  -->
<!DOCTYPE svg PUBLIC "-//W3C//DTD SVG 1.1//EN" "http://www.w3.org/Graphics/SVG/1.1/DTD/svg11.dtd" [
	<!ENTITY ns_flows "http://ns.adobe.com/Flows/1.0/">
	<!ENTITY ns_extend "http://ns.adobe.com/Extensibility/1.0/">
	<!ENTITY ns_ai "http://ns.adobe.com/AdobeIllustrator/10.0/">
	<!ENTITY ns_graphs "http://ns.adobe.com/Graphs/1.0/">
]>
<svg version="1.1" id="Ebene_1" xmlns:x="&ns_extend;" xmlns:i="&ns_ai;" xmlns:graph="&ns_graphs;"
	 xmlns="http://www.w3.org/2000/svg" xmlns:xlink="http://www.w3.org/1999/xlink" xmlns:a="http://ns.adobe.com/AdobeSVGViewerExtensions/3.0/"
	 x="0px" y="0px" width="92.6px" height="14.6px" viewBox="0 0 92.6 14.6" style="enable-background:new 0 0 92.6 14.6;"
	 xml:space="preserve">
<style type="text/css">
<![CDATA[
	.st0{fill:#EE7110;stroke:#080200;stroke-width:0.35;stroke-linecap:round;stroke-linejoin:round;stroke-miterlimit:3.8637;}
]]>
</style>
<g>
	<path class="st0" d="M1.07,0.37L0.35,14.23l91.9-0.03L91.52,0.37H1.07z M41.95,1.58h8.73l0.03,11.41h-8.82L41.95,1.58z
		 M10.42,12.99H1.59L2.16,1.58h8.75L10.42,12.99z M20.49,12.99h-8.82l0.46-11.41h8.73L20.49,12.99z M30.56,12.99h-8.83L22.1,1.58
		h8.69L30.56,12.99z M40.63,12.99h-8.82L32,1.58h8.73L40.63,12.99z M60.78,12.99h-8.82L51.88,1.58h8.72L60.78,12.99z M70.86,12.99
		h-8.83l-0.2-11.41h8.72L70.86,12.99z M80.93,12.99H72.1L71.75,1.58h8.72L80.93,12.99z M91,12.99h-8.83L81.72,1.58h8.7L91,12.99z"/>
</g>
</svg>
