<?xml version="1.0" encoding="UTF-8"?>
<svg id="Streifen" xmlns="http://www.w3.org/2000/svg" version="1.1" viewBox="0 0 757.3 568">
  <!-- Generator: Adobe Illustrator 29.1.0, SVG Export Plug-In . SVG Version: 2.1.0 Build 142)  -->
  <defs>
    <style>
      .st0 {
        fill: #92dab0;
      }

      .st1 {
        fill: #b2e7c7;
      }
    </style>
  </defs>
  <rect class="st1" y="-1" width="757.3" height="568"/>
  <polygon class="st0" points="693.3 567 693.3 -1 757.3 -1 757.3 567 693.3 567"/>
  <polygon class="st0" points="567.3 567 567.3 -1 630.3 -1 630.3 567 567.3 567"/>
  <polygon class="st0" points="441.3 567 441.3 -1 504.3 -1 504.3 567 441.3 567"/>
  <polygon class="st0" points="189.4 567 189.4 -1 252.4 -1 252.4 567 189.4 567"/>
  <polygon class="st0" points="63.3 567 63.3 -1 126.3 -1 126.3 567 63.3 567"/>
  <polygon class="st0" points="315.4 567 315.4 -1 378.4 -1 378.4 567 315.4 567"/>
</svg>