<?xml version="1.0" encoding="utf-8"?>
<!-- Generator: Adobe Illustrator 27.8.0, SVG Export Plug-In . SVG Version: 6.00 Build 0)  -->
<svg version="1.1" id="Ebene_1" xmlns="http://www.w3.org/2000/svg" xmlns:xlink="http://www.w3.org/1999/xlink" x="0px" y="0px"
	 viewBox="0 0 18.5 56.8" style="enable-background:new 0 0 18.5 56.8;" xml:space="preserve">
<style type="text/css">
	.st0{fill:#1A1A18;}
	.st1{fill:#FFFFFF;}
	.st2{fill:#FBCDAA;}
</style>
<path class="st0" d="M18.2,21.1c0-0.9-0.2-3.2-0.2-3.6c0-0.4-0.1-0.9-0.2-1.3c0-0.2-0.1-0.8-0.3-1.5c-0.1-0.4-0.3-1.2-0.5-1.9
	c-0.2-0.8-1-2-1.4-2.5c-0.4-0.5-1-0.9-1.5-1.1s-0.9-0.5-1.1-0.6s-0.8-0.2-1-0.3C12,8.1,12,8.1,12,7.8c0-0.3-0.4-0.6-0.4-0.6l0.2-0.7
	l0.3-0.2l0.2-0.4l0-0.5l0.4-0.7l0-0.5l0.3-0.5l-0.3-0.5l0.2-0.6l-0.2-0.1l-0.1-0.3l-0.3-0.7L11.7,1l-0.4-0.1l-0.1-0.2l-0.6,0.1
	L9.9,0.5L9.1,0.3L9,0.4L8.2,0.6L8,0.8L7.8,0.7L7.4,1.1L6.9,1.6L6.3,2.9L6.4,3l0.1,0.5L6.1,4.1l0.4,0.2L6.6,5l0,0.5L7,6.1l0.2,0.4
	l0.2,0.2l0.1,0.1l0.1,0.5c0,0-0.2,0-0.3,0.2c0,0.1,0,0.2,0,0.3c0,0.2,0.1,0.4-0.1,0.4S6.7,8.5,6.4,8.6C6.2,8.7,5.3,8.9,5,9
	C4.4,9.2,4.1,9.4,3.8,9.6S3.1,10.2,3,10.4c-0.2,0.2-0.4,0.5-0.6,0.9s-0.5,1.4-0.7,1.8c-0.2,0.4-0.7,2.3-0.8,2.8
	c-0.1,0.7-0.3,2.1-0.4,2.7c-0.1,0.6-0.2,2.4-0.2,3s0,2.3,0,2.5c0,0,0,0.2,0,0.3c0,0.1,0.1,0.2,0.1,0.3S0.4,24.9,0.4,25
	c0,0.6,0.1,1.5,0.2,1.6c0.1,0.2,0.4,0.2,0.4,0.2s-0.1,0.3-0.1,0.5c0,0.3,0,0.8,0.1,1.1s0.2,0.4,0.3,0.6s0.4,0.6,0.6,0.7
	c0.2,0.1,0.3,0.2,0.5,0.3c0.1,0,0.3,0.2,0.4,0.1c0.1,0,0.2-0.2,0.2-0.2s0-0.1,0-0.2c0-0.1-0.2-0.6-0.2-0.6s0-0.2,0.1-0.1
	s0.1,0.4,0.2,0.4c0.1,0.1,0.3,0.1,0.4,0.1s0.2-0.1,0.2-0.1s0,1,0,1.7s0,2,0,2.4s0,1.6,0,2.1c0,0.5,0.1,1.1,0.1,1.7s0.1,1.6,0.1,1.6
	l-0.1,0.9l-0.6,2.5L2.9,43l-0.2,1c0,0-0.2,1-0.3,1.8s-0.1,1.7-0.1,1.7s-0.1,0.6-0.1,0.7S2,48.7,2,48.8s0,0.4,0,0.4
	c0,0.1,0,0-0.1,0.2c-0.1,0.2-0.6,1.3-0.6,1.3l-0.2,0.3c0,0-0.2-0.1-0.3,0.1c-0.1,0.2-0.1,0.5-0.1,0.5s-0.2,0.3-0.2,0.4
	c0,0.1,0,0.4,0,0.6s0.1,0.4,0.1,0.5s-0.2,0.4-0.2,0.5s0,0.5,0,0.7c0.1,0.2,0.4,0.5,0.4,0.5s0,0.1,0,0.2s0.1,0.1,0.1,0.1
	c0.1,0,0.1,0,0.1,0l0.5,0.5L1.8,56c0,0,0,0.2,0,0.2c0,0.1,0.2,0.1,0.2,0.1s0.1-0.2,0.1-0.2l0.6,0.1c0,0,0,0.2,0,0.2s0.3,0,0.3,0
	s0.1-0.2,0.1-0.2l0.2,0l0.3,0c0,0,0,0.2,0.1,0.2s0.3,0.1,0.3,0c0.1,0,0.1-0.2,0.1-0.2l0.2,0c0,0,0.3,0,0.5-0.1
	c0.1,0,0.1-0.1,0.1-0.4c0-0.3-0.7-1.2-0.8-1.3S4,53.9,4,53.6c-0.1-0.3-0.2-1.2-0.1-1.5s0.4-0.5,0.4-0.8s-0.1-0.9-0.1-0.9
	s0.1-0.1,0.1-0.2c0-0.1,0-0.2,0.1-0.3c0.1-0.1,0.2-0.2,0.2-0.3s0.1-0.1,0.1-0.3c0-0.2,0.2-0.8,0.3-1.1c0.1-0.2,0.7-1.6,1-2.2
	s0.6-1.2,0.7-1.7s0.5-1.7,0.7-2s0.5-0.8,0.7-1.4c0.3-0.9,0.1-1.9,0.1-2.2c0-0.3,0.1-0.7,0.3-1.2s0.3-1.1,0.4-1.7s0.3-1.2,0.4-1.2
	c0.1,0,0.2,1.8,0.2,2.4s0.2,3.3,0.2,3.7s-0.1,1-0.3,1.5c-0.1,0.5-0.3,1.8-0.3,2.2s0.1,2.3,0.2,2.9c0.1,0.6,0.1,1.4,0.1,1.5
	s-0.1,0.9-0.2,1.1s-0.1,0.5,0.1,0.8c0.1,0.4,0.2,0.6,0.1,0.7c0,0.1-0.1,0.5-0.1,0.6S9.1,52.2,9,52.3c0,0.1-0.1,0.2-0.1,0.3
	c0,0.1,0.1,0,0.1,0.1s-0.1,0.5-0.1,0.8c0,0.3-0.1,1.2-0.1,1.4s0.2,0.3,0.4,0.3s0.3,0.1,0.3,0.1s-0.1,0.2,0,0.3s0.3,0.2,0.4,0.2
	s0.1-0.3,0.1-0.3l0.3,0.1c0,0,0,0.2,0,0.3c0.1,0.1,0.2,0.1,0.3,0.1c0.1,0,0.2-0.2,0.2-0.2l0.5,0l2,0.1c0,0,0,0.2,0.1,0.3
	s0.3,0,0.4,0S14,56,14,56l0.3,0c0,0,0,0.2,0.1,0.3s0.3,0,0.4,0c0.1,0,0.1-0.2,0.1-0.2l0.2,0c0,0,0.1,0.2,0.1,0.2s0.2,0,0.3,0
	c0.1-0.1,0.1-0.2,0.1-0.2s0.2-0.1,0.3-0.1s0.1-0.2,0.1-0.3c0-0.2-0.1-0.4-0.2-0.5c-0.1-0.1-0.6-0.5-0.7-0.6
	c-0.1-0.1-1.1-0.5-1.2-0.6s-0.3-0.4-0.5-0.5c-0.1-0.1-0.3-0.4-0.4-0.6c-0.1-0.2-0.6-0.7-0.6-0.7s0,0-0.1,0s-0.2-0.5-0.2-0.6
	s-0.2,0-0.2-0.1c0,0,0,0,0.1-0.2c0.1-0.2,0.1-0.8,0.1-1c0-0.2-0.1-0.5-0.1-0.8c0-0.3,0.3-1,0.4-1.4c0.1-0.5,0.5-2.2,0.6-3
	s0.2-2.8,0.3-3.2s0.2-0.7,0.3-0.8s0.2-0.7,0.3-1.1s-0.1-1.6,0-2s0.6-2,0.8-2.8c0.2-1.2,0.3-2.3,0.4-2.9c0-0.6,0-0.9,0-1.3
	s-0.1-1.5,0.1-1.4c0.1,0.1,0.5-0.1,0.5-0.2s0.1-0.3,0.1-0.3s0.1,0,0.1,0.1s-0.2,0.6-0.2,0.6s0,0.1,0,0.2s0.1,0.2,0.2,0.2
	s0.3-0.1,0.4-0.1c0.1,0,0.3-0.2,0.5-0.3c0.1-0.1,0.5-0.5,0.6-0.7c0.1-0.1,0.4-0.6,0.4-0.8s0-0.8,0-0.9c0-0.1-0.1-0.5-0.1-0.5
	s0.2,0,0.3-0.1c0.1-0.1,0.1-0.5,0.1-0.7c0-0.3,0-0.6,0-0.9c0-0.1-0.1-0.2-0.1-0.2c0-0.2,0-0.3,0-0.3s0-1,0.1-1.6
	C18.1,22.4,18.2,22,18.2,21.1z M4.3,22.6c0,0-0.1,0.7-0.1,0.9s-0.1,0.7,0,0.8s0.1,0.2,0.1,0.2l-0.2,0.3l-0.3,1.4l-0.3,2l-0.1-0.3
	c0,0-0.1-0.4-0.1-0.6c0-0.2-0.2-0.5-0.3-0.5S3,26.5,3,26.5s0.2,0,0.3-0.4c0-0.2,0.1-0.5,0.1-0.9c0-0.1,0-0.3,0-0.4
	c0-0.1-0.1-0.1,0-0.2c0-0.1,0.1-0.2,0.1-0.2c0-0.1,0-0.2,0-0.3c0-0.3,0.1-0.7,0.2-1.1c0.1-0.6,0.2-1,0.3-1.4
	c0.1-0.7,0.4-1.7,0.4-1.7l0.2-0.7l-0.1,1.6C4.4,20.8,4.4,22.3,4.3,22.6z M15.3,27.3c-0.1,0.2-0.2,0.7-0.2,0.7s-0.1-1.1-0.1-1.8
	s-0.3-1.5-0.3-1.5l-0.1-0.2c0,0,0.1-0.1,0.2-0.3s-0.1-0.7-0.1-0.7s0-0.3-0.1-0.9c0-0.8-0.1-2.6-0.1-2.6s0.2,1,0.2,1.5
	c0.1,0.4,0.3,1.5,0.4,2.2c0,0.3,0.1,0.6,0.2,1.1c0,0.1,0.1,0.2,0.1,0.2c0,0.1,0,0.1,0,0.2c0.1,0.5,0.1,0.9,0.1,1.1
	c0,0.3,0.1,0.4,0.1,0.4S15.4,26.9,15.3,27.3z"/>
<path id="coach-pants" d="M10.8,25c0.5,0,2.2-0.2,2.2-0.2s0.7-0.1,0.9-0.1c0.2,0,0.2,0,0.3,0.3s0.2,0.7,0.3,1.3
	c0.1,0.6,0.2,2.1,0.2,3.3s-0.1,2.5-0.1,3.3c0,0.6-0.2,1.8-0.4,2.5s-0.6,2.2-0.7,2.5c0,0.3,0.1,1.4-0.1,2.5c-0.1,0.4-0.3,0.7-0.3,0.9
	c-0.1,0.2-0.2,0.5-0.2,0.7c0,0.3-0.1,1.4-0.1,1.9c0,0.5-0.2,1.4-0.3,2.1c-0.1,0.7-0.5,2.4-0.5,2.4c-0.1,0.5-0.1,0.5-0.3,1
	c-0.1,0.1,0,0.5,0,0.6c0,0.2,0.1,0.6-0.1,0.7s-1.3,0-1.4-0.1c-0.1,0-0.2,0-0.3-0.1s-0.1-0.2-0.1-0.3c0-0.2,0-0.5,0.1-0.6
	c0.1-0.2,0.1-0.6,0.1-1.1c0-0.2-0.1-1.2-0.1-1.7c-0.1-0.5-0.1-1.5-0.1-2.4c0-0.9,0.1-1.5,0.2-2c0.1-0.5,0.3-1.1,0.3-1.6
	c0-0.4-0.1-3.3-0.1-3.3s-0.1-3-0.1-3.6s0-1.7,0-2.3c0-0.6,0.1-2,0-2c-0.1,0-0.2,0.2-0.2,0.3c0,0.1-0.1,0.5-0.1,0.6
	c0,0.2-0.7,3.1-0.8,3.4c-0.1,0.3-0.5,1.9-0.7,2.6c-0.2,0.9-0.4,2-0.4,2.2c0,0.4-0.1,1-0.1,1.2s0,0.4-0.1,0.8
	c-0.1,0.4-0.6,1.2-0.7,1.6s-0.4,1.3-0.6,1.8c-0.2,0.5-1,2.3-1,2.3s-0.4,1-0.6,1.3c-0.1,0.2-0.3,0.9-0.4,1.2c0,0.2-0.1,0.2-0.2,0.3
	s-0.4,0-0.7,0c-0.3,0-0.5-0.1-0.6-0.2s-0.2-0.1-0.3-0.2s0-0.5,0-0.6c0-0.1,0.1-0.5,0.1-0.8c0-0.6,0.1-1.2,0.1-1.3
	c0-0.4,0.2-1,0.2-1.2s0.3-1,0.3-1.3c0-0.2,0.7-2.7,0.8-3.2c0.1-0.5,0.2-1.2,0.2-1.3c0-0.3-0.1-1.3-0.1-1.3S4.1,36.4,4,35.9
	s0-2.3,0-2.3s-0.1-1.7-0.1-2.2s0-1.9,0.1-2.4s0.2-1.4,0.2-1.8s0.2-1.3,0.2-1.3l0.2-0.8c0,0,0.1-0.3,0.2-0.4s0.4,0,0.4,0
	s0.6,0.1,0.9,0.1C7.1,24.9,8.2,25,8.7,25S10.2,25,10.8,25z"/>
<polygon class="st0" points="7.1,26.4 6.8,27.2 6,28.7 5.7,29.2 5.6,29.3 5.5,29.3 5.4,29.4 5.4,29.1 5.6,28.8 6.2,27.7 6.2,27.6 
	6.2,27.5 6.1,27.5 5.3,28.6 5.2,28.6 4.7,29.2 4.5,29 4.6,28.6 5.4,27.7 6,26.5 6.2,26 6.4,25.8 6.5,25.8 "/>
<path class="st0" d="M6.6,40.5c0,0.3-0.2,0.3-0.3,0.3c-0.1,0-0.2-0.1-0.2-0.2s0.1-0.3,0.2-0.4c0.1-0.1,0.2-0.3,0.3-0.2
	C6.6,40,6.6,40.2,6.6,40.5z"/>
<path class="st0" d="M12.8,40.6c-0.1,0.1-0.3,0.3-0.5,0.3c-0.2-0.1-0.3-0.3-0.2-0.4s0.5-0.5,0.7-0.5C12.9,40,12.9,40.5,12.8,40.6z"
	/>
<path id="sock-r" class="st1" d="M3.9,49.8c0,0.1,0,0.2-0.1,0.3s-0.5,0.1-0.6,0.1c-0.1,0-0.2,0-0.2,0.1s-0.5,0.9-0.6,0.9
	c-0.1,0-0.3,0-0.4,0s-0.2-0.1-0.2-0.1c0,0,0.2-0.5,0.2-0.5l0.3-0.9c0,0,0-0.1,0.1-0.1s0.6,0.1,0.8,0.2S3.8,49.7,3.9,49.8
	C3.8,49.7,3.9,49.7,3.9,49.8z"/>
<polygon id="sock-l" class="st1" points="11.5,51.3 11.2,51.3 10.9,51.4 10.6,51.8 10.4,52.6 10.2,53 10,52.9 9.9,52.7 9.9,51.8 
	10,51.4 10,51.2 10.9,51.1 11.5,51.2 "/>
<polygon class="st1" points="1.4,53.9 1.4,53.6 1.4,53 1.5,52.8 1.6,53.9 "/>
<polygon class="st1" points="11.4,54.8 12.2,54.9 12.5,55.2 12.1,55.2 12,55.2 11.5,55.2 11.4,54.9 11.4,54.8 "/>
<path id="skin-hand-r" class="st2" d="M1.3,26.8c0,0,0,0,0,0.1s-0.1,0.2-0.1,0.4s0,0.3,0,0.5c0,0.2,0,0.3,0.1,0.5
	c0,0.2,0,0.2,0.2,0.4C1.6,29,1.9,29.5,2,29.6c0.1,0.1,0.2,0.1,0.3,0.2s0.2,0.1,0.2,0.1s0.1,0,0.1-0.1s-0.3-0.5-0.3-0.6s0-0.2,0-0.3
	s0-0.2,0-0.3c0-0.1,0.2-0.3,0.3-0.3s0.2,0.2,0.3,0.3s0.1,0.5,0.1,0.6s0.1,0,0.2,0c0.1,0,0.1-0.4,0.1-0.5s-0.2-0.7-0.2-1
	s-0.2-0.5-0.3-0.7s-0.3-0.3-0.3-0.3L1.3,26.8z"/>
<polygon class="st0" points="9.1,8.8 9.3,8.8 9.5,8.8 9,8.7 9,8.8 "/>
<path id="skin-face" class="st2" d="M11.5,6.4c0,0-0.3,1-0.4,1.2c-0.1,0.2-0.1,0.3-0.3,0.5c-0.1,0.2-0.4,0.5-0.5,0.6
	S10.3,8.8,10,8.8c-0.2,0.1-0.5,0.1-0.8,0S8.7,8.5,8.4,8.2C8.1,7.9,7.9,7.4,7.9,7.4l-0.3-1l0.1-0.1L7.6,6.1l-0.2,0
	c0,0-0.2-0.2-0.3-0.3C6.9,5.5,6.9,5.3,6.9,5.3l0-0.1L7,5c0,0,0,0.3,0,0.4s0.2,0.2,0.2,0.2l0.1,0l0-0.2l0.1-0.9l0.4-0.9l0.6-0.3
	l0.4-0.1L9,3.1l0.3,0.1l0.1-0.2L10.4,3l0.2,0.1l0.7,0.5L11.4,4l0.2,0.3l0,0.3l0.2,0.2L12,4.6l0-0.1c0,0,0-0.1,0.1,0
	c0.1,0.1,0,0.1,0,0.1S12,5.3,11.9,5.6C11.8,5.8,11.5,6.4,11.5,6.4z"/>
<polygon class="st0" points="9.7,6.7 9.7,6.6 9.8,6.5 10,6.6 9.7,6.7 "/>
<polygon class="st0" points="9.1,6.7 9.1,6.6 9.2,6.5 9.4,6.6 9.3,6.8 "/>
<path class="st0" d="M11,4.7l-0.2,0.1c0,0,0.1,0.2,0,0.3c-0.1,0.1-0.2,0.2-0.4,0.1c-0.1,0-0.2-0.2-0.2-0.2l-0.1,0L10,5.9l0-1
	l0.2-0.2l0.1-0.1l0.7-0.1l0.2,0.1l-0.1,0.1L11,4.7L11,4.7z"/>
<path class="st0" d="M8.4,4.8c0,0-0.1-0.1-0.2-0.1c-0.1,0-0.4,0.2-0.4,0.2l0.1-0.1c0,0,0.3-0.2,0.4-0.2c0.1,0,0.5,0.1,0.5,0.1
	l0.4,0.2L9.1,4.9c0,0-0.2,0.3-0.4,0.3c-0.2,0-0.3,0-0.4-0.1C8.3,5,8.4,4.8,8.4,4.8z"/>
<polygon class="st0" points="9.8,7.4 9.7,7.6 9.8,7.6 10,7.7 10.1,7.8 9.9,7.8 9.5,7.8 9.4,7.6 9.2,7.5 8.9,7.3 8.8,7.2 8.8,7.2 
	9,7.2 9.6,7.3 10.2,7.2 10.3,7.3 10.1,7.4 "/>
<path id="coach-jacket-b-r" class="st1" d="M9.4,23.7c0,0.2,0,0.4,0,0.5c0,0.2,0,0.2-0.2,0.2c-0.8,0-1.7-0.1-2.4-0.1
	c-1-0.1-1.4-0.1-1.7-0.2S4.9,24.1,4.7,24s0-0.4,0-0.6c0,0,0-0.1,0-0.1c0,0,0.1-0.1,0.5,0c0.2,0,0.9,0.1,1.7,0.2
	c0.7,0.1,1.4,0.1,2,0.2C9.4,23.6,9.4,23.7,9.4,23.7z"/>
<path id="coach-jacket-arm-r" class="st1" d="M3,25c0,0.3,0,0.4,0,0.5c0,0.3,0,0.5-0.1,0.6c-0.2,0.1-0.5,0.1-1,0.2
	c-0.5,0.1-0.8,0.1-0.9,0.1c-0.1,0-0.1,0-0.2-0.5c0-0.2,0-0.7,0-0.8c0,0,0-0.1,0.1-0.1s2.1-0.1,2.1-0.1S3,24.9,3,25z"/>
<path id="coach-jacket-r" d="M0.8,24.4c0-0.9-0.1-1.7-0.1-2.5c0-1,0.2-3.3,0.3-4.7c0.1-0.9,0.4-1.9,0.8-3.2c0.3-1,0.5-1.6,0.9-2.5
	s0.8-1.4,1.5-1.8c0.7-0.5,1.3-0.6,1.7-0.7s0.8-0.2,1-0.3c0,0,0.3,0.4,0.8,0.8c0.4,0.3,0.6,0.4,1.2,0.6c0.4,0.1,0.6,0.2,0.6,0.2
	c0,1.7-0.1,10-0.1,12.7c0,0,0.1,0.1-0.1,0.1c-0.1,0-3.8-0.4-4.5-0.4c-0.1,0-0.1-0.1-0.1-0.1c0-0.5,0.1-2.3,0.1-3.1
	c0-1.1,0.1-1.7,0.1-1.9s0-0.6,0-0.6s-0.1,0.2-0.3,0.8c-0.2,0.4-0.8,3-0.9,3.5s-0.3,1.4-0.4,2.4c-0.1,0.4-0.1,0.5-0.1,0.7
	c0,0,0,0.2-0.1,0.2c-0.5,0-2.1,0.1-2.2,0.1C0.8,24.6,0.8,24.5,0.8,24.4z"/>
<path id="coach-jacket-collar-r" class="st1" d="M7.3,8.6c0.2-0.1,0.3-0.2,0.3-0.3c0.1-0.3-0.1-0.6,0.1-0.7c0.1,0,0.2,0.5,0.4,0.7
	c0.2,0.2,0.8,0.7,1.2,0.8c0.2,0.1,0.3,0.1,0.3,0.5c0,0,0,0.1,0,0.3c0,0-0.4-0.1-0.8-0.3C8.4,9.6,8,9.3,7.8,9.1
	C7.5,8.8,7.3,8.6,7.3,8.6z"/>
<path id="coach-jacket-b-l" class="st1" d="M14.3,23.6c0,0.2,0.2,0.4,0,0.4s-0.6,0.1-1.5,0.3s-1.9,0.1-2.8,0.1
	c-0.2,0-0.2-0.1-0.2-0.2c0-0.1,0-0.3,0-0.5c0,0-0.1-0.1,0.3-0.1c0.2,0,0.9-0.1,1.9-0.2c0.8-0.1,1.8-0.2,2.1-0.3c0.1,0,0.1,0,0.2,0.1
	C14.3,23.4,14.3,23.6,14.3,23.6z"/>
<path id="coach-jacket-arm-l" class="st1" d="M17.8,25.3c0,0.2,0,0.3,0,0.4c0,0.8-0.1,0.8-0.1,0.8c0,0,0,0.1-0.2,0s-0.4,0-0.7-0.1
	c-0.3,0-0.7-0.1-0.8-0.2c-0.1-0.1-0.1-0.5-0.2-1.1c0,0,0-0.1,0.1-0.1c0.1,0,1.4,0.1,1.8,0.1C17.7,25.2,17.8,25.3,17.8,25.3z"/>
<path id="coach-jacket-l" d="M17.7,24.7c0-1.1,0.1-2.6,0.1-3.6c0-1.3-0.2-4-0.4-5s-0.3-1.7-0.8-3.2s-0.8-1.7-1.4-2.5
	c-0.6-0.8-1.9-1.3-2.3-1.5c-0.2-0.1-0.4-0.1-0.5-0.2c0,0-0.2,0.3-0.6,0.7s-1,0.6-1.2,0.7c-0.4,0.2-0.7,0.2-0.7,0.2
	c0,1.9,0,10,0,12.7c0,0.1,0,0.2,0.1,0.2c0.4-0.1,1.6-0.1,2.2-0.2c0.6-0.1,1.6-0.2,1.9-0.3c0.2,0,0.1-0.1,0.1-0.2c0-0.2,0-0.2,0-0.4
	c0-0.4,0-3.8,0-4s0-1.4,0-1.4s0.1,0.7,0.1,0.8c0,0.1,0.1,0.5,0.2,1.2s0.3,1.4,0.5,2.5c0.2,1,0.5,2.7,0.5,3.2c0,0.1,0.1,0.1,0.1,0.1
	l1.9,0.1C17.6,24.8,17.7,24.7,17.7,24.7z"/>
<path id="coach-jacket-collar-l" class="st1" d="M9.9,10c0-0.2,0-0.5,0-0.5c0-0.3,0-0.3,0.2-0.3c0.1,0,0.5-0.1,0.6-0.2
	c0.4-0.3,0.4-0.3,0.5-0.6c0.1-0.2,0.3-0.7,0.4-0.8c0.1-0.1,0.2,0.3,0.2,0.6c0,0.3,0.1,0.2,0.2,0.3c0,0,0.1,0.1,0.1,0.1
	c0,0-0.2,0.5-0.5,0.7c-0.4,0.3-0.6,0.4-0.8,0.5C10.3,9.9,9.9,10,9.9,10z"/>
<path id="skin-hand-l" class="st2" d="M17.4,26.9c0,0,0,0.1,0,0.2c0,0.1,0,0.2,0,0.4c0,0.2,0,0.3,0,0.5s0,0.3-0.1,0.5s0,0.2-0.2,0.4
	c-0.2,0.2-0.5,0.6-0.6,0.8c-0.1,0.1-0.2,0.1-0.3,0.2S16.2,30,16.1,30S16,30,16,29.9s0.3-0.5,0.3-0.6c0-0.1,0-0.2,0-0.3s0-0.2,0-0.3
	c0-0.1-0.2-0.3-0.3-0.3c-0.1,0-0.2,0.2-0.3,0.3s-0.1,0.5-0.1,0.6s-0.1,0-0.1,0c-0.1,0-0.1-0.4-0.1-0.5s0.1-0.7,0.2-1
	s0.2-0.5,0.3-0.7c0.1-0.2,0.3-0.3,0.3-0.3L17.4,26.9z"/>
<path id="hair" class="st0" d="M12.6,3.8l-0.2-0.5l0.2-0.5l-0.2-0.1l-0.1-0.3l-0.3-0.6l-0.4-0.5l-0.4-0.1L11,1l-0.5,0.1L9.9,0.9
	L9.2,0.6L9.1,0.8L8.4,0.8L7.9,1.2L7.8,1.1L7.6,1.4L7.2,1.8l-0.6,1l0.1,0.1l0.1,0.5L6.5,3.9l0.3,0.2l0,0.5l0.1-0.2l0.2,0.1
	c0,0,0.2-0.5,0.2-0.7c0.1-0.2,0.3-0.5,0.4-0.6c0.1-0.1,0.7-0.3,0.7-0.3l0.4-0.1l0.2,0l0.2,0.1l0.1-0.2l1.1,0c0,0,0.1,0.1,0.2,0.1
	c0.1,0.1,0.8,0.6,0.9,0.7c0,0.1,0.1,0.3,0.1,0.4c0.1,0.1,0.1,0.2,0.1,0.3c0,0,0.2-0.1,0.2-0.1s0.4,0.2,0.3,0.4c0,0.1,0,0.1,0,0.2
	l0.1-0.2l0-0.5L12.6,3.8z"/>
</svg>
