<?xml version="1.0" encoding="utf-8"?>
<!-- Generator: Adobe Illustrator 16.0.4, SVG Export Plug-In . SVG Version: 6.00 Build 0)  -->
<!DOCTYPE svg PUBLIC "-//W3C//DTD SVG 1.1//EN" "http://www.w3.org/Graphics/SVG/1.1/DTD/svg11.dtd" [
	<!ENTITY ns_flows "http://ns.adobe.com/Flows/1.0/">
	<!ENTITY ns_extend "http://ns.adobe.com/Extensibility/1.0/">
	<!ENTITY ns_ai "http://ns.adobe.com/AdobeIllustrator/10.0/">
	<!ENTITY ns_graphs "http://ns.adobe.com/Graphs/1.0/">
]>
<svg version="1.1" id="Ebene_1" xmlns:x="&ns_extend;" xmlns:i="&ns_ai;" xmlns:graph="&ns_graphs;"
	 xmlns="http://www.w3.org/2000/svg" xmlns:xlink="http://www.w3.org/1999/xlink" xmlns:a="http://ns.adobe.com/AdobeSVGViewerExtensions/3.0/"
	 x="0px" y="0px" width="18.5px" height="56.8px" viewBox="0 0 18.5 56.8" style="enable-background:new 0 0 18.5 56.8;"
	 xml:space="preserve">
<style type="text/css">
<![CDATA[
	.st0{fill:#1A1A18;}
	.st1{fill:#FBCDAA;}
	.st2{fill:#FFFFFF;}
	.st3{fill:#003D80;}
]]>
</style>
<path class="st0" d="M18.2,21.11c0.02-0.9-0.17-3.17-0.21-3.56c-0.04-0.39-0.09-0.9-0.16-1.33c-0.03-0.22-0.13-0.76-0.3-1.52
	c-0.09-0.39-0.29-1.16-0.5-1.92c-0.23-0.83-0.95-1.99-1.35-2.48c-0.42-0.5-1.01-0.87-1.46-1.15c-0.45-0.28-0.89-0.49-1.13-0.58
	c-0.24-0.09-0.78-0.17-0.98-0.34c-0.12-0.1-0.13-0.14-0.11-0.45c0.02-0.31-0.43-0.58-0.43-0.58l0.22-0.7l0.32-0.22l0.16-0.4
	l0.03-0.46l0.36-0.73l-0.02-0.47l0.29-0.48l-0.28-0.53l0.18-0.6l-0.2-0.12l-0.07-0.28l-0.31-0.66l-0.51-0.57l-0.4-0.11L11.2,0.71
	l-0.59,0.06L9.95,0.52l-0.87-0.2L8.99,0.45L8.2,0.55L7.96,0.82L7.81,0.69L7.42,1.15l-0.5,0.5L6.27,2.89l0.1,0.12l0.09,0.52
	L6.13,4.06L6.51,4.3l0.08,0.71l0.02,0.53l0.38,0.53l0.16,0.42l0.22,0.24l0.11,0.1L7.6,7.34c0,0-0.23-0.02-0.27,0.19
	C7.3,7.63,7.32,7.78,7.32,7.87c0,0.19,0.05,0.36-0.09,0.42s-0.58,0.19-0.8,0.28C6.21,8.66,5.33,8.85,4.96,9
	C4.45,9.2,4.11,9.42,3.82,9.62c-0.29,0.2-0.69,0.59-0.85,0.77c-0.16,0.18-0.4,0.54-0.57,0.9s-0.53,1.44-0.69,1.81
	c-0.16,0.37-0.72,2.34-0.83,2.84c-0.14,0.67-0.31,2.09-0.39,2.72C0.41,19.29,0.3,21.1,0.3,21.67c0,0.57,0.04,2.26,0.04,2.54
	c0,0.05,0,0.17,0.01,0.31c0,0.07,0.07,0.19,0.07,0.27s-0.05,0.12-0.05,0.2c0.03,0.65,0.1,1.48,0.18,1.64
	c0.12,0.25,0.37,0.22,0.37,0.22s-0.08,0.26-0.09,0.54c-0.01,0.28-0.03,0.83,0.05,1.06c0.08,0.23,0.17,0.4,0.31,0.64
	c0.14,0.24,0.44,0.58,0.59,0.71c0.16,0.13,0.31,0.24,0.5,0.31c0.12,0.05,0.32,0.16,0.4,0.12C2.76,30.19,2.9,30.07,2.93,30
	c0.03-0.07,0.01-0.12-0.01-0.22c-0.02-0.1-0.23-0.56-0.25-0.63S2.69,29,2.75,29.02s0.1,0.37,0.18,0.44c0.08,0.07,0.35,0.11,0.41,0.1
	s0.19-0.12,0.19-0.12s0,1.03,0,1.67s0.05,1.99,0.04,2.38c-0.01,0.39-0.02,1.61,0.01,2.07c0.03,0.53,0.08,1.14,0.12,1.72
	c0.04,0.58,0.08,1.6,0.08,1.6l-0.12,0.88l-0.58,2.48L2.91,43l-0.22,1c0,0-0.24,0.97-0.34,1.79c-0.1,0.82-0.11,1.71-0.11,1.71
	s-0.09,0.58-0.13,0.69s-0.15,0.5-0.14,0.66c0.01,0.16,0.01,0.36,0,0.44c-0.01,0.08-0.02,0.04-0.08,0.22
	c-0.06,0.18-0.57,1.31-0.57,1.31l-0.16,0.34c0,0-0.17-0.08-0.26,0.11c-0.08,0.19-0.12,0.53-0.12,0.53s-0.2,0.26-0.21,0.36
	c-0.01,0.1-0.01,0.44,0,0.62c0.01,0.18,0.12,0.37,0.11,0.53c-0.01,0.16-0.19,0.41-0.23,0.54s-0.04,0.54,0.01,0.73
	c0.05,0.18,0.37,0.52,0.37,0.52s0,0.09,0,0.16c0,0.07,0.06,0.1,0.12,0.12c0.06,0.01,0.14-0.03,0.14-0.03l0.5,0.53L1.81,56
	c0,0,0.01,0.16,0.04,0.22c0.04,0.06,0.18,0.09,0.24,0.09s0.13-0.15,0.13-0.15l0.58,0.09c0,0-0.03,0.16,0.03,0.19
	s0.27,0.03,0.33,0.01c0.06-0.02,0.09-0.2,0.09-0.2l0.17-0.03l0.35,0.02c0,0,0.03,0.18,0.1,0.21c0.07,0.03,0.28,0.07,0.35,0.02
	c0.07-0.05,0.08-0.21,0.08-0.21l0.21,0.01c0,0,0.35-0.01,0.49-0.06c0.14-0.05,0.12-0.09,0.08-0.43c-0.04-0.32-0.69-1.21-0.76-1.32
	c-0.07-0.11-0.27-0.53-0.35-0.88c-0.08-0.35-0.17-1.23-0.14-1.51c0.03-0.28,0.36-0.55,0.41-0.76c0.05-0.21-0.12-0.91-0.12-0.91
	s0.08-0.12,0.11-0.22c0.03-0.11,0.01-0.22,0.11-0.33c0.09-0.11,0.16-0.21,0.22-0.33s0.08-0.11,0.11-0.33
	c0.03-0.2,0.19-0.82,0.3-1.11c0.09-0.24,0.67-1.59,0.97-2.22c0.3-0.63,0.56-1.22,0.73-1.67s0.53-1.69,0.67-2.03
	c0.14-0.34,0.47-0.83,0.65-1.42c0.27-0.89,0.11-1.89,0.14-2.17c0.04-0.28,0.12-0.69,0.28-1.25c0.16-0.56,0.3-1.09,0.45-1.67
	s0.29-1.19,0.42-1.2c0.13-0.01,0.18,1.75,0.2,2.43s0.2,3.28,0.18,3.68s-0.14,0.97-0.26,1.5c-0.12,0.52-0.26,1.78-0.27,2.25
	c-0.01,0.47,0.15,2.33,0.2,2.93c0.05,0.6,0.09,1.39,0.09,1.53s-0.13,0.86-0.16,1.08c-0.03,0.22-0.06,0.5,0.05,0.81
	c0.12,0.37,0.16,0.59,0.14,0.72c-0.02,0.13-0.08,0.55-0.15,0.63c-0.07,0.08-0.23,0.19-0.27,0.28C9,52.37,8.92,52.52,8.94,52.61
	c0.02,0.09,0.11,0.02,0.11,0.11s-0.1,0.48-0.12,0.76c-0.03,0.27-0.14,1.23-0.09,1.38c0.05,0.15,0.23,0.27,0.35,0.35
	s0.32,0.14,0.32,0.14s-0.07,0.2,0,0.27c0.07,0.07,0.34,0.17,0.41,0.17s0.14-0.3,0.14-0.3l0.28,0.13c0,0-0.04,0.23,0.02,0.3
	c0.05,0.07,0.23,0.09,0.31,0.09c0.09,0,0.23-0.22,0.23-0.22l0.5,0.04l1.99,0.13c0,0,0,0.21,0.06,0.26c0.06,0.05,0.34,0.02,0.41,0.02
	c0.07,0,0.11-0.26,0.11-0.26l0.32,0.04c0,0,0.02,0.23,0.06,0.27c0.04,0.04,0.26,0.02,0.35,0.01c0.09-0.01,0.11-0.24,0.11-0.24
	l0.25,0.02c0,0,0.08,0.22,0.12,0.24c0.04,0.02,0.19,0.02,0.26-0.04c0.07-0.06,0.12-0.22,0.12-0.22s0.24-0.07,0.33-0.12
	c0.09-0.05,0.13-0.18,0.12-0.34c-0.01-0.16-0.09-0.43-0.17-0.54c-0.09-0.12-0.59-0.49-0.7-0.59c-0.1-0.09-1.07-0.48-1.24-0.62
	s-0.33-0.37-0.46-0.49c-0.13-0.12-0.27-0.4-0.42-0.57c-0.15-0.16-0.55-0.68-0.55-0.68s-0.04,0.01-0.11,0
	c-0.07-0.01-0.18-0.47-0.21-0.58c-0.03-0.11-0.18-0.05-0.19-0.09c-0.01-0.04,0.02-0.04,0.09-0.19c0.07-0.15,0.07-0.77,0.06-0.98
	c-0.01-0.21-0.09-0.51-0.05-0.76c0.04-0.3,0.3-0.98,0.4-1.4c0.12-0.51,0.46-2.18,0.6-3.04c0.14-0.86,0.25-2.81,0.31-3.22
	c0.06-0.41,0.25-0.65,0.34-0.84c0.09-0.19,0.22-0.73,0.26-1.12c0.04-0.39-0.05-1.62,0.02-1.95s0.61-2,0.77-2.77
	c0.25-1.22,0.33-2.29,0.35-2.89c0.02-0.61,0.01-0.89,0.02-1.26c0.01-0.37-0.05-1.47,0.05-1.35c0.1,0.13,0.46-0.08,0.54-0.19
	c0.08-0.11,0.08-0.33,0.14-0.31c0.06,0.02,0.07,0.01,0.07,0.07c0,0.06-0.25,0.56-0.25,0.63c0,0.07-0.04,0.14-0.01,0.22
	c0.03,0.08,0.14,0.21,0.25,0.23s0.28-0.11,0.42-0.15c0.14-0.04,0.34-0.16,0.47-0.28c0.14-0.12,0.46-0.55,0.59-0.71
	c0.13-0.15,0.38-0.62,0.38-0.78c0-0.16,0-0.81,0.01-0.94c0.01-0.13-0.12-0.51-0.12-0.51s0.19,0.04,0.29-0.14
	c0.08-0.14,0.08-0.46,0.1-0.73c0.02-0.28,0.02-0.6,0.01-0.86c0-0.09-0.07-0.18-0.07-0.25c-0.01-0.17,0.05-0.27,0.05-0.27
	s0.04-1.02,0.06-1.65C18.13,22.42,18.18,22.01,18.2,21.11z M4.34,22.61c0,0-0.06,0.68-0.07,0.9c-0.01,0.22-0.06,0.66,0.02,0.77
	c0.08,0.11,0.12,0.17,0.12,0.17l-0.17,0.31l-0.33,1.41l-0.28,1.95l-0.06-0.26c0,0-0.07-0.37-0.12-0.56
	c-0.05-0.19-0.22-0.45-0.27-0.54c-0.05-0.09-0.22-0.27-0.22-0.27s0.16-0.02,0.26-0.37c0.05-0.19,0.1-0.5,0.14-0.86
	C3.37,25.13,3.39,25,3.4,24.87c0.01-0.06-0.06-0.1-0.05-0.16c0.01-0.07,0.09-0.16,0.1-0.24c0.01-0.1,0.03-0.2,0.04-0.3
	c0.04-0.3,0.11-0.72,0.18-1.14c0.09-0.56,0.23-1.04,0.27-1.42c0.08-0.67,0.36-1.68,0.36-1.68l0.16-0.66l-0.05,1.56
	C4.41,20.82,4.39,22.28,4.34,22.61z M15.28,27.26c-0.06,0.2-0.21,0.74-0.21,0.74s-0.08-1.11-0.12-1.75s-0.27-1.47-0.27-1.47
	l-0.06-0.21c0,0,0.12-0.09,0.16-0.34c0.04-0.25-0.11-0.74-0.11-0.74s-0.04-0.27-0.06-0.89c-0.03-0.79-0.07-2.59-0.07-2.59
	s0.16,1.03,0.23,1.47c0.07,0.44,0.28,1.53,0.37,2.17c0.04,0.26,0.09,0.65,0.16,1.06c0.01,0.06,0.08,0.16,0.09,0.22
	c0.01,0.07-0.04,0.12-0.03,0.19c0.07,0.46,0.13,0.88,0.15,1.08c0.04,0.33,0.11,0.39,0.11,0.39S15.38,26.9,15.28,27.26z"/>
<path id="coach-pants" class="st3" d="M10.77,25.01c0.53-0.02,2.19-0.16,2.19-0.16s0.7-0.11,0.92-0.14
	c0.22-0.03,0.22,0.03,0.31,0.29s0.23,0.74,0.31,1.3c0.08,0.56,0.19,2.12,0.19,3.28c0,1.16-0.08,2.5-0.08,3.33
	c0,0.59-0.21,1.8-0.36,2.47s-0.63,2.25-0.67,2.5c-0.04,0.26,0.08,1.36-0.12,2.47c-0.07,0.39-0.27,0.67-0.33,0.87
	c-0.06,0.2-0.18,0.47-0.2,0.73c-0.02,0.26-0.09,1.4-0.13,1.89c-0.04,0.49-0.19,1.37-0.33,2.08c-0.14,0.71-0.54,2.4-0.54,2.4
	c-0.11,0.49-0.08,0.49-0.26,0.99c-0.05,0.14-0.03,0.45-0.02,0.62c0.01,0.17,0.07,0.64-0.05,0.68c-0.12,0.04-1.29-0.05-1.41-0.06
	c-0.12-0.01-0.23-0.02-0.33-0.11c-0.1-0.09-0.12-0.21-0.1-0.32c0.03-0.19,0.02-0.48,0.08-0.59c0.09-0.19,0.09-0.64,0.06-1.09
	c-0.01-0.16-0.08-1.21-0.14-1.73c-0.06-0.53-0.15-1.54-0.13-2.42c0.02-0.89,0.15-1.5,0.22-1.97c0.07-0.47,0.27-1.14,0.29-1.58
	c0.02-0.44-0.12-3.33-0.12-3.33s-0.12-2.96-0.13-3.6c-0.01-0.64-0.04-1.68-0.04-2.3c0-0.62,0.12-2,0-1.97
	c-0.12,0.04-0.19,0.2-0.22,0.33c-0.02,0.13-0.07,0.46-0.1,0.65c-0.03,0.19-0.69,3.11-0.76,3.39c-0.07,0.28-0.48,1.92-0.66,2.62
	C7.9,37.4,7.75,38.5,7.74,38.7c-0.02,0.38-0.07,1.02-0.06,1.22c0.01,0.2,0.02,0.38-0.11,0.77c-0.12,0.39-0.58,1.2-0.7,1.58
	s-0.41,1.28-0.61,1.81c-0.2,0.53-0.97,2.28-0.97,2.28s-0.45,1.05-0.55,1.3c-0.1,0.25-0.34,0.86-0.42,1.23
	c-0.04,0.17-0.06,0.24-0.17,0.29S3.7,49.2,3.44,49.19c-0.26-0.01-0.46-0.12-0.63-0.18c-0.17-0.06-0.25-0.08-0.31-0.2
	s0.01-0.47,0.05-0.59c0.04-0.14,0.07-0.46,0.09-0.8c0.04-0.56,0.06-1.19,0.08-1.34c0.03-0.39,0.15-0.96,0.19-1.16
	c0.04-0.2,0.27-1.04,0.3-1.28C3.24,43.4,3.88,40.97,4,40.42c0.12-0.55,0.24-1.17,0.25-1.28c0.02-0.31-0.08-1.3-0.08-1.3
	S4.05,36.4,4,35.94S3.98,33.6,3.98,33.6s-0.07-1.74-0.06-2.22c0.01-0.48,0.02-1.93,0.06-2.44c0.04-0.51,0.16-1.44,0.23-1.8
	s0.23-1.31,0.23-1.31l0.23-0.75c0,0,0.12-0.32,0.19-0.38c0.07-0.06,0.45-0.01,0.45-0.01s0.57,0.09,0.93,0.12
	c0.91,0.08,1.92,0.14,2.44,0.17S10.24,25.03,10.77,25.01z"/>
<polygon class="st0" points="7.07,26.38 6.84,27.23 5.99,28.71 5.67,29.17 5.57,29.26 5.48,29.26 5.38,29.35 5.39,29.06 5.6,28.79 
	6.24,27.68 6.24,27.58 6.15,27.48 6.06,27.47 5.32,28.58 5.23,28.58 4.71,29.22 4.54,29.01 4.56,28.63 5.37,27.72 6.01,26.52 
	6.24,25.96 6.44,25.77 6.53,25.78 "/>
<path class="st0" d="M6.57,40.45c-0.04,0.27-0.24,0.34-0.35,0.35c-0.11,0-0.18-0.09-0.22-0.22c-0.04-0.13,0.14-0.33,0.22-0.44
	c0.08-0.11,0.21-0.26,0.29-0.22C6.59,39.95,6.61,40.17,6.57,40.45z"/>
<path class="st0" d="M12.78,40.62c-0.08,0.12-0.32,0.35-0.51,0.29c-0.19-0.06-0.31-0.27-0.22-0.44c0.09-0.17,0.51-0.55,0.69-0.51
	C12.92,40,12.86,40.5,12.78,40.62z"/>
<path id="sock-r" class="st2" d="M3.91,49.79c0,0.1-0.03,0.18-0.09,0.26s-0.5,0.08-0.6,0.12c-0.1,0.04-0.15,0.01-0.22,0.12
	c-0.07,0.11-0.5,0.89-0.62,0.93c-0.12,0.04-0.31,0-0.44,0s-0.17-0.08-0.22-0.11c-0.05-0.03,0.22-0.55,0.22-0.55l0.33-0.87
	c0,0,0.03-0.11,0.11-0.11s0.57,0.14,0.84,0.17c0.27,0.03,0.6-0.01,0.6-0.01S3.91,49.7,3.91,49.79z"/>
<polygon id="sock-l" class="st2" points="11.5,51.28 11.17,51.28 10.95,51.39 10.62,51.83 10.41,52.59 10.19,53.03 9.97,52.92 
	9.86,52.71 9.86,51.83 9.97,51.39 9.97,51.17 10.95,51.06 11.5,51.17 "/>
<polygon class="st2" points="1.41,53.94 1.41,53.61 1.41,52.96 1.52,52.85 1.63,53.94 "/>
<polygon class="st2" points="11.42,54.76 12.19,54.86 12.47,55.25 12.13,55.22 11.96,55.23 11.51,55.17 11.4,54.92 11.36,54.81 "/>
<path id="skin-hand-r" class="st1" d="M1.27,26.81c0,0,0.05,0.01,0,0.13s-0.09,0.19-0.1,0.41c-0.01,0.22-0.04,0.32-0.03,0.54
	c0.01,0.22,0.04,0.34,0.08,0.5c0.04,0.16,0.05,0.18,0.21,0.42c0.17,0.24,0.51,0.65,0.59,0.76c0.08,0.12,0.22,0.15,0.3,0.19
	c0.08,0.04,0.17,0.11,0.24,0.12s0.08-0.04,0.1-0.09c0.02-0.05-0.29-0.51-0.33-0.6c-0.04-0.09,0-0.21,0.01-0.33
	c0.01-0.12,0.03-0.22,0.02-0.29c-0.01-0.07,0.25-0.27,0.33-0.29c0.08-0.02,0.21,0.19,0.27,0.28c0.06,0.09,0.07,0.53,0.11,0.59
	s0.09,0.05,0.15,0.03c0.06-0.02,0.13-0.36,0.13-0.49s-0.15-0.74-0.23-1.02c-0.08-0.28-0.21-0.55-0.32-0.74
	c-0.11-0.19-0.34-0.32-0.34-0.32L1.27,26.81z"/>
<polygon class="st0" points="9.15,8.84 9.32,8.84 9.48,8.84 8.99,8.68 8.99,8.84 "/>
<path id="skin-face" class="st1" d="M11.5,6.4c0,0-0.26,1.02-0.35,1.22c-0.08,0.2-0.14,0.27-0.29,0.5c-0.15,0.23-0.37,0.5-0.47,0.58
	c-0.1,0.08-0.11,0.09-0.34,0.15c-0.23,0.07-0.54,0.07-0.76,0c-0.22-0.07-0.6-0.31-0.88-0.63c-0.27-0.31-0.46-0.8-0.46-0.8l-0.3-0.98
	l0.13-0.11L7.55,6.07L7.3,6.06c0,0-0.24-0.17-0.3-0.34c-0.06-0.17-0.14-0.4-0.14-0.4L6.87,5.2L7,4.96c0,0-0.04,0.26-0.02,0.36
	s0.23,0.25,0.23,0.25l0.11-0.02l0.01-0.17l0.13-0.93L7.91,3.6l0.55-0.32l0.37-0.1l0.2-0.06l0.33,0.13l0.15-0.17l0.89-0.06l0.23,0.13
	l0.69,0.54l0.11,0.34l0.18,0.31L11.6,4.6l0.23,0.25l0.13-0.23l0.01-0.12c0,0,0.02-0.05,0.12,0.01c0.09,0.05-0.01,0.12-0.01,0.12
	S12,5.34,11.91,5.58C11.82,5.83,11.5,6.4,11.5,6.4z"/>
<polygon class="st0" points="9.67,6.72 9.67,6.61 9.77,6.53 9.98,6.61 9.73,6.72 "/>
<polygon class="st0" points="9.15,6.7 9.08,6.61 9.21,6.5 9.44,6.63 9.26,6.78 "/>
<path class="st0" d="M10.96,4.72L10.8,4.81c0,0,0.12,0.2,0.03,0.34c-0.07,0.1-0.2,0.17-0.36,0.14c-0.11-0.02-0.23-0.18-0.23-0.18
	L10.13,5.1L9.99,5.88L9.98,4.92l0.16-0.19l0.06-0.11l0.71-0.07l0.22,0.11l-0.05,0.11L10.96,4.72L10.96,4.72z"/>
<path class="st0" d="M8.41,4.75c0,0-0.15-0.13-0.2-0.14c-0.05,0-0.38,0.22-0.38,0.22l0.05-0.11c0,0,0.27-0.21,0.38-0.23
	c0.12-0.02,0.49,0.1,0.49,0.1L9.2,4.81L9.15,4.93c0,0-0.25,0.28-0.36,0.31c-0.16,0.03-0.29,0-0.4-0.13
	C8.27,4.97,8.41,4.75,8.41,4.75z"/>
<polygon class="st0" points="9.79,7.45 9.73,7.6 9.83,7.6 10.03,7.69 10.06,7.77 9.91,7.85 9.46,7.83 9.35,7.58 9.22,7.48 
	8.92,7.32 8.78,7.24 8.79,7.18 8.97,7.18 9.56,7.26 10.25,7.2 10.33,7.27 10.05,7.39 "/>
<path id="coach-jacket-b-r" class="st2" d="M9.44,23.71c0,0.22,0,0.4,0,0.53c0,0.16,0,0.24-0.22,0.24c-0.75,0-1.65-0.07-2.37-0.11
	c-1.04-0.07-1.37-0.15-1.68-0.19c-0.31-0.04-0.27-0.06-0.46-0.15c-0.19-0.09-0.04-0.35-0.02-0.62c0-0.03,0-0.08,0.01-0.14
	c0,0,0.06-0.07,0.5-0.02c0.18,0.02,0.91,0.1,1.72,0.19c0.7,0.08,1.42,0.14,2.01,0.18C9.38,23.65,9.44,23.71,9.44,23.71z"/>
<path id="coach-jacket-arm-r" class="st2" d="M3.01,25.03c-0.03,0.27-0.04,0.41-0.04,0.52c0,0.28-0.03,0.55-0.14,0.61
	c-0.16,0.1-0.53,0.15-0.99,0.22c-0.5,0.08-0.82,0.12-0.92,0.11c-0.07-0.01-0.1-0.05-0.15-0.53c-0.02-0.2-0.02-0.7-0.03-0.82
	c0-0.04,0-0.14,0.1-0.13c0.1,0.01,2.06-0.13,2.06-0.13S3.02,24.91,3.01,25.03z"/>
<path id="coach-jacket-r" class="st2" d="M0.75,24.44c-0.04-0.92-0.05-1.71-0.05-2.52c0-0.98,0.15-3.29,0.34-4.67
	c0.12-0.9,0.41-1.88,0.75-3.16c0.26-0.96,0.54-1.61,0.94-2.53s0.84-1.36,1.5-1.81c0.71-0.48,1.31-0.59,1.71-0.68
	c0.4-0.09,0.8-0.23,1.03-0.29c0,0,0.31,0.43,0.77,0.77c0.36,0.27,0.59,0.42,1.17,0.62c0.37,0.13,0.64,0.23,0.64,0.23
	c-0.01,1.72-0.09,10.02-0.11,12.72c0,0.05,0.05,0.12-0.1,0.12c-0.14,0-3.79-0.36-4.51-0.43c-0.13-0.01-0.12-0.09-0.12-0.14
	c0.02-0.52,0.06-2.28,0.08-3.15c0.02-1.06,0.08-1.66,0.08-1.88c0-0.22,0-0.62,0-0.62s-0.12,0.23-0.31,0.75
	c-0.16,0.43-0.82,3.04-0.92,3.48s-0.27,1.44-0.41,2.4c-0.06,0.39-0.09,0.55-0.11,0.69c0,0.02-0.03,0.17-0.11,0.17
	c-0.48,0.02-2.06,0.08-2.15,0.08C0.75,24.59,0.76,24.48,0.75,24.44z"/>
<path id="coach-jacket-collar-r" class="st2" d="M7.34,8.65c0.23-0.06,0.27-0.17,0.29-0.27C7.7,8.09,7.56,7.74,7.7,7.72
	c0.13-0.03,0.2,0.49,0.38,0.72C8.26,8.67,8.89,9.1,9.27,9.2c0.25,0.06,0.29,0.06,0.28,0.5c0,0.03,0,0.14,0,0.31
	c0,0-0.36-0.09-0.77-0.27C8.41,9.57,8,9.3,7.84,9.15C7.51,8.84,7.34,8.65,7.34,8.65z"/>
<path id="coach-jacket-b-l" class="st2" d="M14.27,23.63c0.04,0.23,0.19,0.42-0.02,0.44s-0.62,0.15-1.48,0.27
	c-0.86,0.12-1.88,0.15-2.79,0.15c-0.16,0-0.16-0.07-0.16-0.19c0-0.14,0-0.28,0-0.53c0,0-0.06-0.09,0.31-0.12
	c0.17-0.01,0.95-0.06,1.86-0.16c0.83-0.09,1.82-0.23,2.09-0.27c0.12-0.02,0.14-0.01,0.16,0.07C14.27,23.38,14.26,23.58,14.27,23.63z
	"/>
<path id="coach-jacket-arm-l" class="st2" d="M17.76,25.31c0,0.17,0,0.32,0,0.43c0,0.77-0.12,0.81-0.12,0.84c0,0,0,0.09-0.23,0.03
	s-0.42-0.05-0.73-0.09c-0.29-0.04-0.69-0.06-0.77-0.23c-0.06-0.13-0.1-0.54-0.18-1.08c-0.01-0.04,0.01-0.13,0.11-0.12
	c0.08,0.01,1.42,0.08,1.81,0.1C17.73,25.18,17.76,25.27,17.76,25.31z"/>
<path id="coach-jacket-l" class="st2" d="M17.72,24.7c0.03-1.08,0.12-2.61,0.12-3.59c0-1.29-0.19-4-0.42-5.04
	c-0.23-1.04-0.31-1.67-0.79-3.21s-0.77-1.71-1.38-2.46c-0.6-0.75-1.92-1.3-2.34-1.49c-0.2-0.09-0.41-0.12-0.54-0.17
	c0,0-0.25,0.34-0.59,0.72c-0.34,0.38-1,0.63-1.2,0.73c-0.44,0.22-0.72,0.19-0.72,0.19c0.01,1.86-0.03,9.97-0.04,12.68
	c0,0.06,0.03,0.17,0.15,0.16c0.45-0.06,1.57-0.15,2.17-0.2c0.61-0.06,1.58-0.22,1.95-0.27c0.16-0.02,0.15-0.13,0.15-0.17
	c0-0.17,0-0.16-0.01-0.35c-0.02-0.38-0.03-3.83-0.03-4.02s0.04-1.42,0.04-1.42s0.12,0.73,0.15,0.83c0.02,0.1,0.1,0.54,0.23,1.25
	s0.31,1.4,0.5,2.5c0.17,1.01,0.46,2.73,0.54,3.21c0.01,0.07,0.11,0.13,0.11,0.13l1.88,0.1C17.64,24.82,17.72,24.74,17.72,24.7z"/>
<path id="coach-jacket-collar-l" class="st2" d="M9.85,10.04c0-0.23,0.01-0.46,0.01-0.48c-0.04-0.3,0.03-0.31,0.16-0.34
	c0.15-0.04,0.46-0.12,0.56-0.2c0.36-0.28,0.39-0.34,0.53-0.59c0.12-0.21,0.27-0.69,0.35-0.77c0.13-0.11,0.19,0.33,0.19,0.56
	c0,0.26,0.08,0.23,0.17,0.31c0.03,0.03,0.07,0.05,0.11,0.07c0,0-0.23,0.48-0.52,0.71c-0.4,0.31-0.55,0.36-0.8,0.47
	C10.3,9.91,9.85,10.04,9.85,10.04z"/>
<path id="skin-hand-l" class="st1" d="M17.39,26.89c0,0-0.02,0.07,0.03,0.19c0.05,0.12,0.04,0.17,0.05,0.38
	c0.01,0.21,0.04,0.32,0.03,0.54s-0.04,0.34-0.08,0.5s-0.05,0.18-0.21,0.42c-0.17,0.24-0.51,0.65-0.58,0.76
	c-0.08,0.12-0.22,0.15-0.3,0.19c-0.08,0.04-0.17,0.11-0.24,0.12s-0.08-0.04-0.1-0.09c-0.02-0.05,0.29-0.51,0.33-0.6
	c0.04-0.1,0-0.21-0.01-0.33c-0.01-0.12-0.03-0.22-0.02-0.29c0.01-0.07-0.25-0.27-0.33-0.29c-0.08-0.01-0.21,0.19-0.27,0.28
	c-0.06,0.09-0.07,0.53-0.11,0.59c-0.04,0.06-0.09,0.05-0.15,0.03c-0.06-0.02-0.13-0.36-0.13-0.49c0-0.13,0.15-0.74,0.23-1.02
	c0.08-0.28,0.21-0.55,0.32-0.74c0.12-0.19,0.29-0.27,0.29-0.27L17.39,26.89z"/>
<path id="hair" class="st0" d="M12.55,3.76l-0.24-0.48l0.16-0.51l-0.18-0.1l-0.08-0.34l-0.29-0.61L11.5,1.27l-0.36-0.09l-0.11-0.14
	L10.57,1.1L9.92,0.86l-0.7-0.22L9.14,0.75L8.41,0.84L7.95,1.18L7.82,1.07L7.56,1.43L7.19,1.78L6.57,2.83l0.09,0.11l0.08,0.53
	L6.5,3.89l0.29,0.23l0.01,0.5l0.11-0.15L7.1,4.54c0,0,0.16-0.54,0.24-0.69c0.12-0.23,0.3-0.52,0.43-0.64
	C7.91,3.1,8.43,2.93,8.43,2.93L8.8,2.84L9,2.79l0.25,0.14L9.4,2.76l1.05-0.05c0,0,0.14,0.06,0.23,0.13
	c0.09,0.07,0.83,0.58,0.86,0.65c0.02,0.07,0.05,0.28,0.12,0.39c0.08,0.11,0.12,0.18,0.15,0.26c0,0.01,0.18-0.07,0.18-0.07
	s0.35,0.22,0.29,0.45c0.02,0.06-0.01,0.13,0.01,0.18l0.08-0.19l-0.03-0.46L12.55,3.76z"/>
</svg>
