<?xml version="1.0" encoding="utf-8"?>
<!-- Generator: Adobe Illustrator 27.8.0, SVG Export Plug-In . SVG Version: 6.00 Build 0)  -->
<svg version="1.1" id="Ebene_1" xmlns="http://www.w3.org/2000/svg" xmlns:xlink="http://www.w3.org/1999/xlink" x="0px" y="0px"
	 viewBox="0 0 25.3 50.6" style="enable-background:new 0 0 25.3 50.6;" xml:space="preserve">
<style type="text/css">
	.st0{fill-rule:evenodd;clip-rule:evenodd;fill:#1A1A18;}
	.st1{fill-rule:evenodd;clip-rule:evenodd;fill:#F9CAA9;}
	.st2{fill-rule:evenodd;clip-rule:evenodd;fill:#FF1717;}
	.st3{fill-rule:evenodd;clip-rule:evenodd;fill:#FFFFFF;}
	.st4{fill:#F7DD7F;}
	.st5{fill:#FFFFFF;}
	.st6{fill-rule:evenodd;clip-rule:evenodd;fill:#F7DD7F;}
</style>
<path class="st0" d="M24.6,22.1c-0.1-0.4-0.7-1.3-0.7-1.3s-0.7-1.6-0.8-1.9c-0.2-0.6-1.1-2.7-1.4-3.1c-0.1-0.3-0.6-0.9-0.6-0.9
	l-0.4-0.7c0,0,0-0.1,0.1-0.1c0.1-0.1-0.1-0.2-0.2-0.3c-0.1-0.1-0.5-0.5-0.5-0.5l-1.4-1.6c0,0-1.2-1.2-1.4-1.4
	c-0.5-0.5-1.3-0.8-1.5-0.9c-0.2-0.1-1-0.2-1.5-0.3c-0.5,0-1.2-0.1-1.2-0.1l-0.2,0c0.1-0.2,0.2-0.4,0.3-0.5c0.2-0.4,0.3-0.7,0.3-0.7
	s0.1,0,0.2-0.1c0.2-0.2,0.2-0.3,0.3-0.5c0.1-0.2,0.1-0.6,0.1-0.7c0-0.1-0.1-0.3-0.1-0.3s0.2-0.4,0.3-0.8c0.1-0.4,0.1-0.7,0.1-1.1
	c0-0.4-0.3-1.2-0.6-1.6c-0.2-0.2-0.3-0.3-0.6-0.5c-0.1-0.1-0.3-0.2-0.5-0.2c0,0,0-0.2-0.1-0.4c-0.2-0.3-0.3-0.5-0.6-0.7
	c-0.3-0.2-1-0.3-1.3,0c-0.4,0.3-0.4,0.3-0.6,0.7C9.8,1.9,9.9,2.1,9.9,2.1S9.2,2.5,8.9,2.9C8.6,3.3,8.2,4,8.5,5.6l0.2,0.7
	c0,0-0.1,0-0.1,0.2c-0.1,0.2,0,0.5,0,0.7c0,0.2,0.3,0.5,0.5,0.7C9.3,8,9.4,7.9,9.4,7.9s0.2,0.4,0.4,0.7c0.1,0.2,0.2,0.4,0.3,0.5
	l-0.1,0c0,0-0.8,0.1-1.3,0.3C8.3,9.6,7.6,10,7.1,10.3c-0.3,0.2-1.2,1.1-1.6,1.5s-1.4,1.3-1.4,1.3s-0.4,0.4-0.5,0.5
	c-0.1,0.1-0.3,0.3-0.3,0.3s0,0,0,0.1c0,0.1,0.2,0.2,0.2,0.2l0,0l-0.2,0.3L3,15.2l-0.5,1.2l-0.6,1.6l-0.3,0.7c0,0-0.2,0.3-0.4,0.6
	c-0.2,0.2-0.4,1-0.4,1.1c0,0.1-0.1,0.5-0.1,0.6c0,0.2,0.5,0.8,0.6,0.9s0.3,0.3,0.5,0.3c0.1,0,0.2,0,0.3-0.1c0.1-0.1,0.3-0.2,0.4-0.4
	s0.3-0.4,0.3-0.4s0.1,0,0.2,0c0.1-0.1,0.6-0.7,0.6-0.8c0-0.1,0-0.2,0-0.4c0-0.2-0.3-0.9-0.3-1c0-0.1,0.8-1.4,0.8-1.4l0.5-0.8
	l0.4-0.4l0.4-0.4l0.5,0.6c0,0,0.1,0.1,0.2,0.2c0.1,0.1,0.2,0,0.2,0l0.7-0.6L7.5,16c0,0,0.1-0.1,0.1,0s0.2,1.2,0.3,1.9
	s0.2,1.6,0.1,2.8c0,0.8,0,1.5,0,2c0,0.2,0,0.4,0,0.4S8,23.3,7.8,23.5S7.7,24,7.7,24.1c0,0.2,0.1,0.4,0.1,0.4s-0.1,0.4-0.2,0.7
	c-0.1,0.3-0.1,0.8-0.2,1.1c0,0.3-0.1,1-0.1,1.6s-0.1,2.1-0.1,2.8c0,0.9,0.1,3.5,0.1,4.2s0,1.7,0.1,1.8c0.1,0.1,0.2,0.1,0.3,0.2
	c0.1,0,0.6,0,0.6,0l0.3,1.5l0.1,0.5l0.1,0.7L8.6,40l0,0.9l0.1,0.2L9,41.4l0.1,0.5l0.4,1.7l0.4,1.6l-0.2,0.1l0,0.2L9.5,46l-0.4,1.2
	l-0.7,1.4c0,0-0.2,0.5-0.2,0.7c0,0.2,0.1,0.3,0.3,0.4C8.6,49.8,9,49.8,9,49.8l0.4-0.1l0.2-0.1c0,0,0.1,0.1,0.1,0.1
	c0.1,0,0.2-0.1,0.2-0.1s0-0.1,0-0.1l0.2-0.2c0,0,0.1,0,0.2,0c0.1,0,0.2-0.1,0.2-0.1c0-0.1,0-0.2,0-0.2l0.7-0.6l0.3-0.5
	c0,0,0.1,0,0.1,0c0.1,0,0.1-0.1,0.1-0.1c0-0.1,0-0.2,0-0.2l0.4-0.6l0-0.4l0-0.5l0-0.1l-0.1-0.8L12,45l-0.1-0.3l0-1l0-2.4l-0.1-0.8
	l-0.1-0.2l0.1-0.5l-0.2-0.3l0.1-0.9l0.3-1l0.3-0.8l0.1,0l0.1,0l-0.1,1c0,0,0,0.4,0,0.7c0,0.3,0.2,0.5,0.2,0.6c0,0.1,0.1,0.3,0.3,0.5
	s0.6,0.2,0.8,0.2c0.2,0,0.3-0.1,0.4-0.2c0.1-0.1,0.2-0.6,0.2-0.6l0-0.4l0.3-1.1l0.1-0.5l0.1-0.2l0.1,0c0,0,0.4,0.2,0.6,0.3
	c0.2,0.1,0.4,0,0.7,0s0.4-0.1,0.6-0.2s0.3-0.4,0.4-0.5c0.1-0.1,0.1-0.2,0.2-0.4c0.1-0.2,0.2-0.7,0.3-1c0.1-0.6,0.1-0.9,0.1-1.2
	s0-0.5,0-0.5s0.3,0,0.4,0c0.1,0,0.1-0.1,0.1-0.2c0-0.1,0-0.9-0.1-1.1c-0.1-0.5-0.2-1.4-0.2-1.4l-0.2-1.7l-0.2-1.6L17.3,25
	c0,0-0.1-0.4-0.2-0.7c-0.1-0.2-0.1-0.2-0.1-0.3c0-0.5-0.2-0.8-0.2-0.8c-0.1-0.1-0.1-0.1,0-0.2c0,0,0.1-0.9,0.1-1.8
	c0-0.4,0.1-1,0.1-1.5c0-0.6,0.1-1.1,0.1-1.4c0.1-0.6,0.2-1.7,0.2-1.7l0.4,0.3c0,0,0.2,0.2,0.3,0.3c0.1,0.1,0.2,0,0.3-0.1
	c0.1-0.1,0.6-0.5,0.6-0.5s0.5,0.5,0.9,0.9c0.4,0.4,1,1.2,1.3,1.7c0.3,0.4,1.2,2.1,1.2,2.1S22,21.4,22,21.6c0,0.2,0.1,0.8,0.1,1
	c0,0.2,0.1,0.8,0.2,0.9c0,0.1,0.1,0.2,0.2,0.3c0.1,0.1,0.2,0.2,0.2,0.2c0.1,0.1,0.1,0.1,0.2,0.1c0.1,0,0.2-0.1,0.2-0.1
	s0.1-0.2,0.1-0.2c0-0.1,0-0.4,0-0.4l0.1,0.1c0,0,0,0.6,0,0.6c0,0.1,0,0.2,0.1,0.2s0.2,0.1,0.3,0.1c0.2,0,0.2-0.2,0.3-0.3
	c0.1-0.1,0.2-0.3,0.2-0.5s0.2-0.8,0.2-0.8S24.6,22.3,24.6,22.1z"/>
<path id="skin-arm-r" class="st1" d="M3.1,19.7l0.2,0.6l0,0.2c0,0-0.3,0.5-0.4,0.5s-0.1-0.1-0.1-0.2s0.1-0.4,0.1-0.4l-0.1-0.2
	c0,0-0.2-0.2-0.3-0.1c-0.1,0-0.4,0.1-0.5,0.2c0,0.1-0.1,0.5-0.1,0.6c0,0.1,0.1,0.2,0.2,0.2s0.3,0.2,0.3,0.2s0,0.1-0.1,0.2
	c-0.1,0-0.4,0-0.4,0l0.1,0.1c0,0,0.3,0.2,0.3,0.2c0,0-0.1,0.1-0.2,0.1s-0.1-0.1-0.3-0.2c-0.2-0.1-0.5-0.7-0.5-0.7
	c0-0.1,0.1-0.6,0.1-0.6s0.2-0.7,0.4-0.9C1.7,19.4,1.9,19,1.9,19l0.6-1.6c0,0,0.4-1.2,0.6-1.5s0.3-0.7,0.4-0.9
	c0.1-0.2,0.3-0.5,0.3-0.5s0.2,0.2,0.6,0.6S5,16,5,16l-0.5,0.6L4,16.3L4,16.5L4,16.7l0.2,0.2l-0.7,1.2l-0.6,1.2L3,19.4L3.1,19.7z"/>
<path id="skin-arm-l" class="st1" d="M24.2,22.7c0,0.1-0.2,0.8-0.2,0.9s-0.1,0.1-0.1,0.2c-0.1,0.1-0.1,0.2-0.2,0.3
	c-0.1,0-0.1,0-0.1,0c0-0.1,0.1-0.6,0-0.6s-0.1-0.2-0.1-0.3s0-0.2-0.1-0.2s-0.3-0.2-0.4-0.1c-0.1,0.1-0.1,0.3-0.1,0.3
	s0.1,0.5,0.1,0.5c0,0.1,0,0.1-0.1,0.1s-0.2-0.2-0.3-0.4c-0.1-0.1-0.2-1-0.2-1.2s0-0.4,0-0.6c0-0.2,0.2-0.5,0.2-0.5l-1.4-2.4
	l-1.6-2.1L19,16l0.7-0.8l0.6-0.7c0,0,0.7,1,1,1.5c0.3,0.6,2.1,4.6,2.1,4.6l0.2,0.3c0,0,0.4,0.6,0.4,0.7c0,0.1,0.2,0.3,0.2,0.5
	C24.2,22.4,24.2,22.6,24.2,22.7z"/>
<path id="player-shirt" class="st2" d="M18.7,15.8c0,0-0.4,0.4-0.6,0.6c-0.1,0.1-0.2,0.2-0.3,0c-0.1-0.2-0.4-0.5-0.4-0.5l-1-1.1
	l-0.2-0.2l-0.4-0.4c0,0-0.2-0.2-0.3-0.2c-0.1-0.1-0.2,0-0.2,0s-0.1,0.1,0,0.2c0,0.1,0.2,0.3,0.2,0.3s0.2,0.2,0.2,0.3
	c0.1,0.1,0.1,0.3,0.1,0.3s-0.5,0.5-0.5,0.6s-0.1,0.2,0,0.2c0.1,0,0.2,0,0.3,0c0.1,0,0.5-0.4,0.5-0.4l0.2-0.2l0.3,0.3l0.2,0.4
	c0,0,0,0.5-0.1,0.9c0,0.5-0.2,1.2-0.2,2.2c0,0.6-0.1,1.6-0.1,2.4c0,0.5,0,1.4-0.1,1.5c-0.1,0.1-0.7,0.2-0.7,0.2s-1.1,0.2-1.7,0.3
	s-1.2,0.2-1.6,0.2s-1,0-1.4,0s-0.8-0.1-1.3-0.2s-1-0.3-1-0.4s0-0.2,0-0.2s0-0.6,0-1.2s0-1.6,0-2.4c0-0.9-0.2-1.9-0.3-2.5
	c-0.1-0.6-0.3-1.4-0.3-1.4L7.9,15c0,0,0-0.3-0.1-0.3c0,0,0,0-0.1,0.1c0,0.1,0,0.4-0.1,0.5c-0.1,0.1-0.7,0.7-0.7,0.7
	s-0.6,0.5-0.7,0.6c-0.1,0.1-0.1,0.1-0.2,0c-0.1-0.1-0.6-0.7-0.6-0.7l-1-1.2c0,0-0.5-0.5-0.6-0.6c-0.1-0.1,0-0.1,0.1-0.3
	c0.1-0.1,0.5-0.6,0.5-0.6s1.1-1.1,1.7-1.6c0.3-0.3,0.8-0.8,1.3-1.1c0.4-0.3,1.1-0.6,1.2-0.6C9.5,9.7,10,9.6,10,9.6s0.4,0.8,0.8,1.8
	c0.2,0.5,0.9,1.9,0.9,1.9s0.4-1,0.8-1.9c0.4-1.1,0.7-2,0.7-2s0.4,0,0.9,0s1.1,0.1,1.3,0.2c0.5,0.1,0.9,0.3,1.4,0.6
	c0.1,0.1,0.8,0.8,1.6,1.6c0.7,0.7,1.3,1.5,1.3,1.5l0.4,0.4l0.3,0.3l-0.5,0.6l-0.5,0.5L18.7,15.8z"/>
<path id="skin-leg-l" class="st1" d="M16.2,36.7c-0.1,0-0.3,0.1-0.5,0s-1.2-0.6-1.4-0.8c-0.1-0.2-0.3-0.7-0.3-0.7c0,0-0.1,0-0.2,0
	c-0.1,0,0-0.2,0-0.2s0.1-0.1,0.2,0c0.1,0.1,0.4,0.5,0.4,0.6c0,0,0.2,0.1,0.2,0c0-0.1-0.2-1-0.3-1.2c-0.1-0.2-0.5-0.4-0.5-0.4
	l1.3-0.5c0,0,0.3-0.1,0.6-0.2c0.2-0.1,0.7-0.1,0.7-0.1l0.4,0l0.5,0c0,0,0.1,0.6,0.1,1c0,0.3,0,0.6-0.1,0.9c-0.1,0.3-0.2,0.7-0.3,0.9
	c-0.1,0.2-0.3,0.4-0.4,0.5S16.3,36.7,16.2,36.7z"/>
<polygon class="st0" points="15.7,36.1 15.6,35.8 15.7,35.3 15.8,35 16,34.9 15.8,36 "/>
<path class="st0" d="M15.5,20.8c0,0.1-0.3,0.4-0.3,0.4s-0.4,0.6-0.5,0.7c-0.2,0-0.6,0-0.8,0.1c-0.3,0.1-0.7,0.6-0.7,0.6
	s0.2-0.7,0.3-0.9c0.2-0.2,0.4-0.5,0.6-0.6c0.2-0.1,0.8,0,0.9-0.1c0.1-0.1,0.4-0.4,0.4-0.4s0.3-0.5,0.3-0.7c0.1-0.1,0.1-0.1,0.1-0.1
	s0,0.1,0,0.2C15.8,20.1,15.5,20.8,15.5,20.8S15.6,20.5,15.5,20.8z"/>
<polygon id="skin-leg-r" class="st1" points="11.8,36.7 11.5,37.7 11.3,38.5 11.2,39.3 10.8,39.5 10.4,39.7 9.2,39.5 9.1,39.1 
	9.1,38.6 8.9,37.9 8.7,36.8 9.9,36.8 10.5,36.8 "/>
<polygon id="player-sock-r" class="st3" points="11.4,45.5 11.2,45.5 10.4,44.5 10.1,44.5 9.5,42.6 9.4,41.8 9.5,41.6 9.9,41.4 
	10,41.1 9.8,40.9 9.4,41.1 9,40.8 9,40.2 9,40.1 9.1,40 9.5,40 10.5,40.1 11,39.9 11.1,39.8 11.2,39.9 10.9,40.6 10.9,40.9 
	11.3,40.9 11.5,42.2 11.5,43.7 11.6,43.8 11.4,44.5 11.5,45.1 11.6,45.3 11.6,45.4 11.4,45.5 "/>
<polygon class="st0" points="9.8,38.1 9.8,38.2 9.6,38.1 9.6,37.8 9.6,37.7 9.8,37.8 "/>
<path class="st0" d="M10,21.8c0,0-0.1-0.2-0.2-0.5c-0.1-0.3-0.2-1.3-0.2-1.6c0-0.3,0.1-1.3,0-1.6s-0.1-0.7-0.2-0.8
	c-0.1-0.1-0.1-0.8,0-0.7c0.1,0.2,0.3,0.7,0.3,0.9c0.1,0.2,0.3,1.1,0.3,1.2c0,0.1,0.1,0.2,0.1,0.3c0,0.2-0.1,1.5-0.1,1.7
	C10,21,10,21.8,10,21.8z"/>
<path id="player-shorts" class="st3" d="M17.7,30.1l-0.2-1.3l-0.2-1.7c0,0-0.2-1.6-0.4-2.1s-0.4-0.6-0.4-0.6s-0.2,0.6-0.2,0.8
	s0.2,1,0.2,1c0,0.1-0.1,0.1-0.2,0c-0.1-0.1-0.3-0.7-0.4-1s0.2-0.8,0.2-0.8l-0.4,0.1l-0.9,0.2c0,0-0.7,0.2-0.9,0.2
	c-0.2,0-0.3,0-0.4-0.1c-0.1-0.1-0.1-0.2,0.1-0.2c0.2-0.1,0.3-0.1,0.4-0.1c0.1,0,0.7-0.2,0.8-0.3c0.1,0,0.5-0.1,0.8-0.2
	c0.4-0.1,0.7-0.2,0.8-0.3c0.1-0.1,0-0.2,0-0.3c0-0.1-0.1-0.2-0.2-0.2c-0.1,0-0.2,0.1-0.5,0.1s-0.4,0.1-1,0.2
	c-0.6,0.1-1.3,0.3-1.8,0.3c-0.5,0-1.2,0-1.6,0c-0.4,0-1.4-0.1-1.7-0.2c-0.3-0.1-0.7-0.2-0.9-0.3c-0.2-0.1-0.2-0.1-0.3,0
	c-0.1,0.1-0.2,0.4-0.2,0.5c0.1,0.2,0.2,0.2,0.4,0.4s0.6,0.2,0.6,0.2s0.2,0.1,0.4,0.2c0.1,0.1,0.1,0.3,0,0.3c-0.1,0-0.3,0-0.3,0
	s-0.3,0-0.4-0.1c-0.1,0-0.3-0.1-0.3-0.1s-0.2-0.2-0.3,0c-0.1,0.1-0.1,0.2-0.1,0.2s-0.1,0.3-0.2,0.7s-0.2,1.5-0.2,2.1
	c0,0.3,0,1,0,1.8c0,0.8,0,1.6,0,2.1c0,0.8,0.1,2.5,0.1,2.5l0,2c0,0,0,0.1,0.1,0.1c0.1,0,0.3,0,0.5,0.1c0.2,0,0.4,0,0.8,0
	s1.8-0.1,1.8-0.1l0.9,0c0,0,0.3-0.1,0.5-0.2c0.2-0.1,0.3-0.2,0.3-0.2s0-1.7-0.1-2.1c0-0.5-0.1-0.9-0.1-1.1c0-0.2-0.1-0.6-0.1-0.7
	c0-0.1,0.1-0.1,0.2-0.1c0,0,0.2,0.7,0.3,1.1c0.1,0.5,0.1,0.7,0.2,0.8c0.1,0.1,0.2-0.1,0.6-0.2s1.2-0.4,1.6-0.5
	c0.4-0.1,0.7-0.2,1.1-0.2c0.1,0,0.7-0.1,0.9-0.1c0.3,0,0.5-0.1,0.5-0.1c0.1,0,0.1-0.1,0.1-0.1L17.7,30.1z M14.6,28.2
	c-0.1,0.1-0.3,0-0.5,0.1s-0.4,0.2-0.6,0.3s-0.8,0.6-0.9,0.9c-0.1,0.2-0.2,0.9-0.2,0.9h0c0,0,0-0.4-0.1-0.7c-0.1-0.3-0.4-0.7-0.5-0.8
	c-0.2-0.1-0.9-0.2-1.1-0.2s-0.3-0.5-0.2-0.5c0.1,0,1.4,0.1,1.5,0.1c0.1,0,0-0.2,0-0.4c0-0.1-0.1-0.5,0-0.5c0.1,0,0.3,0.3,0.3,0.5
	c0,0.2,0.1,1,0.1,1c0.1,0.1,0.1,0.1,0.2,0c0.1-0.1,0.2-0.5,0.3-0.6c0.1-0.1,1-0.7,1.2-0.7c0.2-0.1,0.5,0,0.6,0
	C14.6,27.6,14.6,28.1,14.6,28.2z"/>
<path id="hair-p" class="st4" d="M12.4,1.7c0,0-0.3-0.7-1.1-0.7c-0.8,0-1.1,0.7-1.1,0.7s0.3-0.4,1-0.4C12,1.4,12.4,1.7,12.4,1.7z"/>
<path class="st5" d="M12.4,2c0,0-0.4-0.3-1.1-0.3c-0.6,0-1,0.4-1,0.4s0.5-0.2,1-0.2C11.8,1.9,12.4,2,12.4,2z"/>
<path id="hair" class="st6" d="M9.5,5.4c0,0,0.1,0.1,0.1,0.1c0.1-0.4,0.1-0.9,0.1-1.4C9.7,4,9.9,4.3,10,4.7c0.1,0.5,0,0.7,0,0.7
	s1.2-1.8,1.2-1.7c-0.1,0.7-0.3,0.7-0.9,1.7c0,0.1,1.3-1.4,1.4-1.7c0.1,0,0.2,0.2-1.2,1.7c-0.1,0.1,1.7-1.2,1.8-1.3
	c0.1-0.1-0.2,0.3-1.1,1.1c-0.1,0.1,1.6-0.3,1.7-1.5c0-0.1,0.2,0,0.2,0.8c0,0.5,0.2,1.5,0.2,1.4c0-0.1,0.1-0.2,0.3,0.2
	C13.8,6,14,5.4,14,4.7c0.1-0.7-0.2-1.5-0.6-1.9c-0.3-0.3-0.8-0.6-1.7-0.6c-0.8-0.1-1.2,0-1.7,0.2C9.5,2.7,9.1,3,9,3.2
	C8.8,3.5,8.6,3.8,8.7,4.5c0,0.5,0.2,1.3,0.3,1.5c0.1,0.2,0.2,0.4,0.2,0.3C9,6,9.2,5.7,9.2,5.6c0-0.2,0.2,0.4,0.2,0.2
	C9.4,5.4,9.5,5.4,9.5,5.4z"/>
<path id="skin-face" class="st1" d="M13.5,6.2c-0.1,0-0.1,0.3-0.1,0.3S13.2,6,13.1,5.8c0-0.2-0.1-0.4-0.1-0.7c0-0.5-0.1-0.5-0.1-0.5
	s-0.1,0.2-0.7,0.5c-0.1,0.1-0.7,0.3-0.9,0.3c-0.2,0-0.3-0.1-0.4,0l-0.3,0.2c-0.1,0.1-0.3,0-0.3,0c0-0.1-0.1,0-0.2-0.1
	c0,0-0.3,0.2-0.3,0.1c0-0.1,0-0.1,0-0.1L9.8,5.9L9.7,5.8c0,0,0,0.1-0.1,0.3c0,0.2-0.1,0.4-0.1,0.4L9.4,6.3l0,0.9
	c0,0-0.2-0.1-0.3-0.3C9.1,6.7,9,6.6,9,6.6S8.9,6.7,8.9,6.8c0,0.3,0.3,0.7,0.4,0.8c0.1,0.1,0.2,0,0.2,0l0.1,0.1c0,0,0.3,0.6,0.6,1
	c0.3,0.4,0.7,0.9,1.3,0.9c0.6,0,0.9-0.5,1.2-0.9c0.3-0.5,0.5-1.1,0.5-1.1s0.3-0.1,0.4-0.4c0.1-0.3,0.2-0.5,0.1-0.7
	C13.7,6.4,13.6,6.2,13.5,6.2z M11.9,6.1C12,6,12.1,6.1,12.6,6l-0.8,0.3C11.8,6.3,11.6,6.1,11.9,6.1z M11.6,7.5l0.1,0.1
	c0,0-0.1,0.1-0.2,0C11.5,7.6,11.6,7.5,11.6,7.5z M11.5,8.2L11.5,8.2c0,0.1,0,0.2-0.1,0.1C11.3,8.2,11.4,8.2,11.5,8.2z M11.1,7.5
	l0.2,0.1l-0.1,0l-0.1,0l0,0L11.1,7.5z M10.9,6.1c0.3,0,0.1,0.2,0.1,0.2L10.2,6C10.6,6.2,10.7,6.1,10.9,6.1z M10.4,6.6L10.4,6.6
	l-0.3,0L9.7,6.4l0.5,0c0.1,0,0.4-0.1,0.6,0c0.3,0,0.3,0.2,0.3,0.2s0,0.2-0.1,0.2c0,0,0.1-0.1-0.1-0.2c0,0-0.1,0.1-0.2,0.1
	c-0.2,0-0.2,0-0.2,0C10.3,6.6,10.4,6.6,10.4,6.6z M11.8,8.6c-0.1,0-0.3,0-0.3,0s-0.1,0.1,0,0.1c0.1,0,0.2,0,0.2,0l0,0.1l-0.1,0.1
	c0,0-0.3,0-0.3-0.1c0-0.1,0-0.2,0-0.2s-0.1,0-0.1-0.1c-0.1,0-0.4,0-0.4,0l-0.2-0.1c0,0,0.1,0,0.1,0c0.1,0,0.2,0,0.4,0
	c0.1,0,0.2-0.2,0.4,0c0.1,0,0.1,0,0.2,0c0.1,0,0.3,0,0.3,0s0.4,0,0.3,0C12.1,8.5,11.9,8.6,11.8,8.6z M12.7,6.6l-0.2,0l0,0
	c0,0,0.1,0.1-0.1,0.1c0,0,0,0-0.2,0c-0.1,0-0.2-0.1-0.2-0.1c-0.1,0.1,0,0.3-0.1,0.2c-0.1,0-0.1-0.2-0.1-0.2s0-0.2,0.3-0.2
	c0.2,0,0.5,0,0.6,0l0.5,0L12.7,6.6z"/>
<path id="skin-neck" class="st1" d="M11.6,12.3l-1.2-2.7c0,0,0.1,0.2,0.5,0.4c0.1,0.1,0.4,0.1,0.6,0.1c0.3,0,0.4-0.1,0.6-0.2
	c0.3-0.2,0.4-0.4,0.4-0.4L11.6,12.3z"/>
</svg>
