<?xml version="1.0" encoding="utf-8"?>
<!-- Generator: Adobe Illustrator 27.8.0, SVG Export Plug-In . SVG Version: 6.00 Build 0)  -->
<svg version="1.1" id="Ebene_1" xmlns="http://www.w3.org/2000/svg" xmlns:xlink="http://www.w3.org/1999/xlink" x="0px" y="0px"
	 viewBox="0 0 27.2 51.1" style="enable-background:new 0 0 27.2 51.1;" xml:space="preserve">
<style type="text/css">
	.st0{fill-rule:evenodd;clip-rule:evenodd;fill:#1A1A18;}
	.st1{fill-rule:evenodd;clip-rule:evenodd;fill:#FBCDAA;}
	.st2{fill-rule:evenodd;clip-rule:evenodd;fill:#FFFFFF;}
	.st3{fill-rule:evenodd;clip-rule:evenodd;fill:#CFF7AD;}
	.st4{fill-rule:evenodd;clip-rule:evenodd;fill:#72F70B;}
</style>
<path class="st0" d="M26.8,49.6c0-0.2-0.3-0.7-0.5-1c-0.1-0.2-0.8-1.2-0.8-1.2l-0.8-1.1L24.3,46l-0.1-0.4l-0.3-0.2c0,0,0-0.2,0-0.3
	c0-0.1-0.2-0.2-0.2-0.2l0-0.1L23,40.8l-0.3-2.3L22.6,38l0-0.3l0-0.7l-0.3-0.5l-0.2-0.3L22,35.5l-0.1-1.2l-0.1-0.8
	c0,0,0.1-0.1,0.2-0.1c0,0,0.1-0.1,0.1-0.1c-0.1-0.2-0.2-0.8-0.2-0.8L21.4,31L20.8,29l-0.5-1.7c0,0-0.7-2.1-0.9-2.6s-0.3-0.9-0.5-1.1
	s-0.2-0.2-0.2-0.2s0.1-0.2,0.1-0.4c0-0.2-0.2-0.4-0.2-0.4s0-0.2,0-0.2s0-0.6,0-0.9s0-2.2,0-2.6s0-0.9,0-0.9s1.1,1,1.4,1.3
	c0.3,0.3,1,0.7,1.2,0.7c0.2,0,0.8,0.1,1.3-0.2c0.4-0.2,0.7-0.4,0.8-1s-0.3-1.8-0.4-2.3c-0.1-0.6-0.4-1.2-0.4-1.2s0.1-0.1,0.3-0.1
	c0.1,0,0.2-0.1,0.1-0.2s-0.3-0.8-0.4-1.1c-0.2-0.6-0.6-1.3-0.7-1.6c-0.1-0.3-0.5-1.1-0.6-1.3c-0.1-0.2-0.3-0.5-0.6-0.8
	S20,9.6,19.7,9.4c-0.3-0.2-1.1-0.6-1.3-0.7c-0.2-0.1-0.7-0.2-1-0.3s-1.1-0.2-1.1-0.2L16.1,8l0-0.3l0-0.2l0.1-0.6l0.1-0.1l0.2-0.2
	l0.1-0.4L17,5.5V5l0-0.7L17.4,4l-0.3-0.5L17.2,3l0.1-0.1l-0.7-1.2L16,1.2l-0.4-0.4l-0.1,0.1l-0.2-0.3l-0.8-0.1l-0.1-0.1l-0.9,0.2
	l-0.6,0.3l-0.6,0l-0.1,0.2l-0.4,0.1l-0.5,0.6L11,2.4l-0.1,0.3l-0.2,0.1l0.2,0.6L10.7,4L11,4.4l0,0.5l0.4,0.7l0,0.5l0.2,0.4l0.3,0.2
	l0.2,0.8l0,0.4l0,0.2l-0.1,0c0,0-0.9,0.2-1.3,0.3c-0.3,0.1-0.8,0.2-1.2,0.4S8.5,9.3,8,9.7S7.2,10.5,7,10.8s-0.7,1.1-0.8,1.5
	s-0.7,1.7-0.8,2c-0.1,0.3-0.3,0.8-0.3,0.8s0,0,0,0.1c0.1,0.1,0.3,0.2,0.3,0.2s-0.2,0.9-0.3,1.2S4.9,17.8,4.8,18s-0.1,1,0,1.3
	s0.4,0.5,0.6,0.6c0.4,0.2,0.8,0.2,1.2,0.1c0.5,0,1.1-0.5,1.4-0.8c0.3-0.3,1.2-1.1,1.2-1.1l0.1,0.2c0,0,0.1,0.6,0.1,1s0,0.9,0,1.2
	s0,0.8,0,0.8l0,0.3L9.2,22c0,0-0.1,0.3-0.1,0.4c0,0.1,0,0.2-0.1,0.4s-0.3,0.5-0.3,0.5s-0.3,0.5-0.5,1s-0.6,1.7-0.6,1.7l-0.5,1.4
	l-0.9,2.6l-0.7,2c0,0-0.4,1.1-0.4,1.2s0,0.2,0.1,0.2c0.1,0,0.4,0.2,0.4,0.2l-0.1,0.8l-0.2,1.2L5.3,36l-0.2,0.3c0,0-0.2,0.3-0.3,0.5
	c0,0.1-0.1,0.2-0.1,0.3c0,0.2,0,0.5,0,0.5l0.1,0.3l-0.1,0.5l-0.4,2.3l-0.7,3.9l0,0.1c0,0-0.2,0.1-0.2,0.2s0,0.3,0,0.3l-0.3,0.2
	l-0.1,0.4l-0.5,0.6l-0.8,0.9c0,0-0.6,0.9-0.8,1.1s-0.5,0.9-0.5,0.9s-0.1,0.3,0,0.5s0.1,0.3,0.2,0.4S1,50.5,1,50.5l0.2,0.1
	c0,0,0.1,0,0.3,0s0.8-0.1,0.8-0.1l0.2-0.1c0,0,0.1,0.1,0.2,0.1s0.2-0.1,0.3-0.2s0-0.2,0-0.2L3.1,50l0.2-0.2c0,0,0.1,0.1,0.2,0.1
	s0.2-0.1,0.3-0.2s0-0.2,0-0.2L5,48.6l0.4-0.3l0.1-0.1c0,0,0.2,0.1,0.2,0.1c0.1,0,0.1-0.1,0.2-0.2s0-0.2,0-0.2l0.2-0.2l0.2-0.2
	c0,0,0.1,0.1,0.1,0c0,0,0.1,0,0.1-0.2s-0.1-0.2-0.1-0.2l0.2-0.4l0-0.8l-0.1-0.2l0.1-0.1l0-0.2L6.5,45c0,0,0-0.1,0.2-0.8
	s0.3-1,0.5-1.5s0.5-1.3,0.5-1.3l0.6-1.5l0.2-0.8l0.1-0.5l0.2-0.4c0,0,0.1-0.3,0.2-0.6s0-0.7,0-0.7l0.2-0.8c0,0,0.2-0.4,0.5-0.8
	s0.6-0.8,0.6-0.8l0.5,0.1l1.3,0.2l0.5-1.7l0.6-2l0.3-0.8l0.1,0.1l0.5,1.7l0.5,1.4l0.4,1.4l0.1,0.1l1.9-0.4l0.5,0.9l0.4,0.8l0.1,0.8
	l0,0.7l0.2,0.6l0.2,0.3l0,0.5l0.2,0.8l0.5,1.5l0.6,1.5l0.4,1.3l0.2,0.8c0,0,0,0.3-0.1,0.4s0,0.3,0,0.3L20.6,46c0,0,0,0.6,0,0.8
	s0.4,0.7,0.4,0.7s0.1,0.3,0.1,0.4s0.2,0.2,0.2,0.2s0.2-0.1,0.2-0.1l0.5,0.4l0.4,0.4c0,0,0,0.1,0,0.2s0.2,0.2,0.2,0.2
	s0.1-0.1,0.1-0.1s0.6,0.4,0.8,0.6c0.2,0.2,0.5,0.3,0.5,0.3s0,0.2,0,0.2s0.2,0.1,0.2,0.1s0.2-0.1,0.2-0.1l0.3,0.1c0,0,0,0.2,0.1,0.2
	c0,0.1,0.1,0.1,0.2,0.1s0.2-0.1,0.2-0.1l0.2,0.1c0,0,0.5,0.1,0.6,0.1s0.4-0.1,0.4-0.1s0.2,0,0.4-0.2s0.3-0.3,0.3-0.4
	S26.8,49.8,26.8,49.6z"/>
<polygon id="skin-leg-r" class="st1" points="8.6,34.2 9.6,34.4 9.8,34.5 9.2,35.4 8.8,36.1 8.6,36.8 7.6,36.7 6.7,36.5 5.9,36.1 
	6.1,34.3 6.3,33.6 7.2,33.9 "/>
<path id="goalie-sock-r" class="st2" d="M7.6,38.6c0.1,0.1,0.4,0,0.5,0.1c0.1,0.1,0,0.6-0.1,1c-0.1,0.4-0.6,1.5-0.6,1.5l-1,2.4
	l-0.2,0.9l-0.1,0.8l-0.2,0.3l-0.3-0.1L5.1,45l-0.4-0.3l-0.2-0.1l-0.3,0c0,0,0-0.4,0.1-0.7s0.2-1.1,0.3-1.7s0.5-2.7,0.6-3.1
	s0.1-0.8,0.2-0.9s0.3-0.1,0.5-0.1s0.2,0,0.2-0.1s-0.3-0.2-0.4-0.4c-0.2-0.2-0.1-0.6-0.1-0.6s0.2-0.4,0.3-0.4s0.3,0.1,0.7,0.2
	s0.8,0.2,1.2,0.3c0.5,0.1,0.8,0,0.9,0.2c0.1,0.1,0.1,0.2,0.1,0.5s-0.1,0.3-0.2,0.4c-0.1,0.1-0.7,0-0.8,0.1
	C7.5,38.3,7.5,38.5,7.6,38.6z"/>
<path class="st0" d="M6.6,35.6c-0.1,0-0.2-0.3-0.2-0.3s0-0.1,0.1-0.1s0.5,0.2,0.5,0.2c0,0.1,0,0.3-0.1,0.3S6.6,35.6,6.6,35.6z"/>
<path id="goalie-shorts" class="st0" d="M15.6,34.5l-0.2-0.5l-1.3-3.8l-0.4-1.2l0-0.9c0,0,0.1,0,0.4-0.1s0.7-0.4,0.9-0.5
	s0.4-0.2,0.5-0.3c0-0.1-0.4-0.1-0.6-0.1c-0.2,0.1-0.8,0.5-0.9,0.4s-0.2-0.7-0.4-0.8s-0.6-0.3-0.6-0.2c0,0.1,0.4,0.7,0.5,0.9
	s-1,0-1.2,0.1c-0.1,0-0.1,0.3,0,0.3c0.1,0,0.7,0.1,0.8,0.2s0.2,1.4,0.2,1.4l-0.5,1.5l-1,3.2l-0.7-0.1l-1.5-0.3l-2.4-0.6
	c0,0-1.3-0.3-1.4-0.4s-0.2-0.1-0.2-0.2c0-0.1,0.4-1.3,0.4-1.3s0.9-2.6,1-3.1s0.5-1.3,0.7-2s0.6-1.6,0.6-1.6s0.5-1,0.6-1.2
	c0.1-0.2,0.3-0.4,0.4-0.5c0.1,0,0.4,0,0.7,0.1c0.4,0,0.8,0.2,0.9,0.2c0.1,0,0-0.3-0.2-0.5c-0.2-0.1-1-0.2-1.2-0.3
	c-0.2,0-0.2-0.3-0.2-0.3s0-0.3,0.2-0.3c0.1,0,0.8,0.1,0.9,0.2c0.2,0,0.3,0.1,0.5,0.1c0.2,0.1,0.9,0.4,1.2,0.5s1.3,0.2,1.9,0.2
	s1.4,0,1.4,0l1,0l0.6-0.1c0,0,0.6-0.1,0.8-0.1s0.2,0.1,0.2,0.3s0,0.2-0.1,0.3s-0.7,0-0.7,0s-1.2,0.1-1.4,0.1s-0.2,0.1-0.2,0.2
	s0,0.1,0.1,0.2s1.3,0.1,1.5,0.1s0.4-0.1,0.5-0.1s0.3,0,0.4,0.1s0.1,0.1,0.2,0.3s0.7,1.7,0.7,1.7l0.6,1.8l1,3.3c0,0,0.5,1.7,0.6,1.9
	s0,0.2-0.3,0.3s-0.8,0.2-0.8,0.2L17.8,34L15.6,34.5z"/>
<polygon class="st2" points="4.2,48.4 4.6,48 5,48 4.3,48.5 "/>
<polygon id="skin-leg-l" class="st1" points="19,34.2 17.9,34.4 17.7,34.5 18.2,35.3 18.7,36.1 18.9,36.8 19.8,36.7 20.7,36.5 
	21.6,36.1 21.4,34.4 21.2,33.7 20.3,33.9 "/>
<polygon id="goalie-sock-l" class="st2" points="19.8,38.6 19.3,38.7 19.4,39.7 19.9,41.2 20.9,43.5 21.1,44.4 21.2,45.2 21.4,45.6 
	21.7,45.5 22.1,45.1 22.5,44.8 22.8,44.7 23.1,44.7 23,43.9 22.8,42.2 22.4,39.1 22.2,38.3 21.7,38.2 21.6,38.1 22,37.7 22.1,37.1 
	21.8,36.6 21.1,36.9 19.8,37.1 19,37.2 18.9,37.7 19.1,38.1 19.9,38.2 "/>
<path class="st0" d="M20.6,35.7c0.1,0,0.1,0,0.2-0.1c0.1-0.1,0.2-0.3,0.2-0.3s0-0.1-0.1-0.1s-0.5,0.1-0.5,0.2s0.1,0.2,0.1,0.2
	S20.5,35.7,20.6,35.7z"/>
<polygon class="st2" points="22.6,48 22.2,48 22.9,48.6 23,48.5 "/>
<path id="skin-arm-l" class="st1" d="M19.9,17.1c0.3-0.2,0.5-0.3,0.5-0.3l0.3,0l-0.1-0.3l0.1-0.4c0,0,0.5-0.2,0.7-0.3
	s0.7-0.3,0.7-0.3s0.2,0.6,0.4,1.1c0.1,0.5,0.3,1.1,0.3,1.4c0,0.3,0.1,0.8,0.1,1c-0.1,0.1-0.2,0.3-0.4,0.4s-0.5,0.2-0.6,0.2
	c-0.1,0-0.2,0-0.5,0s-0.7-0.3-1-0.6s-0.7-0.7-1-0.9s-0.6-0.6-0.6-0.6S19.5,17.2,19.9,17.1z"/>
<path class="st3" d="M20,15.2l-0.1,0.7l0,0.2l0.2,0l-0.1,0.2l-0.3,0.2l-1.5,0.6c0,0-0.1-0.3-0.1-0.2c0,0.1,0-0.3-0.1-0.3
	c0,0-0.3,0-0.3,0c0,0-0.2-0.2-0.2-0.2c0,0-0.3-0.1-0.4-0.2s-0.4-0.4-0.5-0.4s-0.4-0.4-0.6-0.5s-0.7-0.4-0.8-0.4s-0.1-0.1,0-0.3
	s0.3-0.2,0.3-0.2l1.1,0.4c0,0,0.1-0.1,0.1-0.2c0-0.1,0-0.3-0.1-0.6s-0.2-0.8-0.2-0.8s-0.1-0.4,0.1-0.5c0.3-0.1,0.5,0.4,0.5,0.4
	l0.5,0.8l0.3-0.1l-0.1-1.3c0,0,0.1-0.2,0.3-0.2s0.3,0.2,0.3,0.2l0.3,1.3l0.2,0l0.3-1.3c0,0,0-0.1,0.2-0.1s0.2,0.1,0.2,0.1
	s0,0.3,0,0.6c0,0.2,0,0.6,0,0.6l0,0.2l0.1,0.1l0.1-0.4c0,0,0.1-0.2,0.3-0.1s0.1,0.2,0.1,0.2L20,15.2z"/>
<path id="skin-arm-r" class="st1" d="M8.2,17.1C8,17,7.8,16.8,7.8,16.8l-0.4,0c0,0,0.2-0.3,0.1-0.4s-0.1-0.4-0.1-0.4
	s-0.6-0.2-0.8-0.4s-0.6-0.2-0.6-0.2s-0.2,0.5-0.4,1.1c-0.1,0.5-0.3,1.1-0.3,1.4c-0.1,0.3-0.1,0.8-0.1,1c0.1,0.2,0.2,0.3,0.4,0.4
	c0.2,0.1,0.7,0.2,1.1,0.2s0.6-0.2,1-0.6c0.4-0.4,1.2-1.1,1.2-1.1l0.4-0.4C9.2,17.5,8.4,17.2,8.2,17.1z"/>
<path id="goalie-jersey" class="st4" d="M22,13.7c-0.2-0.5-0.5-1.3-0.7-1.6c-0.1-0.4-0.2-0.6-0.5-1c-0.2-0.4-0.9-1.1-1.1-1.2
	c-0.3-0.2-1-0.7-1.4-0.8s-0.9-0.3-1.3-0.4s-0.9-0.1-0.9-0.1l-0.5,1.1l-0.8,1.4l-0.8,1.1l-0.8-1.1l-0.8-1.3l-0.6-1.2
	c0,0-0.6,0.1-1,0.1S10,9,9.7,9.1c-0.3,0.1-1,0.5-1.4,0.8s-0.9,0.9-1.1,1.2s-0.3,0.6-0.5,0.9s-0.6,1.2-0.7,1.7s-0.3,1.1-0.3,1.1
	s0,0.1,0.1,0.1s0.2,0.1,0.3,0.1c0.2,0.1,0.6,0.2,0.9,0.3c0.3,0.1,0.6,0.3,0.6,0.3l0,0l-0.2-1.1c0,0-0.2-0.9-0.2-1.1s0.1-0.4,0.1-0.5
	s0.2-0.2,0.3-0.2S8,12.9,8,12.9s0-0.3,0-0.5c0-0.1,0.1-0.3,0.3-0.4c0.2-0.1,0.4-0.1,0.6-0.1c0.2,0.1,0.5,0.3,0.5,0.3s0-0.2,0.2-0.3
	c0.2-0.1,0.6-0.2,0.8-0.1c0.2,0.1,0.4,0.5,0.4,0.5s0.2-0.2,0.4-0.3s0.3-0.1,0.5-0.1s0.5,0.5,0.4,0.7S12,13.5,12,13.5L11.9,14
	l0.2-0.1c0,0,0.3-0.1,0.6,0s0.5,0.4,0.5,0.5s0.1,0.5,0,0.5s-0.2,0.2-0.4,0.4s-0.5,0.3-0.7,0.5c-0.2,0.2-0.5,0.5-0.8,0.7
	s-0.4,0.3-0.5,0.4c-0.1,0.1-0.4,0.1-0.4,0.2s-0.2,0.5-0.3,0.5s-0.3,0-0.3,0s0,0.1,0,0.2s0.1,0.3,0.1,0.5s0.1,0.9,0.1,1.2
	s0.1,0.9,0.1,1.2s0,0.7,0,0.7h0.2l0.5,0.1c0,0,0.3,0.1,0.4,0.1c0.1,0,0.1,0,0.1-0.3c0-0.2,0-0.6,0-1c0-0.1,0-0.3,0.2-0.5
	c0.2-0.1,0.3-0.1,0.4,0.1c0.1,0.4,0.1,0.7,0.1,1s-0.1,0.6,0,0.8c0,0,0.6,0.3,1.3,0.4c0.7,0.1,1.1,0.2,1.3,0.2s1.5,0,1.9,0
	s1.5-0.1,1.6-0.1s0.2-0.1,0.2-0.2s0.1-1.9,0.1-2.2s0-1.2,0-1.5s0-0.6,0-0.7s-0.2,0-0.3-0.1c-0.1,0-0.2-0.5-0.2-0.5s-0.2-0.2-0.4-0.3
	c-0.2-0.1-0.4-0.2-0.6-0.3S16.2,16.1,16,16s-0.7-0.5-0.8-0.6s-0.4-0.3-0.4-0.4s0-0.3,0-0.4s0.2-0.3,0.3-0.4s0.2-0.1,0.4-0.2
	c0.2,0,0.6,0.1,0.6,0.1l-0.1-0.6L16,12.7c0,0,0-0.3,0.1-0.5c0.1-0.1,0.1-0.2,0.3-0.2s0.4,0,0.5,0.1c0.1,0.1,0.4,0.3,0.4,0.3
	s0-0.2,0.1-0.3c0.1-0.1,0.2-0.2,0.5-0.3c0.1,0,0.4,0,0.5,0.1s0.3,0.3,0.3,0.3s0.1-0.1,0.2-0.2c0.1-0.1,0.3-0.1,0.4-0.1
	c0.1,0,0.4,0.2,0.5,0.3s0.1,0.7,0.1,0.7s0.3-0.1,0.5,0c0.2,0.1,0.4,0.3,0.4,0.7c0,0.4-0.3,1.9-0.3,1.7s-0.1,0.4-0.1,0.4l0,0
	c0,0,0.6-0.2,1-0.4s0.7-0.3,0.8-0.4s0.2-0.1,0.1-0.2S22.2,14.2,22,13.7z"/>
<path class="st3" d="M8,15.2l0.1,0.7l-0.1,0.2L8,16.3l0.2,0.2l0.7,0.4l0.9,0.4c0,0,0.1-0.1,0.1-0.2c0.1-0.1,0.1-0.3,0.1-0.3
	s0.2,0,0.3,0c0.1,0,0.2-0.2,0.2-0.2s0.2-0.1,0.4-0.2s0.5-0.4,0.5-0.4s0.3-0.3,0.6-0.5c0.2-0.1,0.8-0.4,0.8-0.4s0.1-0.1,0-0.3
	c-0.1-0.2-0.3-0.2-0.3-0.2s-1,0.4-1.1,0.4s-0.1-0.2-0.1-0.2s0.1-0.3,0.1-0.6c0.1-0.3,0.1-0.8,0.1-0.8s0.1-0.4-0.1-0.5
	c-0.2-0.1-0.3,0.1-0.3,0.1L11,13.1l-0.4,0.8l-0.3-0.1l0.1-1.3c0,0,0-0.2-0.2-0.2s-0.3,0.2-0.3,0.2l-0.3,1.3l-0.2,0l-0.3-1.3
	c0,0-0.1-0.2-0.2-0.1s-0.2,0.1-0.2,0.1l0,0.6l0,0.6l0,0.2L8.3,14l-0.1-0.4c0,0-0.1-0.2-0.2-0.1s-0.1,0.2-0.1,0.2L8,15.2z"/>
<path id="skin-face" class="st1" d="M11.7,5.8l0.4,0.8c0,0,0.3,0.9,0.4,1.2s0.2,0.3,0.3,0.5s0.4,0.5,0.5,0.6S13.6,9,13.7,9
	c0.2,0,0.5,0.1,0.8,0s0.7-0.5,0.9-0.8c0.2-0.3,0.3-0.4,0.4-0.7s0.3-1,0.3-1s-0.1-0.1-0.1-0.1s0.2-0.3,0.2-0.3s0.2,0,0.2,0
	s0.4-0.8,0.4-0.8l0-0.1L16.6,5c0,0,0.1,0.3,0,0.4s-0.2,0.3-0.2,0.3l-0.1,0l0-0.2c0,0-0.1-0.7-0.2-0.9s-0.4-0.7-0.5-0.8
	s-0.6-0.3-0.6-0.3s-0.3-0.1-0.4-0.1c-0.1,0-0.2,0-0.2,0s-0.2,0.2-0.3,0.1S14,3.2,14,3.2s-0.7-0.1-0.9,0S13,3.3,12.9,3.3
	s-0.6,0.5-0.7,0.6s0,0.2-0.1,0.3S12,4.6,12,4.6s0.1,0.2,0,0.2c-0.1,0.1-0.2,0.3-0.2,0.3s-0.1-0.2-0.1-0.2l0-0.1c0,0-0.1-0.1-0.1,0
	s0,0.3,0,0.3L11.7,5.8L11.7,5.8z"/>
<path id="skin-neck" class="st1" d="M15.1,10l0.7-1.4l0-0.1l0-0.2c0,0-0.7,0.9-1.2,0.9c-0.3,0.1-0.7,0.1-0.8,0s-0.4-0.1-0.5-0.2
	s-0.4-0.6-0.4-0.6l-0.3-0.4l0,0.5l0.2,0.6l0.6,1.1l0.8,1.2L15.1,10z"/>
<polygon class="st0" points="14,6.8 14,6.7 13.9,6.7 13.7,6.7 14,6.8 "/>
<polygon class="st0" points="14.5,6.8 14.6,6.7 14.5,6.6 14.2,6.7 14.4,6.9 "/>
<path class="st0" d="M12.6,4.9c0.1,0,0.2,0,0.2,0.1c-0.1,0.1-0.1,0.3-0.1,0.3s0.2,0.2,0.3,0.1c0.2,0,0.3-0.2,0.3-0.2l0.1,0L13.7,6
	l0-1l-0.2-0.2l-0.1-0.1c0,0-0.6-0.1-0.7,0c-0.1,0-0.2,0.1-0.2,0.1s0,0,0,0.1S12.6,4.9,12.6,4.9S12.6,4.8,12.6,4.9z"/>
<path class="st0" d="M15.2,4.9l0.2-0.2l0.4,0.2l-0.1-0.1l-0.4-0.2l-0.5,0.1l-0.4,0.2V5c0,0,0.1,0.1,0.3,0.3c0.1,0.1,0.3,0,0.4-0.1
	C15.3,5,15.2,4.9,15.2,4.9z"/>
<polygon class="st0" points="13.9,7.6 14,7.7 13.9,7.7 13.7,7.8 13.7,7.9 13.8,8 14.3,7.9 14.4,7.7 14.5,7.6 14.8,7.4 14.9,7.3 
	14.9,7.3 14.7,7.3 14.1,7.4 13.5,7.3 13.4,7.4 13.7,7.5 "/>
<path id="hair" class="st0" d="M11,4l0.2-0.5L11.1,3l0.2-0.1l0.1-0.3l0.3-0.6L12,1.4l0.4-0.1l0.1-0.1l0.5,0L13.6,1l0.7-0.2l0.1,0.1
	l0.7,0.1l0.5,0.3l0.1-0.1l0.3,0.4l0.4,0.3l0.7,1l-0.1,0.1l-0.1,0.5l0.3,0.4l-0.3,0.2v0.5l-0.1-0.2l-0.2,0.1c0,0-0.2-0.5-0.3-0.7
	c-0.1-0.2-0.3-0.5-0.4-0.6C15.6,3.1,15.1,3,15.1,3l-0.4-0.1l-0.2,0L14.3,3l-0.2-0.2l-1.1,0c0,0-0.1,0.1-0.2,0.1
	C12.8,3,12.1,3.6,12,3.6c0,0.1-0.1,0.3-0.1,0.4c-0.1,0.1-0.1,0.2-0.1,0.3c0,0-0.2-0.1-0.2-0.1s-0.3,0.2-0.3,0.5c0,0.1,0,0.1,0,0.2
	l-0.1-0.2l0-0.5L11,4z"/>
</svg>
