<?xml version="1.0" encoding="utf-8"?>
<!-- Generator: Adobe Illustrator 27.8.0, SVG Export Plug-In . SVG Version: 6.00 Build 0)  -->
<svg version="1.1" id="Ebene_1" xmlns="http://www.w3.org/2000/svg" xmlns:xlink="http://www.w3.org/1999/xlink" x="0px" y="0px"
	 viewBox="0 0 29.3 48.8" style="enable-background:new 0 0 29.3 48.8;" xml:space="preserve">
<style type="text/css">
	.st0{fill:#1A1A18;}
	.st1{fill-rule:evenodd;clip-rule:evenodd;fill:#F9CAA9;}
	.st2{fill-rule:evenodd;clip-rule:evenodd;fill:#FFFFFF;}
	.st3{fill-rule:evenodd;clip-rule:evenodd;fill:#1A1A18;}
	.st4{fill:#F9CAA9;}
	.st5{fill:#72F70B;}
	.st6{fill-rule:evenodd;clip-rule:evenodd;fill:#F7DD7F;}
	.st7{fill:#F7DD7F;}
</style>
<path class="st0" d="M28.7,45.9c0-0.3-0.3-0.4-0.4-0.4c-0.1,0-0.5,0.1-0.6,0c-0.1,0-0.7-0.3-0.8-0.3c-0.1-0.1-0.5-0.6-0.6-0.7
	s-0.3,0-0.3-0.1c-0.1,0-0.3-0.5-0.3-0.6s-1-5.2-1.1-5.9c-0.1-0.6-0.4-1.6-0.5-1.8s-0.3-0.8-0.4-0.9c-0.1-0.1,0.1-0.1,0.1-0.2
	c0-0.1-0.2-0.6-0.3-0.8c-0.1-0.2-0.2-0.3-0.2-0.4s-0.1-0.2-0.2-0.3s-0.4-1.1-0.4-1.1s0.2-0.1,0.2-0.2c0.1-0.1,0.1-0.1,0-0.2
	c-0.1-0.2-0.2-0.6-0.4-1.1c-0.3-0.8-0.6-1.6-0.8-1.9c-0.3-0.6-0.7-1.5-0.9-2.2c-0.2-0.6-1.1-2.9-1.2-3.2c-0.1-0.3-0.4-0.8-0.4-0.8
	s0.1-0.3,0.1-0.5c0-0.3-0.1-0.5-0.2-0.6c0,0,0-0.1-0.1-0.2h0c0,0-0.1-0.1-0.1-0.6s-0.1-0.9,0-1.6c0-0.6,0.1-1.3,0.2-2.3
	c0.1-1.2,0.2-1.7,0.2-1.7s1.1,0.9,1.7,1.3c0.5,0.4,0.6,0.5,1.2,0.7c0.5,0.2,0.8,0.3,1,0.4c0.2,0.1,0.5,0.1,0.7,0.1
	c0.1,0,0.4-0.1,0.5-0.4c0.1-0.2,0.2-0.4,0.2-0.9c0-0.4-0.2-1-0.3-1.4c-0.2-0.5-0.5-1.1-0.5-1.1l-0.3-0.6l0.1-0.2c0,0,0-0.1,0-0.1
	c-0.1-0.2-0.5-0.6-0.6-0.8c-0.2-0.3-0.7-0.7-0.8-0.9c-0.2-0.2-0.4-0.5-0.7-0.7c-0.2-0.2-1-0.8-1.1-1S19.5,9.4,19,9.1
	c-0.3-0.1-0.6-0.3-0.9-0.5c-0.2-0.1-0.4-0.2-0.5-0.2s-0.4-0.2-0.4-0.2l-0.3-0.1c0.1-0.1,0,0,0.2-0.4c0.2-0.4,0.3-0.5,0.3-0.5
	s0.3-0.2,0.4-0.3c0.2-0.2,0.2-0.5,0.3-0.6c0.1-0.2,0-0.5,0-0.7c0-0.1-0.1-0.2-0.1-0.2s0.1-0.5,0.2-0.9c0.1-0.4,0.1-0.7,0.1-1.1
	c0-0.4-0.2-1.1-0.5-1.5c-0.1-0.2-0.3-0.4-0.6-0.5c-0.1-0.1-0.5-0.2-0.7-0.3c0,0-0.2-0.3-0.5-0.4c-0.3-0.2-1-0.2-1.4,0
	c-0.4,0.2-0.5,0.5-0.5,0.5s-0.9,0.5-1.2,0.9c-0.1,0.2-0.4,0.5-0.4,1.1c-0.1,0.5,0,1,0.2,1.8l0.1,0.5c0,0-0.1,0-0.2,0.2
	c-0.1,0.2-0.1,0.3,0,0.5c0,0.2,0.2,0.6,0.3,0.8c0.2,0.1,0.3,0.3,0.3,0.3s0.2,0.2,0.3,0.6c0,0.1,0,0.1,0.1,0.2
	c-0.1,0.1-0.2,0.1-0.3,0.2c-0.2,0.1-1,0.2-1.5,0.4c-0.3,0.1-0.7,0.3-1,0.4c-0.3,0.2-1.2,0.8-1.5,1c-0.2,0.2-0.7,0.7-1.2,1.1
	c-0.4,0.3-1.1,1.1-1.3,1.4c-0.2,0.2-0.2,0.3-0.4,0.4c-0.1,0.1-0.1,0.2,0,0.2c0.1,0.1,0.1,0.2,0.1,0.2L6.2,14c0,0-0.5,1-0.6,1.2
	s-0.3,0.8-0.2,1.3c0.1,0.3,0.1,0.7,0.6,1c0.3,0.2,0.9,0.3,1.4,0s1.2-0.7,1.2-0.7l1-0.7l0.6-0.4l0.3-0.3c0,0,0.1,0.4,0.2,0.9
	c0,0.5,0.1,1.3,0.1,1.7c0,0.4,0,1.5-0.1,2.2c0,0.5,0,1,0,1c0,0-0.1,0.2-0.2,0.3c-0.1,0.1-0.1,0.3-0.1,0.4c0,0.1,0,0.3,0,0.4
	c0,0.1-0.2,0.4-0.3,0.5c-0.1,0.1-0.2,0.3-0.4,0.6c-0.2,0.3-0.6,0.8-0.8,1.3c-0.2,0.5-1.1,2.1-1.3,2.4c-0.2,0.4-0.9,1.8-1.1,2.2
	c-0.2,0.5-0.9,1.9-1.1,2.4c0,0.1,0,0.2,0,0.2c0.1,0.1,0.3,0.2,0.3,0.2l-0.3,1.5c0,0-0.3,0.3-0.4,0.5s-0.3,0.6-0.3,0.8
	c0,0.2,0,0.4,0,0.5c0,0.1-0.6,3.2-0.6,3.2l-0.7,4.1l-0.2,0.9c0,0-0.1,0-0.2,0.1s-0.1,0.7-0.1,0.7s-0.2,0-0.3,0.1
	c-0.1,0.1,0,0.4-0.1,0.5c-0.1,0.1-0.7,0.5-0.8,0.5c-0.1,0-0.3,0.1-0.4,0.1s-0.3,0-0.4,0.1c-0.1,0.1-0.2,0.6-0.2,0.7s0,0.3,0,0.4
	c0,0.1,0.3,0.5,0.3,0.5s0,0.2,0,0.3c0,0.1,0.1,0.2,0.1,0.2c0,0,0.1-0.1,0.1-0.1l0.9,0.2c0,0,0,0.1,0.1,0.1c0,0,0.1,0,0.2,0
	c0,0,0.1-0.1,0.1-0.1l0.8,0l0.4,0.1c0,0,0,0.2,0,0.2c0.1,0.1,0.2,0,0.2,0C3.9,48.2,4,48,4,48l0.3,0l0.3-0.1c0,0,0,0.1,0.1,0.1
	c0.1,0.1,0.1,0,0.1,0s0.1-0.2,0.1-0.2L5,47.7c0,0,0.1,0,0.1-0.1c0.1-0.1,0.1-0.2,0.1-0.3c0-0.1,0-0.2,0-0.4s0-0.4,0-0.5
	c0-0.2,0-0.4,0-0.6c0-0.2,0.1-0.8,0.1-0.9c0-0.1-0.1-0.4-0.1-0.6c0-0.2,0-0.6,0.1-1.1s0.8-2.4,1-3c0.2-0.5,0.4-1.1,0.7-2
	c0.3-1,0.4-1.4,0.4-1.6c0-0.3-0.2-0.5-0.1-0.5c0.1-0.1,0.1-0.4,0.1-0.4s0.2-0.2,0.2-0.4c0-0.1,0-0.2,0.1-0.4
	c0.1-0.3,0.2-0.5,0.4-0.6s0.8-0.6,0.8-0.6s0.5,0.2,0.8,0.3c0.3,0.1,0.6,0.2,0.7,0.3c0.2,0.1,0.2,0,0.3-0.2c0.1-0.1,0.5-0.9,0.5-0.9
	s1.7-3.1,1.9-3.5c0.2-0.4,0.4-0.6,0.5-0.7c0.1,0,0.4,0,0.6,0.1c0.1,0,0.2,0,0.3,0.1c0,0.1,1.1,1.7,1.4,2.2c0.3,0.4,1.7,2.9,1.9,3.4
	c0.1,0.1,0.1,0.2,0.2,0.1c0.1-0.1,1.1-0.5,1.1-0.5s0.2,0.2,0.5,0.4c0.3,0.3,0.6,0.4,0.7,0.5s0.2,0.2,0.2,0.4c0,0.2,0.1,0.6,0.2,0.7
	c0.1,0.1,0.3,0.2,0.3,0.2s0.1,0.6,0.1,0.9c0,0.3,0.1,1,0.3,1.4c0.1,0.3,1.6,4.3,1.7,4.5s0.2,1,0.2,1.1s-0.1,0.5-0.1,0.6
	c0,0.1,0,0.6,0.1,0.7s-0.1,0.6-0.1,0.8c0,0.2,0,0.7,0.1,0.8c0,0.1,0.2,0.1,0.2,0.1s0,0.1,0,0.2c0,0,0.1,0.1,0.2,0.1
	c0.1,0,0.1-0.1,0.1-0.1l0.2,0.1c0,0,0,0.1,0.1,0.2c0,0,0.2,0.1,0.2,0.1c0,0,0.1-0.1,0.1-0.1l0.5,0l0.8-0.1l0.2,0
	c0,0,0.1,0.1,0.1,0.2c0.1,0,0.1,0,0.2,0c0,0,0-0.2,0-0.2l0.9-0.1c0,0,0,0.1,0.1,0.1c0.1,0,0.1,0,0.2,0c0.1-0.1,0.1-0.1,0.1-0.1
	l0.6-0.2c0,0,0,0.1,0.1,0c0.1,0,0.1,0,0.1-0.1c0-0.1,0-0.2,0-0.2l0.2-0.3c0,0,0,0.1,0.1,0.1c0.1,0,0.1,0,0.1-0.1c0-0.1,0-0.2,0-0.2
	S28.7,46.2,28.7,45.9z"/>
<path id="skin-leg-l" class="st1" d="M7.4,34.4c0,0,0.1-0.3,0.2-0.4c0-0.1,0-0.2,0-0.2c0,0-0.1-0.2-0.1-0.2c0,0,0.1-0.2,0.1-0.2
	s0.3,0.5,0.4,0.5c0.1,0,0.5-0.3,0.5-0.3s-0.8-0.4-1-0.5c-0.2-0.1-0.7-0.3-0.9-0.4c-0.2-0.1-0.6-0.3-0.6-0.3l-0.3,1.2l0,0.2
	c0,0,0.5,0.2,0.9,0.4C7,34.2,7.4,34.4,7.4,34.4z"/>
<path id="skin-leg-r" class="st1" d="M20.8,33.6c-0.3,0.1-1.1,0.6-1.1,0.6l0.4,0.3l0.7,0.5l1-0.5l1-0.5l-0.4-1.2
	c0,0-0.3,0.2-0.5,0.3C21.5,33.2,21,33.4,20.8,33.6z"/>
<path id="goalie-sock-r" class="st2" d="M21.2,36.1c0.1,0.1,0.7-0.3,0.9-0.3c0.1,0,0.2-0.1,0.3-0.1s0.2,0,0.1,0.3
	c-0.1,0.2-0.7,0.7-0.7,0.7s-0.2,0.1-0.1,0.3c0,0.2,0,0.7,0.1,1.3c0.1,0.6,0.4,1.1,0.6,1.9c0.3,0.7,0.8,2,0.9,2.4
	c0.1,0.4,0.3,0.7,0.3,0.9c0.1,0.2,0.1,1,0.2,1.1c0.1,0.1,0.2-0.3,0.3-0.3c0.1,0,1.1,0.9,1.2,0.9c0.2,0,0.1-0.5,0.1-0.5
	c0-0.1-0.2-0.4-0.2-0.6C25.2,44,25.1,43.4,25,43c-0.1-0.4-0.4-1.9-0.5-2.5c-0.1-0.6-0.5-2.5-0.6-3c-0.1-0.5-0.5-1.5-0.6-1.7
	c-0.1-0.3-0.3-0.3-0.3-0.4s0-0.2,0-0.2c0.1,0,0.2-0.1,0.2-0.2s-0.1-0.3-0.1-0.4c-0.1-0.1-0.2-0.4-0.3-0.3c-0.1,0-1.2,0.5-1.3,0.6
	c-0.2,0.1-0.4,0.3-0.5,0.3c0,0.1,0.2,0.2,0.2,0.4C21.2,35.9,21.2,36,21.2,36.1z"/>
<path id="goalie-sock-l" class="st2" d="M7.2,35.5c0,0.1,0,0.2-0.1,0.3s-0.7-0.4-0.8-0.3s-0.1,0.1,0,0.2c0.1,0.1,0.7,0.6,0.8,0.9
	c0.1,0.2-0.1,0.6-0.2,1.1c-0.2,0.6-1,2.7-1.1,3.1C5.7,41.1,5.1,43,5,43.2c0,0.2-0.1,1.1-0.1,1.2s-0.3-0.4-0.3-0.4
	c-0.1,0-0.8,0.6-0.8,0.6c-0.1,0-0.1-0.6-0.1-0.9c0-0.2,0.3-1.8,0.3-2.1s0.2-1.2,0.4-2S5,35.7,5,35.6s0.3,0,0.4-0.1s0-0.3,0-0.4
	s-0.2,0-0.3-0.2c-0.1-0.1,0-0.3,0.1-0.4c0.1-0.1,0.3-0.3,0.3-0.3s0.7,0.3,0.7,0.3s0.9,0.3,1,0.4c0.1,0.1,0.1,0.3,0.1,0.4
	C7.4,35.4,7.3,35.4,7.2,35.5z"/>
<path id="goalie-shorts" class="st3" d="M19.2,24c0,0-0.2-0.6-0.4-0.7c-0.2-0.1-0.9-0.1-1-0.1c-0.2,0-0.3,0-0.4-0.1
	c-0.1-0.1-0.1-0.2-0.1-0.3c0.1-0.1,0.4-0.1,0.6-0.1c0.2,0,0.5,0,0.7-0.1c0.2,0,0.1-0.3,0.1-0.3c0-0.1-0.1-0.2-0.1-0.2
	c-0.1,0-0.8,0-1.4,0c-0.6,0-1.4-0.1-2.1-0.1c-0.6-0.1-1.3,0-2-0.1s-2.2-0.4-2.3-0.4c-0.1,0-0.2,0.1-0.2,0.2c0,0.1,0,0.3,0.1,0.4
	c0.1,0.1,1.6,0.2,1.6,0.3s0.1,0.2,0,0.3c-0.1,0.1-0.2,0.1-0.3,0.1c-0.2,0-1.4-0.3-1.5-0.2c-0.1,0.1-0.4,0.6-0.5,0.7
	c-0.1,0.1-0.6,0.9-0.9,1.3c-0.2,0.4-0.6,1-0.8,1.4c-0.2,0.4-0.7,1.4-0.9,1.8c-0.2,0.3-0.8,1.6-1,2c-0.2,0.4-0.6,1.3-0.7,1.6
	c0,0.1,0,0.1,0,0.2c0.1,0.1,0.3,0.2,0.6,0.3c0.2,0.1,0.9,0.5,1.5,0.7c0.5,0.3,1.4,0.6,1.6,0.7c0.3,0.1,0.8,0.3,0.9,0.3
	c0.1,0,0.2,0,0.2-0.2c0-0.1,0.2-0.5,0.6-1.1c0.8-1.5,1.9-3.5,1.9-3.5c0-0.1-0.6-0.4-0.8-0.6c-0.2-0.2-0.8-0.8-0.8-0.8
	s0.2-0.1,0.2-0.1c0.1,0,0.6,0.3,0.9,0.5c0.2,0.2,0.8,0.4,0.9,0.5s0.3,0,0.4,0.1c0.1,0,0.3,0.1,0.5,0.1s1.1-0.3,1.5-0.4
	c0.4-0.1,0.9-0.2,1-0.1c0.1,0,0,0.1,0,0.2c-0.1,0.1-0.2,0.2-0.6,0.4S15,28.9,15.1,29c0,0.1,0.3,0.4,0.4,0.7s0.8,1.2,1.1,1.7
	c0.3,0.5,1.5,2.7,1.6,2.8c0.1,0.1,0.1,0.2,0.2,0.1c0.2-0.1,0.8-0.4,1.3-0.6c0.5-0.3,1.5-0.8,1.9-1s0.8-0.5,0.9-0.5
	c0.1-0.1,0-0.2,0-0.2L19.2,24z"/>
<path id="skin-arm-l" class="st4" d="M10,15.2l-1.1,0.1c0,0-0.4,0.4-0.5,0.4c-0.1,0-0.1,0.1-0.2,0.1c-0.1,0-0.1,0-0.1-0.1
	c0-0.1,0.1-0.2,0.2-0.4s0.3-0.4,0.3-0.4L8,14.4L7.4,14l-0.5-0.4c0,0-0.3,0.5-0.5,0.8c-0.2,0.3-0.5,0.8-0.6,1.1
	c-0.1,0.3-0.1,0.6-0.1,0.8s0,0.4,0.1,0.5c0.1,0.1,0.2,0.2,0.3,0.3c0.2,0.1,0.4,0.1,0.5,0.1c0.2,0,0.5-0.1,0.7-0.2
	c0.2-0.1,1.1-0.7,1.4-0.9s0.5-0.5,0.7-0.6C9.7,15.4,10,15.2,10,15.2z"/>
<path id="goalie-shirt" class="st5" d="M22.5,12.8c-0.3-0.4-1.3-1.4-1.8-1.9c-0.5-0.4-1-0.9-1.7-1.4c-0.2-0.1-0.6-0.4-0.9-0.5
	c-0.2-0.1-0.6-0.2-0.7-0.3c-0.2-0.1-0.5-0.2-0.5-0.2s-0.3,0-0.5,0c-0.3,0-0.8,0-1.1,0c-0.3,0-0.6-0.1-0.8-0.1s-0.6-0.1-0.6-0.1
	s-0.2,0.1-0.4,0.1c-0.2,0-0.5,0.1-0.5,0.1s-0.8,0.2-1.2,0.3C11.4,9,11,9.3,10.6,9.5c-0.3,0.2-1.2,0.9-1.7,1.3
	c-0.4,0.4-1.2,1.2-1.4,1.4c-0.2,0.2-0.8,0.8-0.7,0.7c0.1-0.1-0.1,0.1,0,0.1c0.1,0.1,0.5,0.4,0.5,0.4s0.9,0.6,1.1,0.8
	c0.3,0.2,0.9,0.6,0.9,0.6s0.1,0,0.3-0.2c0.1,0,0.5-0.4,0.7-0.5c0.3-0.1,0.7-0.4,0.8-0.4c0.1,0,0.2,0.1,0.2,0.2
	c0,0.1-0.6,0.8-0.6,0.9c0,0.1,0.1,0.5,0.1,0.8c0,0.3,0,0.9,0,1.2s0,1.5,0,1.8c0,0.3,0,1.6,0,1.6l0.1,0.7c0,0,0,0.1,0.1,0.1
	c0.1,0,1.5,0.3,2,0.4c0.5,0.1,1.4,0.1,2.2,0.2s1.5,0.1,1.9,0.1s0.8,0,0.8,0s0.3,0,0.4,0c0.1,0,0.1-0.1,0.1-0.1l0-0.7
	c0,0,0-0.6,0-1.1s0-1,0.1-1.6c0-0.8,0.1-1.7,0.1-2c0-0.5,0.2-0.9,0.1-1c0-0.2-0.5-0.7-0.5-0.8c0-0.1,0.1-0.3,0.2-0.3
	c0.1,0,0.3,0.1,0.5,0.2c0.4,0.3,0.8,0.4,0.8,0.5c0.3,0.1,0.5,0.4,0.6,0.3s0.5-0.3,0.8-0.4c0.3-0.2,1.3-0.9,1.3-0.9s0.3-0.3,0.4-0.3
	c0.1-0.1,0.1-0.1,0-0.1C22.9,13.2,22.7,13,22.5,12.8z"/>
<path class="st3" d="M15.1,16.2c0-0.3-0.1-1.2-0.1-1.5c0.1-0.3,0.3-1.3,0.3-1.5c0-0.2-0.2-1-0.2-1.1c0-0.1,0-0.3,0-0.4
	c-0.1-0.1-0.1,0-0.1,0.1s0,2.2-0.1,2.4c-0.1,0.3-0.3,1-0.3,1.3c0,0.3,0,1.5,0.1,1.7c0.1,0.2,0.1,0.6,0.2,0.7c0.1,0.1,0.1,0.1,0.2,0
	c0.1-0.1,0.2-0.3,0.3-0.6C15.3,17.1,15.1,16.5,15.1,16.2z"/>
<path id="skin-arm-r" class="st4" d="M19.9,15.5l1,0.1c0,0,0.4,0.3,0.5,0.4c0.1,0.1,0.2,0.1,0.2,0.1c0.1,0,0.2-0.1,0.1-0.2
	c0-0.1-0.1-0.1-0.3-0.3c-0.1-0.2-0.3-0.4-0.3-0.4s0.4-0.3,0.7-0.5s0.4-0.2,0.6-0.4C22.7,14.2,23,14,23,14s0.3,0.4,0.5,0.8
	c0.2,0.4,0.5,1,0.6,1.4c0.1,0.4,0.1,0.7,0,1c-0.1,0.3-0.2,0.5-0.5,0.4c-0.3,0-0.7-0.2-1-0.3c-0.3-0.1-0.5-0.2-0.8-0.4
	s-1-0.7-1.2-0.8C20.4,15.9,19.9,15.5,19.9,15.5z"/>
<path id="skin-face-l" class="st1" d="M14.7,8.2C14.5,8,14.2,7.8,14,7.5c-0.3-0.3-0.5-0.7-0.7-1c-0.1-0.1-0.4-0.7-0.4-0.5
	s0,0.3,0.1,0.5s0.3,0.3,0.3,0.3c0.1,0,0.1,0.1,0.3,0.3c0.1,0.2,0.5,0.7,0.7,1c0,0,0.1,0,0.2,0S14.7,8.2,14.7,8.2z"/>
<path id="skin-face-r" class="st1" d="M16.4,8.2c0.2-0.3,0.5-0.9,0.6-1.1c0.1-0.2,0.2-0.3,0.3-0.3c0.1,0,0.3-0.2,0.3-0.3
	s0.1-0.4,0.1-0.5s-0.2,0.3-0.3,0.4c-0.2,0.3-0.4,0.7-0.6,1c-0.1,0.1-0.2,0.4-0.4,0.5C16.3,8,16.2,8.1,16,8.2c0,0,0.1,0,0.2,0
	S16.4,8.2,16.4,8.2z"/>
<path id="hair" class="st6" d="M17.6,2.5c-0.1-0.2-0.5-0.6-1-0.8c0,0-0.1-0.1-0.1-0.1c0.1,0.6,0.1,0.9-0.1,1.6c0,0.1,0,0.2,0,0.5
	c0.1,0.5,0.2,1.3,0.3,1.6c0.1,0.4,0.1,0.6,0.1,1.2c0,0.4-0.4,0.8-0.4,0.9c-0.2,0.1-0.2,0.1-0.2,0.1s-0.2,0.3-0.3,0.2
	c-0.1,0-0.1-0.2-0.2-0.2c0,0,0,0.1-0.1,0.2c0,0-0.2,0.1-0.3-0.2c-0.1-0.1,0,0.1-0.1,0.2c-0.1,0.1-0.2-0.1-0.3-0.2
	c-0.1-0.2,0,0-0.1,0c-0.2,0-0.3-0.1-0.4-0.4c-0.1-0.1-0.3-0.7-0.2-1.1c0-0.2,0.1-0.9,0.1-1.3c0-0.5,0.1-1.2,0-1.5
	c0-0.4-0.2-1-0.1-1.5c-0.4,0.2-0.6,0.5-0.8,0.7c-0.2,0.2-0.5,0.7-0.4,1.2c0,0.5,0.1,1,0.2,1.4c0.1,0.4,0.1,0.7,0.1,0.7
	s0.4,0.5,0.7,1c0.2,0.3,0.4,0.6,0.7,0.9c0.2,0.2,0.7,0.6,0.9,0.6c0.4,0,0.8-0.4,0.8-0.5c0.4-0.4,0.5-0.6,0.8-1.2
	c0.2-0.3,0.4-0.6,0.5-0.8c0.1-0.2,0.2-0.5,0.2-0.8c0.1-0.4,0.2-0.8,0.2-1.2C17.9,3.2,17.7,2.7,17.6,2.5z"/>
<path id="hair-p" class="st7" d="M16.5,6.3c0-0.4-0.1-0.8-0.1-1.2c0-0.2-0.2-1.2-0.3-1.7c0,0,0,0-0.1,0c-0.1,0-0.2,0.1-0.2,0.1
	s0.1-0.1,0.2-0.3c0-0.1,0.1-0.1,0.1-0.2c0.1-0.4,0.1-0.9,0.1-1c0-0.8-0.3-1.1-1-1.1c-0.5,0-1,0.3-1,1c0,0.1,0,0.2,0,0.5
	c0,0.2,0.1,0.4,0.1,0.6c0,0.1,0,0.2,0.1,0.3c0.1,0.2,0.2,0.4,0.2,0.4s-0.1-0.1-0.2-0.1c0,0,0,0-0.1,0c0,0.6-0.1,1.6-0.1,2.1
	c0,0-0.3,1.1,0.2,1.6c0,0,0,0,0.1-0.2c0-0.2,0.1-0.3,0.2-0.3c0.1,0.3,0.2,0.6,0.2,0.8c0-0.2,0.1-0.6,0.2-0.9c0,0,0.3,0.8,0.3,0.9
	c0.2-0.3,0.2-0.7,0.2-0.9c0,0,0.4,0.6,0.2,0.9c0,0,0.2-0.2,0.3-0.4c0-0.2,0-0.4-0.1-0.5c0,0,0.4,0.4,0.2,0.6
	C16.4,6.8,16.6,6.6,16.5,6.3z M15.7,2.4c-0.1,0.1,0-0.5-0.1-0.7c-0.1-0.4-0.3-0.5-0.1-0.4C15.8,1.4,16,1.8,15.7,2.4z"/>
</svg>
