<?xml version="1.0" encoding="utf-8"?>
<!-- Generator: Adobe Illustrator 27.8.0, SVG Export Plug-In . SVG Version: 6.00 Build 0)  -->
<svg version="1.1" id="Ebene_1" xmlns="http://www.w3.org/2000/svg" xmlns:xlink="http://www.w3.org/1999/xlink" x="0px" y="0px"
	 viewBox="0 0 28.2 52.3" style="enable-background:new 0 0 28.2 52.3;" xml:space="preserve">
<style type="text/css">
	.st0{fill-rule:evenodd;clip-rule:evenodd;fill:#1A1A18;}
	.st1{fill-rule:evenodd;clip-rule:evenodd;fill:#FBCDAA;}
	.st2{fill-rule:evenodd;clip-rule:evenodd;fill:#D5100E;}
	.st3{fill-rule:evenodd;clip-rule:evenodd;fill:#FFFFFF;}
</style>
<path class="st0" d="M1.3,21c0,0,0.3-0.7,0.5-1s0.6-1.3,0.7-1.5c0.1-0.3,0.8-1.9,0.9-2.1s0.2-0.3,0.4-0.6s0.6-1,0.6-1L5,14
	c0,0,0-0.1-0.1-0.1c-0.1-0.1,0.1-0.2,0.2-0.3C5.2,13.4,5.6,13,5.6,13l0.7-0.8L7,11.4l0.7-0.8c0,0,0.5-0.6,0.8-0.9
	c0.3-0.4,0.5-0.5,0.7-0.6C9.5,9,9.6,8.9,9.8,8.8s1.1-0.3,1.1-0.3l1-0.2l0.6-0.1h0.6L13.5,8l0.2-0.3l0.1-0.3l-0.2-0.9l-0.3-0.2
	L13.2,6l0-0.5l-0.3-0.7l0-0.5l-0.3-0.5l0.3-0.5l-0.2-0.6l0.2-0.1L13,2.3l0.3-0.6l0.5-0.6L14.3,1l0.1-0.2L15,0.9l0.7-0.2l0.9-0.2
	l0.1,0.1l0.8,0.1L17.7,1l0.2-0.1l0.4,0.5l0.5,0.5l0.6,1.3l-0.1,0.1l-0.1,0.5l0.3,0.5L19,4.6l-0.1,0.7l0,0.5l-0.4,0.5l-0.2,0.4
	L18.1,7l-0.1,0.2l-0.2,0.6L17.7,8l0,0.1L18,8.4c0,0,0.6,0.2,0.9,0.2s0.7,0.2,1,0.4c0.3,0.2,0.9,0.6,1.2,0.8c0.3,0.2,0.6,0.6,0.6,0.6
	l0.9,1l1.3,1.3c0,0,0.5,0.5,0.6,0.5s0.3,0.4,0.3,0.4s0,0,0,0.1S24.6,14,24.6,14l0,0l0.2,0.3l0.4,0.6l0.6,1.3l0.6,1.7l0.3,0.8
	c0,0,0.2,0.3,0.4,0.6c0.2,0.2,0.5,1,0.5,1.2s0.1,0.5,0.1,0.7s-0.5,0.9-0.7,1s-0.4,0.3-0.5,0.3s-0.2,0-0.4-0.1s-0.3-0.2-0.4-0.4
	s-0.3-0.5-0.3-0.5s-0.1,0-0.2,0c-0.2-0.1-0.7-0.8-0.7-0.8c0-0.1,0-0.2,0-0.4c0-0.2,0.3-1,0.3-1.1c0-0.1-0.2-0.5-0.2-0.5l-0.6-1
	L23.3,17L23,16.8l-0.4-0.3l-0.2-0.1l-0.5,0.5c0,0-0.1,0.1-0.2,0.2c-0.1,0.1-0.2,0-0.2,0l-0.8-0.7L20,15.9l-0.1,0.3l-0.2,1.4
	l-0.1,1.7l0,3.3l0,0.5l-0.1,0.5c0,0,0.1,0.2,0.2,0.4s0.2,0.6,0.2,0.7s-0.1,0.3-0.1,0.3l0.2,0.7c0,0,0.2,0.9,0.2,1.2s0.1,1.1,0.2,1.5
	s0,1.5,0,1.5v1.5l0,1.2l-0.1,1.7l-0.1,1.6c0,0,0.1,1.9,0,2c-0.1,0.1-0.2,0.2-0.4,0.2c-0.2,0-0.6,0-0.6,0l-0.3,1.6l-0.1,0.5l-0.1,0.8
	l0.2,0.5l0,1l-0.1,0.2l-0.4,0.4l-0.1,0.5l-0.5,1.8L17.3,47l0.2,0.1l0,0.2l0.2,0.5l0.5,1.2l0.8,1.5c0,0,0.2,0.5,0.2,0.8
	s-0.2,0.4-0.3,0.5s-0.6,0.1-0.6,0.1l-0.5-0.1l-0.2-0.1c0,0-0.1,0.1-0.2,0.1c-0.1,0-0.2-0.1-0.2-0.1c0-0.1,0-0.1,0-0.1l-0.3-0.2
	c0,0-0.1,0-0.2,0s-0.2-0.1-0.2-0.2c0-0.1,0-0.2,0-0.2l-0.8-0.6l-0.4-0.5c0,0-0.1,0-0.2,0S15,49.7,15,49.6c0-0.1,0-0.2,0-0.2
	l-0.4-0.7v-0.4l0.1-0.5l0-0.1l0.1-0.9l0.1-0.2l0.2-0.3l0-1.1l0-2.5l0.1-0.8l0.2-0.2l-0.1-0.6l0.2-0.3l-0.1-1l-0.4-1.1l-0.3-0.8h-0.1
	l-0.1,0l0.1,1c0,0,0,0.5,0,0.8s-0.2,0.5-0.2,0.7s-0.1,0.4-0.3,0.5S13.1,41,12.9,41s-0.3-0.1-0.4-0.2s-0.3-0.6-0.3-0.6l0-0.4
	l-0.4-1.1l-0.1-0.5l-0.2-0.2h-0.1c0,0-0.4,0.3-0.7,0.3c-0.2,0.1-0.5,0-0.8,0c-0.3,0-0.5-0.1-0.7-0.3c-0.2-0.2-0.3-0.4-0.4-0.6
	c-0.1-0.2-0.1-0.2-0.2-0.4c-0.1-0.2-0.2-0.7-0.3-1.1c-0.1-0.6-0.1-1-0.1-1.3c0-0.3,0-0.5,0-0.5S7.9,34,7.8,34
	c-0.1,0-0.1-0.1-0.1-0.2c0-0.1,0-0.9,0.1-1.2c0.1-0.5,0.2-1.5,0.2-1.5l0.3-1.8l0.3-1.8l0.4-2.2L9,24.8l0.5-1.4l0-0.3l-0.1-0.5v-0.9
	l-0.1-1.1l-0.1-0.9l-0.2-1.3l-0.1-2.2l-0.4,0.4c0,0-0.2,0.2-0.3,0.3C8.1,17,8,17,7.8,16.8c-0.1-0.1-0.2-0.1-0.4-0.3
	c-0.1-0.1-0.3-0.2-0.3-0.2l-1.1,1L4.8,19l-1.5,2.3c0,0,0.2,0.4,0.2,0.6s-0.1,0.9-0.1,1s-0.1,0.8-0.2,1C3,24,3,24.1,2.9,24.2
	c-0.1,0.1-0.2,0.2-0.2,0.2c-0.1,0.1-0.1,0.1-0.2,0.1c-0.1,0-0.2-0.1-0.3-0.1C2,24.4,2,24.2,2,24.2c0-0.1,0-0.4,0-0.4l-0.1,0.1
	c0,0,0,0.6,0,0.7s0,0.2-0.1,0.2s-0.2,0.1-0.3,0.1c-0.3,0-0.2-0.2-0.4-0.3S0.9,24.2,0.8,24s-0.2-0.9-0.2-0.9s-0.1-0.6-0.1-0.8
	C0.6,22,1.3,21,1.3,21z"/>
<path id="skin-arm-l" class="st1" d="M25,19.8l-0.2,0.7l0,0.2c0,0,0.4,0.6,0.5,0.5s0.1-0.1,0.1-0.2c0-0.1-0.1-0.4-0.1-0.4l0.1-0.2
	c0,0,0.2-0.2,0.3-0.1s0.5,0.1,0.5,0.2s0.2,0.5,0.1,0.6c0,0.1-0.1,0.2-0.2,0.2s-0.4,0.3-0.4,0.3s0,0.1,0.1,0.2s0.5,0,0.5,0l-0.1,0.1
	c0,0-0.3,0.2-0.3,0.3s0.1,0.1,0.2,0.1c0.1,0,0.1-0.1,0.3-0.2c0.2-0.1,0.5-0.7,0.6-0.8s-0.1-0.6-0.1-0.6s-0.2-0.7-0.4-1
	s-0.5-0.6-0.5-0.6l-0.7-1.9l-0.7-1.8l-0.4-0.7l-0.3-0.4l-0.5,0.5l-0.4,0.5L22.7,16l0.2,0.1l0.5,0.4l0.6-0.2l0.1,0.2l-0.1,0.1
	l-0.2,0.2l0,0.2l0.1,0.3l0.5,0.8l0.9,1.3l-0.1,0.2L25,19.8z"/>
<path id="skin-arm-r" class="st1" d="M0.9,23c0,0.1,0.2,0.9,0.2,0.9c0,0.1,0.1,0.1,0.1,0.2s0.1,0.3,0.2,0.3c0.1,0,0.1,0,0.1,0
	s-0.1-0.6,0-0.7c0-0.1,0.1-0.2,0.1-0.3s0-0.2,0.1-0.2s0.4-0.2,0.4-0.1s0.1,0.3,0.1,0.4S2.2,24,2.2,24s0,0.1,0.1,0.1s0.2-0.2,0.3-0.4
	c0.1-0.1,0.2-1,0.3-1.2s0-0.4,0-0.6s-0.2-0.5-0.2-0.5l1.8-2.8l1.3-1.7l1-0.9l-1-1l-0.6-0.6L4.8,15l-0.9,1.3l-2.1,4.6l-0.2,0.4
	c0,0-0.4,0.7-0.5,0.8s-0.2,0.3-0.2,0.5C0.9,22.6,0.9,22.9,0.9,23z"/>
<path id="player-jersey" class="st2" d="M7.2,15.6c0,0,0.5,0.5,0.7,0.6s0.2,0.2,0.4,0c0.2-0.2,0.5-0.5,0.5-0.5l1.1-1.2l0.3-0.2
	l0.4-0.4c0,0,0.2-0.2,0.4-0.2s0.2,0,0.2,0s0.1,0.1,0,0.2c-0.1,0.1-0.2,0.3-0.2,0.3s-0.2,0.2-0.3,0.3s-0.1,0.4-0.1,0.4
	s0.6,0.5,0.6,0.6s0.1,0.2,0,0.2s-0.2,0-0.4,0s-0.5-0.4-0.5-0.4L10,15.1l-0.3,0.3L9.3,16l0.1,0.6l0.1,1.8l0.2,1.6l0.1,1.2l0,0.7
	l0,0.8l0.2,0.5l0.8,0.2l1.7,0.3l2,0.3l1.6,0l1.5-0.2l1.1-0.4l0.2-0.4l0.1-1.5l0-2.1l0.1-2l0.3-2l0.1-0.3c0,0,0-0.3,0.1-0.3
	s0,0,0.1,0.1c0,0.1,0,0.4,0.1,0.5s0.8,0.7,0.8,0.7s0.7,0.6,0.8,0.7s0.1,0.1,0.2,0c0.1-0.1,0.6-0.8,0.6-0.8l1.2-1.3
	c0,0,0.6-0.5,0.6-0.6s0-0.1-0.1-0.3c-0.1-0.1-0.6-0.6-0.6-0.6l-1.7-1.8c0,0-0.5-0.6-0.8-0.9c-0.3-0.3-1-0.8-1.4-0.9
	s-1.2-0.4-1.2-0.4l-0.3,0c0,0-0.1,0.2-0.3,0.6s-1.3,1.8-1.3,1.8l-0.9,1L15,11.7l-0.9-1.1l-0.9-1.9c0,0-0.4-0.1-0.7-0.1
	c-0.3,0-0.5,0.1-0.8,0.1s-0.4,0.1-0.6,0.2s-1,0.2-1.2,0.3C9.6,9.4,9.4,9.5,9.3,9.6s-0.7,0.7-0.7,0.7l-1.2,1.4l-1.1,1.4l-0.4,0.4
	l-0.3,0.4L6,14.4L6.6,15L7.2,15.6z"/>
<path id="skin-leg-r" class="st1" d="M10.1,37.9c0.2,0,0.3,0.1,0.6,0c0.3-0.1,1.4-0.7,1.6-0.9s0.3-0.7,0.4-0.7c0,0,0.1,0,0.2,0
	s0-0.2,0-0.2s-0.2-0.1-0.2,0c-0.1,0.1-0.4,0.6-0.5,0.6s-0.2,0.1-0.2,0c0-0.1,0.3-1,0.4-1.2s0.5-0.4,0.5-0.4l-1.5-0.5
	c0,0-0.4-0.1-0.6-0.2s-0.8-0.1-0.8-0.1l-0.5,0l-0.6,0c0,0-0.1,0.7-0.1,1s0.1,0.6,0.1,1s0.2,0.8,0.3,1s0.3,0.5,0.4,0.6
	C9.7,37.7,9.9,37.8,10.1,37.9z"/>
<polygon class="st0" points="10.6,37.2 10.8,36.9 10.6,36.4 10.5,36 10.2,35.9 10.5,37.1 "/>
<path class="st0" d="M10.8,21c0,0.1,0.4,0.5,0.4,0.5s0.4,0.7,0.6,0.7s0.7,0,1,0.1s0.9,0.6,0.9,0.6s-0.2-0.8-0.4-1
	c-0.2-0.2-0.5-0.5-0.7-0.6s-0.9,0-1.1-0.1S11,20.7,11,20.7s-0.3-0.6-0.4-0.7s-0.1-0.1-0.1-0.1s0,0.1,0,0.2S10.8,21,10.8,21
	S10.7,20.7,10.8,21z"/>
<polygon id="skin-leg-l" class="st1" points="15.1,37.9 15.4,38.9 15.7,39.7 15.8,40.6 16.2,40.8 16.7,41 18,40.8 18.1,40.4 
	18.2,39.9 18.4,39.1 18.6,38 17.2,38 16.6,37.9 "/>
<polygon class="st3" points="16.3,50.2 16.6,50.2 16.1,49.5 16,49.7 "/>
<polygon id="player-sock-l" class="st3" points="15.5,47.2 15.8,47.2 16.6,46.2 17,46.2 17.7,44.2 17.8,43.3 17.7,43.1 17.2,42.8 
	17.1,42.5 17.4,42.4 17.9,42.5 18.3,42.3 18.3,41.6 18.2,41.5 18.1,41.3 17.7,41.4 16.6,41.5 16,41.3 15.8,41.2 15.7,41.3 16.1,42 
	16.1,42.3 15.6,42.3 15.4,43.7 15.4,45.3 15.3,45.5 15.5,46.2 15.4,46.8 15.3,47 15.3,47.1 15.5,47.2 "/>
<path id="skin-face" class="st1" d="M13.6,5.7l0.4,0.8c0,0,0.2,1.1,0.3,1.2s0.2,0.4,0.3,0.5s0.4,0.5,0.4,0.6s0.2,0.1,0.3,0.2
	s0.6,0.1,0.8,0s0.8-0.5,1-0.7c0.2-0.2,0.4-0.4,0.4-0.7s0.3-1,0.3-1l-0.1-0.1l0.2-0.2h0.2c0,0,0.2-0.2,0.3-0.3s0.1-0.4,0.1-0.4V5.4
	l-0.1-0.2c0,0,0,0.3,0,0.4c0,0.1-0.2,0.2-0.2,0.2l-0.1,0V5.6c0,0,0-0.8-0.1-0.9s-0.3-0.8-0.5-0.9s-0.5-0.3-0.5-0.3l-0.4-0.1
	l-0.2-0.1l-0.3,0.1L16,3.3l-0.9-0.1c0,0-0.1,0.1-0.2,0.1s-0.6,0.3-0.6,0.4c0,0.1-0.2,0.4-0.2,0.5s-0.2,0.3-0.2,0.3s0.1,0.1,0,0.2
	s-0.2,0.2-0.2,0.2s-0.1-0.1-0.1-0.2c-0.1-0.1,0-0.2,0-0.2s-0.1,0-0.1,0.1S13.6,5.7,13.6,5.7L13.6,5.7z"/>
<path id="skin-neck" class="st1" d="M14.7,10.6c0.3,0.4,0.8,0.9,0.8,0.9s0.7-0.7,0.8-0.8c0.4-0.5,0.8-1.1,0.9-1.2s0.3-0.6,0.3-0.6
	l-0.2-0.2c0,0-0.7,0.5-0.9,0.7s-0.3,0.2-0.5,0.2c-0.2,0-0.6,0-0.8-0.1c-0.2-0.1-0.5-0.3-0.6-0.5s-0.4-0.7-0.4-0.7l-0.4,0.5
	c0,0,0.1,0.3,0.3,0.8S14.4,10.2,14.7,10.6z"/>
<polygon class="st0" points="17.4,39.3 17.4,39.5 17.6,39.3 17.6,39.1 17.6,39 17.4,39 "/>
<polygon class="st3" points="13.7,40.2 13.2,40.3 12.9,40.4 13.2,40.5 13.6,40.4 "/>
<polygon class="st0" points="15.8,6.9 15.8,6.8 15.7,6.7 15.5,6.8 15.8,6.9 "/>
<path class="st0" d="M17.3,22.5c0,0,0.1-0.2,0.2-0.5c0.1-0.3,0.2-1.8,0.2-2.2c0-0.3-0.1-1.4,0-1.7s0.3-0.9,0.3-1s0.3-0.6,0.4-0.7
	c0.1-0.1,0.1-0.4,0.1-0.4s-0.1,0.1-0.2,0.2s-0.5,0.8-0.6,1.1c-0.1,0.3-0.4,1.3-0.5,1.5s-0.1,0.2-0.1,0.4s0.2,1.6,0.2,1.8
	C17.3,21.2,17.3,22.5,17.3,22.5L17.3,22.5z"/>
<polygon class="st0" points="16.3,6.9 16.4,6.8 16.3,6.7 16,6.8 16.2,7 "/>
<path id="player-shorts" class="st3" d="M8.1,33.4c0,0,0,0.1,0.1,0.1c0.1,0,0.3,0,0.6,0.1c0.2,0,0.8,0.1,1,0.1
	c0.4,0.1,0.8,0.2,1.3,0.3s1.4,0.4,1.8,0.5c0.5,0.2,0.6,0.3,0.7,0.3c0.1-0.1,0.1-0.3,0.2-0.8c0.1-0.5,0.3-1.2,0.3-1.2
	c0.1-0.1,0.2,0,0.2,0.1c0,0.1-0.1,0.5-0.1,0.7s-0.1,0.7-0.1,1.2c0,0.5-0.1,2.3-0.1,2.3s0.1,0.2,0.3,0.2s0.6,0.2,0.6,0.2l1,0
	c0,0,1.6,0.1,2,0.1s0.7,0,1,0s0.5,0,0.6,0c0.1,0,0.1-0.1,0.1-0.1l0-2.1l0.1-2.7l0-1.3v-1.9l0-0.9l-0.3-2.3l-0.2-0.8c0,0,0,0-0.1-0.2
	s-0.3,0-0.3,0s-0.1,0.1-0.3,0.1s-0.5,0.1-0.5,0.1s-0.2,0-0.4,0s-0.2-0.2,0-0.3c0.1-0.1,0.4-0.2,0.4-0.2s0.4-0.1,0.6-0.2
	s0.4-0.2,0.4-0.4S19.1,24.1,19,24s-0.2-0.1-0.4,0s-0.6,0.2-1,0.3c-0.4,0.1-2,0.2-2,0.2s-1.3-0.1-1.7-0.1s-1.7-0.3-2.1-0.4
	s-0.9-0.1-1.2-0.2s-0.4-0.1-0.5-0.1s-0.2,0.1-0.2,0.2c0,0.1-0.1,0.1,0,0.2s0.5,0.2,0.9,0.3s0.8,0.2,1,0.2s0.8,0.2,0.9,0.3
	s0.3,0.1,0.5,0.2s0.2,0.2,0.1,0.3s-0.2,0.1-0.4,0.1c-0.2,0-1-0.2-1-0.2l-1-0.2l-0.4-0.1c0,0,0.2,0.6,0.2,0.9s-0.3,0.9-0.4,1
	s-0.2,0.1-0.2,0s0.2-0.8,0.2-1.1s-0.2-0.9-0.2-0.9s-0.3,0.1-0.4,0.6s-0.4,2.2-0.4,2.2l-0.2,1.8l-0.2,1.4L8.1,33.4z M11.9,28.1
	c0.1-0.1,0.5-0.1,0.6,0s1.2,0.7,1.3,0.8s0.2,0.6,0.3,0.7c0.1,0.1,0.2,0.1,0.2,0s0.1-0.9,0.1-1.1c0-0.2,0.2-0.5,0.3-0.5
	c0.1,0,0.1,0.4,0,0.5s-0.1,0.4,0,0.4c0.1,0,1.5-0.1,1.7-0.1c0.1,0-0.1,0.5-0.2,0.5s-1,0.1-1.2,0.2s-0.6,0.6-0.6,0.9
	s-0.1,0.7-0.1,0.7h-0.1c0,0-0.1-0.7-0.2-0.9c-0.1-0.2-0.7-0.8-1-0.9s-0.5-0.3-0.7-0.4c-0.2-0.1-0.4-0.1-0.5-0.1S11.8,28.2,11.9,28.1
	z"/>
<path class="st0" d="M14.5,4.8l0.2,0.1c0,0-0.1,0.2-0.1,0.3s0.2,0.2,0.4,0.2s0.2-0.2,0.2-0.2l0.1,0L15.4,6l0.1-1l-0.2-0.2l-0.1-0.1
	l-0.7-0.1l-0.2,0.1L14.5,4.8L14.5,4.8L14.5,4.8z"/>
<path class="st0" d="M17,5.3c0.1-0.1,0-0.2,0-0.3s0.2-0.1,0.2-0.1l0.4,0.2l0-0.1l-0.4-0.2l-0.5,0.1L16.3,5l0,0.1
	c0,0,0.2,0.3,0.3,0.3C16.9,5.4,17,5.3,17,5.3z"/>
<polygon class="st0" points="15.5,7.7 15.6,7.7 15.7,7.8 15.6,7.8 15.3,7.8 15.3,7.9 15.5,8 16,8 16.1,7.8 16.2,7.8 16.4,7.7 
	16.6,7.7 16.6,7.5 16.6,7.4 16.5,7.3 15.8,7.4 15.1,7.3 15.1,7.4 15.1,7.6 "/>
<path id="hair" class="st0" d="M13,3.7l0.3-0.5l-0.1-0.5l0.2-0.1l0.1-0.2l0.3-0.5l0.5-0.5l0.4-0.1l0.1-0.1l0.5,0.1l0.6-0.2l0.7-0.1
	L16.5,1l0.8,0.1l0.3,0.4l0.2-0.1l0.3,0.4l0.4,0.4l0.5,1l-0.1,0.1l-0.1,0.6L19,4.2l-0.3,0.2l0,0.5l-0.1-0.2l-0.2,0.1
	c0,0-0.1-0.5-0.2-0.7c-0.1-0.2-0.3-0.5-0.4-0.7c-0.1-0.1-0.6-0.3-0.6-0.3l-0.4-0.1L16.6,3l-0.3,0.1L16.2,3l-1.1-0.1
	c0,0-0.1,0-0.2,0.1c-0.1,0.1-0.7,0.3-0.7,0.4c0,0.1-0.1,0.3-0.2,0.4c-0.1,0.1-0.2,0.4-0.3,0.5c0,0-0.2-0.1-0.2-0.1s-0.3,0.1-0.3,0.4
	c0,0.1,0,0.2-0.1,0.3l-0.1-0.2l0-0.5L13,3.7z"/>
</svg>
