<?xml version="1.0" encoding="utf-8"?>
<!-- Generator: Adobe Illustrator 27.8.0, SVG Export Plug-In . SVG Version: 6.00 Build 0)  -->
<svg version="1.1" id="Ebene_1" xmlns="http://www.w3.org/2000/svg" xmlns:xlink="http://www.w3.org/1999/xlink" x="0px" y="0px"
	 viewBox="0 0 33.1 53.2" style="enable-background:new 0 0 33.1 53.2;" xml:space="preserve">
<style type="text/css">
	.st0{fill:#1A1A18;}
	.st1{fill-rule:evenodd;clip-rule:evenodd;fill:#FBCDAA;}
	.st2{fill:#FBCDAA;}
	.st3{fill-rule:evenodd;clip-rule:evenodd;fill:#D5100E;}
	.st4{fill-rule:evenodd;clip-rule:evenodd;fill:#1A1A18;}
	.st5{fill-rule:evenodd;clip-rule:evenodd;fill:#FFFFFF;}
	.st6{fill:#FFFFFF;}
</style>
<path class="st0" d="M32.7,23.2c0-0.1-0.2-0.5-0.3-0.7c-0.1-0.2-0.4-0.5-0.4-0.5l-0.5-0.6l-0.6-1.1l-1-1.9c0,0-0.7-1.3-1-1.8
	s-1-1.4-1-1.4l-0.3-0.5l0-0.1c0,0-0.6-0.8-0.8-1.1S26,12.4,25.7,12s-0.7-0.8-0.9-1.1s-0.8-1-1.1-1.3S23.2,9.2,22.9,9
	S22.3,8.8,22,8.7c-0.4-0.1-0.6-0.2-0.9-0.3s-0.6-0.1-1-0.1s-0.8-0.1-0.8-0.1v0l-0.2-0.2l-0.1-0.2l0-0.6l0.2-0.5l0.1,0l0.2-0.2
	l0.1-0.4l0.4-0.5V4.8l0-0.7l0.4-0.3l-0.4-0.5l0.1-0.5l0.1-0.1l-0.7-1.2L19.1,1l-0.4-0.4l-0.1,0.1l-0.2-0.3l-0.8-0.1l-0.1-0.1
	l-0.9,0.2l-0.6,0.3l-0.6-0.1l-0.1,0.2L14.8,1l-0.5,0.6L14,2.2L14,2.5l-0.2,0.1L14,3.2l-0.3,0.5L14,4.2l0,0.5l0.4,0.7l0,0.5l0.2,0.4
	l0.3,0.2l0.2,0.8l0,0.5l-0.1,0.4l-0.1,0.1l-1,0.2c0,0-0.7,0.1-0.9,0.2s-0.6,0.2-0.8,0.3S12,9.2,11.8,9.3c-0.6,0.4-1.1,1-1.1,1
	s-0.4,0.5-0.8,1.1c-0.3,0.5-0.5,1.1-0.7,1.4s-0.5,1-0.8,1.4c-0.3,0.4-0.3,0.6-0.3,0.7c0.1,0.1,0.1,0.1,0.1,0.1l-0.8,0.9l-0.6,0.8
	l-0.5,0.6l-1.3,1.5c0,0-2,1.9-2.2,2s-0.7,0.2-0.7,0.2s-0.7,0.4-0.8,0.5S0.9,21.8,0.7,22s-0.3,0.6-0.3,0.8c0,0.2,0,0.4,0,0.4
	s0,0.1,0.2,0.3S1,23.6,1,23.6s0.1,0.2,0.2,0.2s0.2,0,0.2,0s0.1,0.2,0.3,0.3S2,24.1,2,24.1s0.4-0.1,0.5-0.1c0.2,0,0.3-0.2,0.5-0.3
	c0.3-0.1,0.5-0.4,0.5-0.4S4,23,4.2,22.8C4.3,22.5,4.6,22,4.6,22l2-1.5l1.9-1.5c0,0,0.8-0.6,1.2-1.1s1.2-1.3,1.2-1.3l0.2-0.3l0.1,0
	c0,0,0.5,0.2,0.6,0.2c0,0,0.1,0,0.2-0.1c0.2-0.4,0.5-0.8,0.5-0.8s0.1,0.3,0.2,0.7c0.1,0.3,0.3,0.7,0.3,1c0.1,0.6,0.2,1.5,0.3,2.3
	c0.1,0.9,0.1,2.2,0.1,2.2l-0.1,0.7c0,0,0,0.2-0.1,0.3c-0.1,0.1-0.3,0.2-0.3,0.4s0.1,0.4,0.1,0.5s-0.2,0.3-0.4,0.5s-0.6,0.8-0.8,1.2
	s-1.6,2.9-1.6,2.9l-2,4.2L8,33.2l0.1,0.2c0,0-0.1,0.2-0.2,0.5s-0.1,1.2-0.1,1.4s0,0.9,0,0.9s-0.2,0.5-0.2,0.6s-0.1,0.5-0.1,0.7
	c0.1,0.2,0.1,0.4,0.2,0.6C7.9,38.3,8,38.4,8,38.4s0.1,0.5,0.1,0.8s0.3,5.3,0.3,5.3s0,1.4,0,1.7c0,0-0.1,0.1-0.2,0.2
	c0,0.1,0,0.3-0.1,0.4s-0.2,0.3-0.3,0.4c-0.1,0.1-3,0.8-3.2,0.9c-0.2,0.1-0.8,0.5-0.9,0.7c-0.1,0.2,0,0.5,0.1,0.7s0.2,0.2,0.4,0.3
	S4.9,50,4.9,50L5.4,50c0,0,0,0.2,0,0.3s0.3,0,0.4,0S6,50.1,6,50.1l0.9,0.1L8,50.3c0,0,0,0.2,0.1,0.2s0.3,0,0.4,0s0.2-0.2,0.2-0.2
	l1.1,0l0.4,0c0,0,0,0.1,0.1,0.2c0.1,0,0.3,0,0.4,0s0.1-0.2,0.1-0.2s0.5-0.1,0.6-0.1s0-0.3,0-0.4s0.2-0.3,0.2-0.6s0.1-0.5,0.1-0.8
	s-0.3-0.9-0.3-0.9l0.1-1.1c0,0,0.1-0.7,0.1-1c0-0.1,0.1-0.9,0.2-1.5c0.1-0.8,0.1-0.9,0.2-1.5c0.1-0.5,0.1-0.7,0.1-1.1
	c0-0.5,0.1-1,0-1.5s-0.1-0.5-0.1-0.7c-0.1-0.2-0.4-0.8-0.4-0.8c0-0.1,0.3-0.6,0.3-1s-0.1-0.8-0.2-1.2c0,0,0.2-0.5,0.3-0.7
	c0.2-0.2,0.6-0.6,0.6-0.6l1.4,0.4c0,0,0.4,0.1,0.5,0.1s0.2-0.2,0.2-0.2l1.2-2.3l-0.1,1.4l0,1.2c0,0,0,0.2,0.1,0.2s0.7,0.1,0.7,0.1
	s0.1,0.4,0.2,0.7s0.3,1.4,0.3,1.6s0.1,0.4,0,0.6s0,0.3-0.1,0.4c0,0.1,0,0.5,0,0.7c0,0.1,0.1,0.3,0.1,0.4c0,0.1,0,0.2,0,0.6
	c0,0.2,0,0.5,0,0.8c0,0.3,0.1,0.9,0.1,1.2c0.1,0.9,0.2,1.5,0.2,2s0.2,1.4,0.2,1.9c0,0.5,0.2,1.5,0.1,1.6s-0.1,0.3-0.1,0.3
	s-0.1,0-0.1,0.2c0,0.2,0,0.7,0,0.7s-0.3,0.8-0.3,1c0,0.1-0.2,0.7-0.3,1c0,0.3,0,0.7,0.1,0.9c0,0.1,0.1,0.3,0.2,0.4
	c0.1,0.1,0.3,0.2,0.3,0.2s0,0.2,0.1,0.2s0.3,0,0.4,0s0.1-0.2,0.1-0.2l1,0c0,0,0.1,0.1,0.1,0.2c0,0,0.3,0,0.4,0c0,0,0.1-0.2,0.1-0.2
	s0.1-0.1,0.2-0.1c0.1-0.1,0.2-0.2,0.2-0.2s0.1-0.5,0.2-0.9c0-0.4,0-1.2,0-1.2l0-0.5c0,0,0-0.2,0.1-0.4s-0.1-0.3-0.1-0.3s0-0.5,0-0.6
	c0-0.1-0.1-0.4-0.1-0.4v-0.6c0,0,0.2-1.6,0.3-2.3s0.2-2.5,0.2-3s0-1.6,0-1.9s-0.2-0.5-0.2-0.6s0.1-0.2,0.1-0.4c0.1-0.3,0-0.6,0-0.7
	c0-0.2-0.2-0.3-0.2-0.4c0-0.1,0.1-0.6,0.2-0.9c0.1-0.3,0.5-1.2,0.5-1.2s0.4,0,0.6,0s0.2,0,0.2-0.2s0-0.8,0-0.8l0.2-7.5l0.2-0.8
	l0.1-1.2l0-0.9l0-0.5c0,0-0.1-0.6-0.2-0.8s-0.1-0.5-0.1-0.5l0-0.4l0.1-1l0.4-2.5c0,0,0.2-0.9,0.2-1.3s0.2-1,0.2-1l0.6,0.8
	c0,0,0.1,0.1,0.2,0.2c0.1,0.1,0.1,0.2,0.3,0.1s0.7-0.5,0.8-0.6s0.6,0.4,0.8,0.6s1.8,2.5,2.1,2.9c0.3,0.4,1.1,1.7,1.1,1.7l0,0.9
	c0,0,0,0.4,0.1,0.6s0.2,0.7,0.2,0.7s0.1,0.2,0.2,0.4c0.1,0.1,0.3,0.3,0.5,0.4c0.1,0,0.2,0.1,0.5,0.1c0.1,0,0.3,0.1,0.4,0.2
	c0.2,0,0.4,0,0.4,0c0.2,0,0.4-0.2,0.4-0.2s0.1-0.3,0.1-0.3s0.1,0,0.2-0.1c0.1-0.1,0.2-0.3,0.2-0.3s0-0.1,0.1-0.2
	c0.1-0.1,0.2-0.4,0.2-0.7S32.7,23.4,32.7,23.2z"/>
<path id="skin-arm-r" class="st1" d="M1.1,22.2c0,0,0.3-0.3,0.4-0.4s0.5-0.4,0.7-0.5S3,21.2,3,21.2l0.4-0.4c0,0,1.4-1.2,2-1.9
	c0.5-0.6,1.6-1.9,1.6-1.9l0.8-1l0.7-0.8c0,0,0.7,0.4,1,0.6c0.5,0.3,1,0.5,1,0.5s-0.4,0.6-0.6,0.9s-0.7,0.7-0.8,0.9s-0.5,0.4-0.5,0.4
	l-4.3,3.3L4.1,22l-0.2,0.4l-0.4,0.5c0,0-0.5,0.3-0.5,0.4s-0.1,0-0.1,0s-0.1-0.3-0.2-0.4c-0.1-0.1-0.4-0.3-0.5-0.3s0.3-0.2,0.3-0.2
	s0.6-0.2,0.6-0.3s-0.1-0.2-0.2-0.1s-0.2,0-0.2,0S2.7,22,2.5,22.1s-0.7,0-0.7,0s-0.3,0.3-0.5,0.3s-0.3,0.1-0.4,0
	C0.9,22.4,1.1,22.2,1.1,22.2z"/>
<path id="skin-arm-r-3" class="st2" d="M1.1,23.1c0,0,0.5-0.2,0.6-0.2c0.1-0.1,0.2-0.2,0.2-0.3s-0.1-0.1-0.1-0.1s-0.2,0.1-0.3,0.1
	s-0.2,0.1-0.4,0.1c-0.1,0-0.2,0.1-0.2,0.1s0,0.1,0,0.1S1.1,23.1,1.1,23.1z"/>
<path id="skin-arm-r-2" class="st2" d="M1.9,23.4l0.3-0.2c0,0,0.1-0.1,0-0.2c-0.1,0-0.2,0-0.2,0l-0.2,0.2l-0.3,0.1l-0.1,0.1
	c0,0,0,0,0,0.1s0.1,0.1,0.1,0.1L1.9,23.4z"/>
<path id="skin-arm-r-1" class="st2" d="M2,23.5l0.3-0.1l0.2-0.2c0,0,0.1,0,0.2,0s0,0.2,0,0.2l-0.2,0.2c0,0-0.2,0.1-0.3,0.1
	S1.9,23.6,2,23.5L2,23.5L2,23.5z"/>
<path id="skin-arm-l" class="st1" d="M32.1,24.4c0,0,0,0.1-0.1,0.2s-0.1,0.1-0.1,0.1v-0.1l-0.1-0.3l0-0.2c0,0-0.1-0.2,0-0.2
	c0,0-0.1,0-0.1,0.1c0,0.1,0.1,0.5,0.1,0.5l0,0.4c0,0,0,0.2-0.1,0.3s-0.2,0-0.3,0C31.3,25,31.3,25,31.3,25s0.2-0.2,0.2-0.2
	c0,0-0.1-0.4-0.1-0.4s-0.1-0.2-0.2-0.3c-0.1-0.1-0.4-0.4-0.5-0.4s-0.1,0.1-0.1,0.1s0.1,0.6,0.1,0.5c0-0.1,0.1,0.3,0.1,0.3
	s0.1,0.2,0,0.2s-0.3-0.1-0.3-0.1s-0.3-0.2-0.3-0.4s-0.3-1-0.3-1.2s0.1-1,0.1-1l-0.4-0.7l-2.9-4.1l-0.7-0.6l0.8-0.7l0.7-0.9L28,16
	l1.2,1.9l1.9,3.8l0.2,0.3c0,0,0.6,0.6,0.7,0.8c0.1,0.1,0.2,0.4,0.2,0.4s0.1,0.2,0.1,0.3c0,0.1,0.1,0.3,0.1,0.4s0,0.1,0,0.2
	c0,0-0.1,0.2-0.1,0.2l-0.1-0.5c0,0,0-0.1-0.1-0.1c0,0-0.1,0-0.1,0c0,0,0.1,0.5,0.1,0.5L32.1,24.4z"/>
<path id="player-jersey" class="st3" d="M25.4,16.4c-0.2,0.2-0.5,0.4-0.8,0.5c-0.1,0-0.2,0-0.2,0c-0.1-0.1-0.3-0.4-0.5-0.6
	c-0.2-0.3-0.5-0.6-0.5-0.7c-0.2-0.2-0.4-0.6-0.5-0.8s-0.2-0.3-0.3-0.4c-0.1-0.1-0.2-0.6-0.4-0.7s-0.6-0.3-0.7-0.4
	c-0.1-0.1-0.2-0.2-0.3-0.3c-0.1-0.1-0.2-0.1-0.2,0c0,0.1-0.1,0.1,0,0.2c0.1,0.1,0.5,0.3,0.6,0.4c0.1,0.1,0.4,0.3,0.5,0.4
	c0.1,0.1,0.1,0.2,0.1,0.4s-0.7,0.7-0.8,0.8s-0.1,0.2,0,0.2c0.1,0,0.2,0.1,0.4,0s0.6-0.6,0.6-0.6l0.4,0.1l0.4,0.6l0.2,0.5
	c0,0-0.1,0.2-0.1,0.4c0,0.1-0.1,0.4-0.2,0.8c-0.1,0.4-0.2,1-0.2,1.2c-0.1,0.4-0.1,0.8-0.2,1.2s-0.1,1-0.2,1.3s-0.1,0.7-0.1,1
	c0,0.2-0.1,0.5-0.1,0.5c-0.1,0-0.1,0-0.5,0.1s-1.5,0.2-2,0.3c-0.5,0.1-1.3,0.1-1.7,0.1c-0.4,0-0.9,0-1.3-0.1s-1.2-0.2-1.6-0.3
	s-0.7-0.2-0.8-0.2c-0.2,0-0.2-0.1-0.2-0.3s0-0.8,0-0.8s0-0.8-0.1-1.7c-0.1-1.1-0.3-2.3-0.3-2.5C13.4,17,13,16,13,15.6
	s-0.2-0.9-0.3-1.2s-0.2-0.5-0.2-0.7c-0.1-0.4-0.1-1.1-0.2-0.9s-0.1,0.8-0.1,1s0.1,0.4,0.1,0.7s0,0.7,0,0.7s-0.4,0.6-0.5,0.8
	c-0.1,0.2-0.1,0.2-0.3,0.1c-0.2-0.1-0.9-0.4-0.9-0.4L9.3,15c0,0-0.4-0.3-0.6-0.4s0-0.3,0-0.3L9,13.9c0,0,0.9-1.9,1.2-2.3
	s0.9-1.3,1.1-1.5s0.5-0.4,0.7-0.5s0.4-0.3,0.7-0.4s0.4-0.2,0.7-0.2c0.2,0,0.3-0.1,0.7-0.1s1-0.1,1-0.1l0.6,1.2l0.6,1.1l0.8,1.3
	l0.8-1.1c0,0,0.2-0.4,0.5-0.8s1.1-1.7,1.1-1.7s0.4-0.1,0.7,0s0.6,0.1,0.9,0.1s0.5,0.1,0.8,0.2c0.4,0.1,0.7,0.2,1,0.4s1,0.8,1.4,1.2
	s1.6,1.9,1.9,2.2s1.2,1.6,1.2,1.6s0,0.2-0.1,0.3s-0.4,0.5-0.6,0.7S25.6,16.2,25.4,16.4z"/>
<path class="st4" d="M20.8,20.9c0,0-0.1-0.2-0.1-0.5s0.2-0.9,0.3-1.2c0.1-0.4,0-1-0.1-1.1c0-0.1-0.1-0.2,0-0.2c0.1,0,0.4,0,0.5,0.1
	c0.1,0.2,0,0.4,0,0.6c0,0.3-0.4,1.7-0.4,1.9C20.9,20.7,20.8,20.9,20.8,20.9z"/>
<path class="st4" d="M15.1,22.2c-0.1,0-0.1-0.4-0.2-0.5s-0.1-2.2-0.1-2.2s0.2-1.3,0.1-1.7s-0.2-0.6-0.3-1s-0.3-0.6-0.3-0.7
	s-0.1-0.4-0.1-0.4s0.1,0.1,0.2,0.3c0.1,0.1,0.4,0.8,0.5,1.1s0.2,0.6,0.3,0.9s0.2,0.7,0.2,0.9s-0.2,1.3-0.2,1.8S15.1,22.2,15.1,22.2
	S15.2,22.2,15.1,22.2z"/>
<polygon class="st5" points="19.3,52.2 18.8,52 18.2,52.2 18.5,52.4 19.1,52.4 "/>
<polygon id="skin-leg-l" class="st2" points="17.7,38.2 18.7,38.2 19.5,38.2 20.2,38.1 20.3,37.7 20.6,36.9 20.9,36 18.8,36 
	17.2,35.9 17.3,36.5 17.4,37.1 17.6,37.7 "/>
<path class="st4" d="M18.6,37.3c0.1,0,0.3,0,0.4,0s0-0.2,0-0.2s-0.5,0-0.6,0c-0.1,0-0.1,0.1,0,0.2S18.6,37.3,18.6,37.3
	S18.5,37.3,18.6,37.3z"/>
<path id="player-sock-l" class="st5" d="M17.6,39.7c0.1,0.2,0.5,0.2,0.6,0.3s0.1,0.1,0,0.2c-0.1,0.1-0.4,0.2-0.5,0.3
	c0,0.1,0,1,0,1.3c0,0.3,0.4,4,0.5,4.2s0.1,0.9,0.1,1.3s0.1,0.9,0.1,0.9s-0.1,0.5-0.1,0.6s0,0.3,0.1,0.3c0.1,0,0.5-0.4,0.6-0.5
	s0.3,0.2,0.4,0.2s0.2,0.2,0.3,0.3c0.1,0,0.2-0.1,0.3-0.1c0.1,0,0-0.1,0.1-0.3c0-0.2-0.1-0.5-0.1-0.5c0,0,0.1-0.1,0.1-0.2
	c0-0.1,0-0.4,0-0.6s0.1-1.1,0.1-1.1s0.3-3.3,0.3-4s0-1.9,0-2c0-0.1,0-0.2,0-0.3c-0.1-0.1-0.2,0-0.4,0c-0.1,0-0.3-0.1-0.3-0.1
	c0,0,0-0.1,0-0.2c0-0.1,0.3-0.3,0.5-0.4s0.1-0.3,0.1-0.5c0-0.3-0.1-0.3-0.1-0.4c0,0-0.2,0-0.4,0s-0.3,0.1-0.6,0.1
	c-0.3,0-0.8,0-1.1,0c-0.3,0-0.5-0.1-0.6,0c-0.1,0.1-0.1,0.1-0.1,0.2c0,0.1,0,0.3-0.1,0.4C17.5,39.5,17.5,39.6,17.6,39.7z"/>
<path id="player-shorts" class="st5" d="M14.1,34.9C14.2,34.9,14.2,34.9,14.1,34.9c0.3-0.5,0.9-1.7,0.9-1.7l0.8-1.4l0-1.9
	c0,0,0.1-0.5,0-0.6s-0.8-0.7-1-0.7s-0.3-0.1-0.3-0.2s0.5,0,0.6,0c0.2,0,0.4,0.2,0.5,0.3s0.3,0.2,0.4,0.2s-0.1-0.9-0.2-1
	s0.4-0.6,0.5-0.6c0.1,0,0,1.2,0,1.3s0.7,0.1,0.7,0.1c0,0,0,0.2-0.1,0.3c-0.1,0.1-0.4,0.5-0.5,0.5s-0.2,0.1-0.3,0.2
	c0,0.1-0.1,3.7-0.1,3.7l0,1.9c0,0,0,0.1,0,0.1s1.5,0.1,2,0.2s1.3,0,1.7,0.1c0.5,0,1.1,0,1.1,0s0.6,0,0.7,0c0,0,0.1,0,0.1-0.1
	s0-0.3,0-0.3l0-2.8c0,0,0.1-3.8,0.1-4.1c0-0.3,0.1-0.5,0-0.5s-0.6,0.2-0.7,0.1c-0.1,0-0.2-0.1-0.2-0.2c0-0.1,0.1-0.1,0.2-0.1
	c0.3-0.1,0.7-0.4,0.8-0.5s0.1-0.3,0.1-0.4c0-0.1,0.1-0.5,0.1-0.8c0-0.2,0-0.4,0-0.5s0-0.4-0.1-0.6c0-0.1-0.1-0.2-0.2-0.2
	c-0.2,0-0.8,0.1-1,0s-0.7-0.3-0.6-0.3s1-0.2,1.2-0.2s0.5,0.1,0.5,0.1c0-0.1-0.1-0.9-0.2-0.9c-0.1,0-0.3,0-0.5,0s-0.5,0.1-0.8,0.1
	c-0.2,0-0.5,0.1-1.2,0.2c-0.6,0.1-1.8,0.2-2.1,0.1s-2.2-0.3-2.5-0.4S13.8,23,13.7,23s-0.2,0.1-0.2,0.2s0,0.3,0.1,0.3
	c0.3,0,0.8,0,0.8,0.1c0,0.1-0.5,0.2-0.7,0.2s-0.4,0.1-0.6,0.4s-1,1.5-1.3,1.9s-0.7,1.4-1,1.9c-0.3,0.5-0.8,1.5-1,1.9s-0.9,1.9-1,2.1
	c-0.1,0.2-0.4,0.9-0.4,0.9s0,0.1,0.1,0.2s1.9,0.6,1.9,0.6l2.5,0.8C13,34.6,14.1,34.9,14.1,34.9z"/>
<polygon class="st5" points="7.6,49.8 7.6,49.7 7.8,49.7 8.2,49.7 8.6,49.9 7.9,49.9 7.8,49.9 "/>
<path id="player-sock-r" class="st6" d="M8.8,44.2c0-0.4-0.1-2.3-0.1-2.8s-0.2-2.2-0.2-2.2s0-0.3,0.1-0.4s0.2-0.2,0.3-0.3
	s-0.2-0.2-0.4-0.3s-0.2-0.5-0.2-0.5s-0.1-0.3-0.1-0.5s0.1-0.5,0.3-0.5c0.1,0,0.7,0,1.2,0s1.4,0,1.5,0s0.2,0.1,0.2,0.2
	c0,0.1,0.1,0.4,0.1,0.6s0,0.4-0.1,0.6s-0.6,0.3-0.6,0.4s0,0.2,0.1,0.3c0.1,0,0.3,0,0.4,0s0.3,0.6,0.4,0.9s0.1,0.5,0.1,0.7
	c0,0.2,0,0.4,0,0.7c0,0.3,0,0.6-0.1,0.9s-0.4,2.6-0.4,2.6L11,46.1l-0.1,1.1c0,0,0,0.1-0.1,0.2c-0.2,0-0.8,0.3-1.1,0.3
	s-0.9-0.5-0.9-0.5s0.1-0.2,0.1-0.5C8.9,46.3,8.9,44.6,8.8,44.2z"/>
<polygon id="skin-leg-r" class="st2" points="11.7,35 11.4,35.5 11.1,36.1 9.7,36.1 8.4,36.1 8.4,34.9 8.4,34.1 8.6,33.6 10.4,34.2 
	11.3,34.5 11.9,34.8 "/>
<path class="st0" d="M8.9,35.1c-0.1-0.1-0.1-0.4-0.1-0.4l0-0.2c0,0,0.2,0.2,0.3,0.3s0.4,0.3,0.4,0.3S9,35.2,8.9,35.1z"/>
<path id="skin-face" class="st1" d="M14.8,5.6l0.4,0.8c0,0,0.3,0.9,0.4,1.1s0.5,0.9,0.8,1.1c0.2,0.1,0.2,0.1,0.3,0.1
	c0.1,0,0.5,0,0.8,0s0.7-0.5,0.9-0.8s0.4-0.7,0.4-0.7s0.3-0.9,0.3-1c0-0.1-0.1,0-0.1-0.1s0.1-0.2,0.2-0.3c0.1,0,0.2,0,0.2,0
	s0.1-0.1,0.2-0.3s0.2-0.5,0.2-0.5l0-0.1c0,0-0.2-0.2-0.1-0.2c0.1,0,0.1,0.3,0,0.4s-0.2,0.3-0.2,0.3l-0.1,0l0-0.2l-0.2-0.9L19,3.8
	l-0.3-0.4l-0.6-0.2l-0.4-0.1l-0.2,0l-0.3,0.1L17.1,3l-0.8,0L16,3.1l-0.5,0.4L15.2,4l-0.2,0.3l0,0.2l-0.2,0.3l-0.1-0.2l0-0.1l-0.1,0
	l0,0.1L14.8,5.6L14.8,5.6z"/>
<path id="skin-neck" class="st1" d="M17.9,10.3c0.3-0.4,1-1.6,1-1.6l-0.2-0.1l0-0.4c0,0-0.4,0.4-0.7,0.6s-0.5,0.4-0.6,0.4
	c-0.2,0-0.6,0.1-0.9,0S16.2,8.9,16,8.8s-0.3-0.5-0.3-0.5l-0.1,0.5l-0.1,0.1c0,0,0.3,0.7,0.4,0.9s0.5,0.9,0.5,0.9l0.6,1.1
	C17,11.6,17.6,10.7,17.9,10.3z"/>
<polygon class="st4" points="17.1,6.7 17.1,6.5 17,6.5 16.8,6.6 17,6.7 "/>
<polygon class="st4" points="17.6,6.6 17.7,6.5 17.5,6.4 17.3,6.6 17.5,6.7 "/>
<path class="st4" d="M15.7,4.7l0.1,0.1c0,0-0.1,0.2,0,0.3s0.3,0.2,0.4,0.1s0.2-0.2,0.2-0.2l0.1,0l0.2,0.8l0-1c0,0-0.1-0.3-0.2-0.3
	c-0.1,0-0.6-0.1-0.7,0s-0.2,0.1-0.2,0.1l0.1,0.1L15.7,4.7L15.7,4.7z"/>
<path class="st4" d="M18.2,4.7c0,0,0.1-0.2,0.2-0.1c0.1,0,0.4,0.1,0.4,0.1l-0.1-0.1c0,0-0.3-0.2-0.4-0.2c-0.2,0-0.5,0.1-0.5,0.1
	s-0.3,0.1-0.4,0.2s0,0.2,0,0.2s0.2,0.2,0.3,0.3s0.3,0,0.4-0.1C18.3,4.8,18.2,4.7,18.2,4.7z"/>
<polygon class="st4" points="17,7.4 17,7.5 17,7.5 16.8,7.6 16.7,7.7 16.9,7.8 17.3,7.8 17.4,7.5 17.5,7.4 17.9,7.2 18,7.1 18,7.1 
	17.8,7.1 17.2,7.2 16.5,7.2 16.4,7.2 16.7,7.3 "/>
<path id="hair" class="st4" d="M14.1,3.7l0.2-0.4l-0.2-0.5l0.2-0.1l0.1-0.4l0.2-0.5L15,1.2l0.4-0.1L15.5,1L16,1l0.6-0.2l0.7-0.2
	l0.1,0.1l0.8,0.1L18.6,1l0.1-0.1L19,1.3l0.4,0.3l0.6,1l-0.1,0.1l-0.1,0.6l0.3,0.4l-0.3,0.2l0,0.6l-0.1-0.2l-0.2,0.1
	c0,0-0.1-0.5-0.2-0.6c-0.1-0.2-0.3-0.6-0.5-0.7c-0.1-0.1-0.7-0.3-0.7-0.3l-0.4-0.1l-0.2,0l-0.2,0.1l-0.2-0.2l-1,0
	c0,0-0.1,0.1-0.2,0.1c-0.1,0.1-0.7,0.3-0.7,0.4c0,0.1-0.1,0.3-0.2,0.4c-0.1,0.1-0.2,0.4-0.3,0.5c0,0-0.2-0.1-0.2-0.1
	s-0.3,0.2-0.3,0.4c0,0.1,0,0.2,0,0.3l-0.1-0.2l0-0.5L14.1,3.7z"/>
</svg>
