<?xml version="1.0" encoding="utf-8"?>
<!-- Generator: Adobe Illustrator 27.8.0, SVG Export Plug-In . SVG Version: 6.00 Build 0)  -->
<svg version="1.1" id="Ebene_1" xmlns="http://www.w3.org/2000/svg" xmlns:xlink="http://www.w3.org/1999/xlink" x="0px" y="0px"
	 viewBox="0 0 28.2 50" style="enable-background:new 0 0 28.2 50;" xml:space="preserve">
<style type="text/css">
	.st0{fill-rule:evenodd;clip-rule:evenodd;fill:#1A1A18;}
	.st1{fill:#FBCDAA;}
	.st2{fill-rule:evenodd;clip-rule:evenodd;fill:#FFFFFF;}
	.st3{fill-rule:evenodd;clip-rule:evenodd;fill:#D5100E;}
	.st4{fill-rule:evenodd;clip-rule:evenodd;fill:#FBCDAA;}
</style>
<path class="st0" d="M27,21.2c0-0.1-1.1-1.5-1.1-1.5l-0.3-1L25,16.4l-0.5-1.7l0.1-0.1l0-0.3l-0.1-0.8l-0.2-0.9c0,0,0.1-0.6,0-0.9
	s-0.3-1.7-0.4-1.9c-0.1-0.1-0.2-0.4-0.4-0.6c-0.2-0.2-0.4-0.4-0.5-0.5c-0.2-0.2-0.6-0.4-0.9-0.5S21.5,8,21.5,8h-0.4L21,8l0-0.3
	l0.7-2.2l0.1-0.3L22,4.8l0.4-1l-0.2-0.7l0.1-0.7l-0.5-0.8l-0.5-0.4L21,0.9l-0.8,0L20,0.6l-0.7-0.1l-1.1-0.2l0,0.1L17,0.9l-0.2,0.3
	l-0.4,0L15.8,2l-0.7,1.6l0.2,0.1l0.1,0.4l-0.2,0.6l0.2,0.2l0.1,0.2l0.1,0.5L16,6.2l0.4,0.8l0.2,0.4l-0.1,0.8l-0.1,0.1l-0.3,0.1
	l-1,0.4c0,0-1.1,0.5-1.4,0.7c-0.3,0.2-1,0.7-1.3,1.1s-1,1.8-1,1.8l-0.8,2l-0.6,1.9l-0.2,0.5l0.4,0.2c0,0-0.3,1-0.3,1.3
	s-0.1,0.7,0.1,1.1c0.1,0.4,0.4,0.7,0.6,0.9c0.3,0.1,1.2,0.5,1.2,0.5l1.1,0.4c0,0-0.2,0.3-0.3,0.5c-0.1,0.2,0,0.6-0.1,0.6
	c-0.1,0-0.2,0.1-0.2,0.1s-0.1,0.2-0.2,0.4S11.5,24,11.5,24l-0.4,1.1l-0.6,1.8l-1,2.5l-1.2,3.4c0,0,0,0.1,0.1,0.2s0.1,0.1,0.1,0.1
	l0,0l-0.1,0.3l-0.3,1.1l-0.3,1.1l-0.2,0.6l-0.2,0.2c0,0-0.2,0.3-0.4,0.5c-0.1,0.2-0.3,0.6-0.3,0.6S6.6,38,6.6,38.1s0.1,0.4,0,0.5
	s-0.2,0.3-0.2,0.3L6,39.8l-0.7,1.8l-0.5,1.3l-0.6,1.4c0,0-0.2-0.1-0.2,0c-0.1,0.1-0.3,0.8-0.3,0.8l-0.9,1l-0.5,0.7l-1.2,1.1
	c0,0-0.4,0.3-0.4,0.6s-0.1,0.4,0.2,0.6c0.1,0.1,0.3,0.2,0.6,0.3c0,0,0.1,0.2,0.2,0.2s0.2,0,0.2,0S2,49.6,2,49.6c0.2,0,0.3,0,0.3,0
	l0.2,0l0.2-0.1c0,0,0,0.1,0.1,0.2s0.3-0.1,0.4-0.1c0.1-0.1,0.1-0.2,0.1-0.2l1.3-0.7L5,48.4c0,0,0.2,0.1,0.2,0.1s0.2-0.1,0.3-0.1
	s0-0.2,0-0.2L5.7,48L5.9,48C5.9,48,6,48,6,48.1s0.2,0,0.2-0.1c0.1,0,0.1-0.2,0.1-0.2l0.5-0.3c0,0,0.2-0.2,0.2-0.3s-0.1-0.6-0.1-0.8
	s0-0.7,0.1-0.7c0-0.1-0.1-0.5-0.1-0.5c0-0.1,0.2-0.6,0.4-0.8C7.4,44,8,43,8.1,42.6C8.3,42.3,9,41.2,9,41.2l0.1-0.4
	c0,0,0.1-0.5,0.1-0.6c0,0,0-0.1,0.1-0.2c0.2-0.1,0.5-0.3,0.5-0.3s0.2-0.1,0.3-0.3s0.2-0.5,0.2-0.5l0.2-0.7l0.1-0.3l0.8-1.3l1.3-1.5
	l0.4-0.3c0,0,0.8,0.1,1,0.2c0.2,0,0.5,0.1,0.6,0c0.1-0.1,0.5-1.2,0.5-1.2l0.6-1.5l0.8-2.2l0.3,1.5l0.4,2.1l0.1,0.5l0.1,0.1l0.2,0.1
	l0,0.2c0,0-0.3,0-0.5,0.1c-0.2,0.1-0.6,0.4-0.7,0.5s-0.2,0-0.5,0.1S15.3,35,15,35.1c-0.3,0.1-0.5,0.4-0.9,0.7s-1,0.8-1,0.8l-0.2,0.2
	c0,0-0.4-0.2-0.5-0.2c-0.1,0-0.1-0.1-0.2,0c-0.1,0.1-0.3,0.2-0.4,0.3s-0.3,0.4-0.3,0.5c0,0.2-0.2,0.9-0.2,0.9s-0.2,0-0.3,0.1
	c-0.1,0-0.1,0.2-0.1,0.3c0,0.1,0.2,0.3,0.2,0.3l-0.5,1.8l-0.1,0.3c0,0-0.2,0.1-0.2,0.1c0,0.1-0.1,0.3-0.1,0.3
	c-0.1,0,0.2,0.2,0.2,0.2v0.4c0,0-0.2,0-0.2,0.1s0,0.4,0,0.4c0,0,0.2,0.1,0.2,0.1l0,0.5c0,0,0.1,0.3,0.2,0.5c0.1,0.2,0.4,0.4,0.7,0.4
	s0.5-0.2,0.6-0.4s0.5-1.1,0.7-1.5s1.1-2.2,1.1-2.2l0.2-0.5l0.5-0.3l0.2-0.4l1.6-0.5l1.3-0.5c0,0,0.3,0.1,0.5,0.2s0.8,0,1-0.1
	c0.3-0.1,0.5-0.2,0.6-0.3s0.2-0.4,0.2-0.4l0.5-0.2l1.4-0.8l0.9-0.5l0.4-0.5l0.3-0.7l0.1-0.7l0.1-0.8c0,0,0.2,0,0.4-0.1
	c0.1,0,0.1-0.1,0.1-0.3s-0.1-0.5-0.2-0.8s-0.1-0.4-0.2-0.9s-0.4-1.8-0.5-2.3s-0.5-2-0.5-2l-0.4-1.7c0,0-0.2-1-0.4-1.5
	s-0.3-0.8-0.3-0.8l0-0.2l0-0.3l-0.2-0.6l0.3-1.8l0.5-2l0.3-0.7l0.1-0.2l0.8,1.6c0,0,0.8,1.6,0.8,1.8c0,0.2,0,0.8,0,0.8l0,0.7
	l0.1,0.4l0.5,1c0,0,0.3,0.4,0.4,0.5s0.4,0.2,0.4,0.2l0.2,0c0,0,0.3,0.4,0.4,0.5s0.3,0,0.3,0l0.4-0.2c0,0,0.2,0,0.4-0.1
	c0.1-0.1,0.2-0.3,0.2-0.3s0.1-1,0.1-1.1C27.5,22.3,27.1,21.4,27,21.2z"/>
<polygon id="skin-arm-l" class="st1" points="23,15.4 24.2,14.9 25.5,19.5 25.7,20 25.8,20.2 26.7,21.4 27.1,22.5 27,23.5 
	26.8,23.5 26.7,23.3 26.7,22.8 26.7,22.7 26.6,23.4 26.5,23.7 26.4,23.8 26.2,23.6 26.2,22.6 26.1,22.1 26,22.1 25.9,22 25.6,21.8 
	25.4,21.9 25.4,22.3 25.6,22.9 25.6,23.1 25.3,23.1 25,22.4 24.5,21.6 24.5,20.9 24.6,20.4 24.5,19.9 22.7,16.2 "/>
<polygon class="st2" points="2,48.4 1.3,48.6 1.7,48.7 2.3,48.6 "/>
<path id="player-jersey" class="st3" d="M10.5,16.4l0.8,0.4l0.7,0.2l0.9,0.3l0.6,0.2l0.5-1l0.6-1.2l0.4-0.8l0.2-0.1l0,0.5l-0.4,1
	l0.1,0.4l0.4,0.3l1,0.6l-0.8,0.1l-0.9-0.4L14.3,17l-0.6,1.1l-0.2,0l-0.3,0.3l1.3,0.6c0,0,1.2,0.6,1.3,0.6s0.6-0.3,0.8-0.3
	s1.4,0.1,1.6,0.1c0.2,0,0.3,0.1,0.4,0.2c0.1,0.1,0.2,0.3,0.2,0.3l0,0.4l0.5,0.1l0.5,0.1c0,0,0.2,0.1,0.3,0.2
	c0.1,0.1,0.2,0.5,0.2,0.5l0.1,0.4l0.4,0l0.1-0.9l0.3-1.2l0.3-1.4l-0.1-0.3l-1.2-0.3l0.8-0.1l0.5-0.2l0.3-0.4l0.9-1.9l0.2-0.8
	l0.2-0.1l0.2,0.1l-0.1,0.8l1-0.5l0-0.8l-0.1-0.4l-0.1-0.5c0,0,0.1-0.6,0.1-0.9s-0.2-1.4-0.4-1.8c-0.1-0.4-0.4-0.7-0.5-0.8
	c-0.2-0.1-0.4-0.2-0.5-0.3s-0.4-0.2-0.5-0.2s-0.5-0.1-0.7-0.1s-0.6,0.1-0.6,0.1l-0.3,1.5L20,11.4l-0.5,0.9l-0.6-0.5L18,10.9
	l-0.5-0.6l-1-1.5l-0.2-0.1L15.7,9L15,9.3c0,0-0.6,0.2-1,0.4c-0.4,0.2-1,0.7-1.1,1s-0.6,0.9-0.6,0.9L11.7,13l-0.8,2.1L10.5,16.4z"/>
<path id="skin-arm-r" class="st4" d="M10.7,19.6c0.1,0.1,1,0.5,1,0.5l3.7,1.4L16,22l1,0.3l1.3,0.1l0.2-0.1l0-0.1l-0.7-0.1l-0.5-0.1
	l0.1-0.1l0.9,0.1l0.7,0.1h0.3l0.2-0.1L19.5,22l-0.8-0.1l-0.4-0.1l-0.4-0.1l0.1-0.1l1.3,0.2l0.6,0l0.1-0.1l0-0.2l-0.9-0.1l-0.7-0.1
	l-0.4-0.1l0-0.2l0.2,0l0.8,0.1l0.9,0V21l-0.1-0.2l-0.9-0.2l-1.2-0.3l-0.3-0.2l0.1-0.1l0.9,0l0-0.2l-0.2-0.1l-1,0l-0.5,0
	c0,0-0.8,0.4-0.9,0.4c-0.2,0-2.6-1.3-2.6-1.3l-0.7-0.4l0.5-0.7l-0.7-0.2l-0.8-0.2l-1-0.3c0,0-0.1,0.5-0.2,0.8
	c-0.1,0.3-0.2,0.9,0,1.2C10.4,19.3,10.5,19.5,10.7,19.6z"/>
<path id="player-sock-r" class="st2" d="M6.7,39.3c-0.1,0.2-1.9,5.1-1.9,5.1l0.4,0.2l0,0.3l0,0.6l0.8,0.2L6.5,45l0.5-1l1.3-2.3
	l0.4-0.9l0-0.8l-0.1-0.3l0.1-0.2c0,0,0.3,0,0.5-0.1s0.2-0.1,0.4-0.2s0.4-0.5,0.4-0.5s0.2-0.5,0.1-0.7c0-0.1,0-0.1-0.3-0.2
	c-0.3-0.1-0.7-0.2-1-0.3S8.1,37.2,8,37.1s-0.2-0.2-0.3-0.2c-0.1,0-0.2,0.1-0.3,0.2s-0.3,0.4-0.3,0.6C7,37.9,7,38.2,7,38.3
	s0,0.3,0,0.5S6.8,39,6.7,39.3z"/>
<polygon class="st2" points="4.4,47.4 4.2,47 3.6,47.5 3.9,47.6 "/>
<path id="skin-leg-r" class="st4" d="M11.7,34.3c0,0-0.6-0.2-0.9-0.3c-0.2-0.1-1.1-0.4-1.1-0.4L9,33.3l-0.8,2.3L8,36.5l0.6,0.5
	L9,37.2l1.1,0.4l0.8-1.2l1-1.4l0.4-0.5L11.7,34.3z M9.3,36C9.1,36,9,35.9,9,35.8c0-0.1-0.1-0.3,0.1-0.3c0.2,0,0.3,0.3,0.4,0.3
	c0.1,0,0.1-0.2,0.2-0.1s0.2,0.6,0.2,0.6C9.8,36.2,9.4,36.1,9.3,36z"/>
<polygon class="st2" points="11.6,39.8 11.8,39.8 11.8,39.7 11.9,39.3 11.9,38.9 11.5,39.6 11.4,39.7 "/>
<path id="player-sock-l" class="st2" d="M13.9,37.9c0,0,0.2,0,0.3,0.1c0.1,0.1,0.1,0.2,0.2,0.3s0.4-0.1,0.8-0.2s1.7-0.7,1.7-0.7
	l0.3-0.1l0.2-0.4l0.3,0l0,0.3c0,0,0.1,0.2,0.3,0.2s0.4,0,0.6,0s0.4-0.1,0.6-0.3c0.1-0.1,0.2-0.4,0.2-0.5s-0.2-0.2-0.2-0.2l-0.7-1
	l-0.3-0.7c0,0-0.3-0.1-0.6,0c-0.3,0-0.4,0.3-0.5,0.4S17,35.3,17,35.3s-0.1,0-0.1,0s-0.3-0.1-0.5-0.1s-0.5,0-0.5,0s-0.4,0.2-0.7,0.3
	s-1,0.7-1,0.7s-1,0.7-1,0.8s-0.2,0.4-0.1,0.5c0,0.2,0.2,0.3,0.4,0.4C13.5,38,13.9,37.9,13.9,37.9z"/>
<path id="skin-leg-l" class="st4" d="M19,34.4l-0.4,0.1c0,0,0,0.2,0.1,0.4c0.1,0.2,0.5,0.8,0.7,1c0.1,0.2,0.5,0.5,0.5,0.5
	s0.3-0.1,0.5-0.2s0.5-0.2,0.6-0.3c0.2-0.1,0.6-0.3,0.8-0.4c0.2-0.1,0.3-0.2,0.3-0.2S22,35,22,35.1s0.1-0.2,0.1-0.2s0.2,0,0.2,0
	l0.2-0.1c0,0,0.3-0.4,0.3-0.6c0-0.2,0-0.6,0.1-0.8s0-0.6,0-0.6L22,33c0,0-1.9,0.3-2.2,0.4c-0.3,0.1-0.7,0.2-0.7,0.2l0.4,0.5
	c0,0,0.1,0.1,0,0.1C19.3,34.4,19,34.4,19,34.4z"/>
<polygon id="skin-face" class="st1" points="21.3,4.4 21.4,4.2 20.8,3.4 19.7,2.9 19.4,3 19.4,3.1 18.9,3 17.8,3.8 17.6,4.4 
	16.9,5.8 16.2,5.3 16.1,5.6 16.1,5.7 16.2,5.6 16.5,6.1 16.3,6.3 16.4,6.4 16.9,6.7 17,7.5 16.9,8.5 18.2,10.4 19.4,11.6 19.7,11.1 
	20,9.9 19.9,8.9 18.9,8.5 18,7.8 17.7,7.4 17.9,7.2 18,7.3 18.3,7.6 19.3,8.3 20,8.4 20.3,8.3 20.7,7.6 21.4,5.2 "/>
<path id="player-shorts" class="st2" d="M18.6,33.4c-0.3,0.1-0.5,0.1-0.6,0.1c-0.1,0-0.1-0.2-0.1-0.2l-0.5-2.6c0,0-0.3-1.4-0.3-1.5
	s0.1-0.7,0.1-0.7s0.4-0.2,0.5-0.3c0.1-0.1,0-0.5,0.1-0.6c0.1-0.1,0.9-0.5,1.1-0.6c0.2-0.1,0.3-0.1,0.4-0.2c0-0.1-0.5-0.1-0.6-0.1
	s-0.4,0.2-0.5,0.2c-0.1,0.1-0.3,0.2-0.4,0.2s0.3-0.7,0.3-1s-0.3-0.8-0.4-0.6s-0.1,1.2-0.2,1.3c-0.1,0.1-1.2,0.2-1.4,0.3
	c-0.1,0.1-0.1,0.2,0,0.3c0.1,0.1,0.8,0.1,0.8,0.2c0,0.1-0.1,1-0.1,1l-1.2,3.2c0,0-0.6,1.5-0.9,2.2c-0.1,0.2-0.1,0.2-0.2,0.2
	c-0.1,0-0.4,0-0.7,0c-0.2,0-1.4-0.3-2-0.5s-1.5-0.5-1.7-0.6c-0.2-0.1-1.1-0.4-1.2-0.4s-0.1-0.1-0.2-0.2c0-0.1,0.3-1,0.3-1l1.1-3
	l1.1-2.9l0.7-1.9c0,0,0.2-0.7,0.3-0.8c0.1-0.1,0.1-0.3,0.2-0.4s0.2-0.1,0.3-0.1s1.1,0.2,1.1,0.2s0.5,0.1,0.6,0.1s0.1,0,0.2,0
	c0.1,0-0.1-0.4-0.4-0.5c-0.3-0.1-1.3-0.2-1.4-0.4c-0.1-0.1-0.1-0.2-0.1-0.4c0-0.1,0.1-0.2,0.2-0.3s0.6,0.1,0.8,0.2s0.4,0.2,0.6,0.2
	s0.6,0.2,0.6,0.2s0.3,0.2,0.5,0.4s0.9,0.3,1.3,0.4c0.4,0,1.3,0.1,1.5,0.1c0.2,0,0.4-0.2,0.4-0.2l0.2-0.2l0.5,0c0,0,0.3-0.1,0.5-0.2
	c0.1-0.1,0-0.2,0-0.2s0.4-0.1,0.5-0.1s0.2,0,0.2,0s0.2,0,0.2,0.1c0.1,0.1,0.1,0.2,0,0.3s-0.3,0.2-0.3,0.2l-0.8,0.2
	c0,0-0.2,0-0.3,0.1s0.1,0.2,0.1,0.2s0.2,0,0.4,0s0.6-0.1,0.6-0.1s0.2,0,0.4,0c0.1,0.1,0.3,0.2,0.4,0.5s0.2,0.7,0.2,0.7l0.7,3.3
	l0.4,1.7l0.4,2c0,0,0.2,1.2,0.2,1.3c0,0.1-0.1,0.1-0.1,0.1s-0.3,0-0.6,0.1s-2.2,0.4-2.5,0.5S18.9,33.3,18.6,33.4z"/>
<path class="st0" d="M13.4,24.8c0.1-0.1,0-0.2,0-0.2s-0.4,0.2-0.6,0.3s-0.4,0.6-0.5,0.8s-0.1,0.6-0.1,0.8c0,0.1-0.1,0.4,0,0.4
	c0.1,0,0.3-0.4,0.4-0.5C12.9,26,13.3,24.9,13.4,24.8z"/>
<polygon class="st0" points="20.2,7.1 20,7.1 20,7.2 20.2,7.3 20.2,7.4 19.8,7.6 19.7,7.6 19.5,7.3 19.6,7.3 19.1,7.2 19,7.1 
	18.9,7.1 19.7,6.9 20.5,6.9 20.5,7 "/>
<polygon class="st0" points="19.2,6.3 19.5,6.2 19.5,6.3 19.3,6.3 "/>
<path class="st0" d="M18.3,4.6c0,0-0.2-0.1-0.3-0.1c-0.1,0-0.3,0.3-0.3,0.3l0-0.1c0,0,0.3-0.3,0.3-0.3s0.5,0,0.5,0L19,4.6l0,0.1
	c0,0-0.1,0.3-0.3,0.4c-0.1,0-0.3,0-0.4-0.1S18.3,4.6,18.3,4.6z"/>
<path class="st0" d="M20.8,4.3l-0.2,0.2c0,0,0.2,0.2,0.1,0.3C20.6,5,20.5,5,20.3,5c-0.1-0.1-0.2-0.2-0.2-0.2l0,0L19.9,5l0,0.4
	l-0.1-0.6l0-0.2L20,4.4l0-0.1l0.7-0.2L21,4.2l0,0.1L20.8,4.3L20.8,4.3z"/>
<polygon class="st0" points="19.8,6.3 19.8,6.2 20,6.2 20,6.3 19.9,6.3 "/>
<polygon id="hair" class="st0" points="16,4.9 16.2,4.9 16.6,5.1 16.8,5.2 17.3,4.2 17.5,3.5 18.8,2.8 19.1,2.8 19.2,2.7 19.8,2.6 
	21,3.1 21.7,4 21.6,4.2 21.7,4.8 21.7,4.6 22.1,3.8 21.9,3.1 22,2.5 21.5,1.8 21,1.5 20.8,1.2 20,1.2 19.9,0.9 19.3,0.9 18.4,0.7 
	18.3,0.8 17.2,1.2 17,1.5 16.6,1.5 16.1,2.2 15.5,3.5 15.6,3.5 15.8,4 15.7,4.5 15.8,4.6 16,4.8 "/>
</svg>
