<?xml version="1.0" encoding="utf-8"?>
<!-- Generator: Adobe Illustrator 27.8.0, SVG Export Plug-In . SVG Version: 6.00 Build 0)  -->
<svg version="1.1" id="Ebene_1" xmlns="http://www.w3.org/2000/svg" xmlns:xlink="http://www.w3.org/1999/xlink" x="0px" y="0px"
	 viewBox="0 0 23.1 53.5" style="enable-background:new 0 0 23.1 53.5;" xml:space="preserve">
<style type="text/css">
	.st0{fill-rule:evenodd;clip-rule:evenodd;fill:#1A1A18;}
	.st1{fill-rule:evenodd;clip-rule:evenodd;fill:#FBCDAA;}
	.st2{fill-rule:evenodd;clip-rule:evenodd;fill:#FFFFFF;}
	.st3{fill-rule:evenodd;clip-rule:evenodd;fill:#D5100E;}
	.st4{fill:#FBCDAA;}
</style>
<path class="st0" d="M1.7,23.2c0.1,0,0.1,0,0.3,0c0.3-0.1,0.3-0.8,0.3-0.8s0.2,0.3,0.5,0.3c0.1,0,0.4-0.4,0.5-0.5s0-0.5,0.1-0.7
	s0.2-0.5,0.2-0.7s-0.1-0.5,0-0.8s0.3-1.6,0.5-2.1s0.8-3.1,0.9-3.4s0.4-0.8,0.4-0.9s0.5-0.2,0.5-0.2l0.4-0.1l0.1,1
	c0,0,1.1-0.1,1.3-0.1s0.5,0,0.5,0S8,15.7,8,16.4c0,0.6,0,2.2,0,2.2l-0.1,1l0,0.9V21l0,0.2l-0.1,0.4c0,0-0.3,0.4-0.4,0.6
	s-0.4,1-0.5,1.4c-0.1,0.4-0.1,1-0.2,1.4c0,0.4,0,1.2,0,1.6s0.5,2.7,0.5,2.7l0.2,1.1l0.2,1.1c0,0,0.1,0.8,0.1,1s0,0.5,0.1,0.6
	c0.1,0.1,0,0.1,0.4,0.1S9.5,33,9.5,33l0.2,0.2L9.4,34l-0.2,0.2L9,34.7l-0.2,0.8l0.1,0.3l-0.1,0.8l-0.6,2.2v1.9c0,0-0.8,0-0.8,0.1
	s0.2,0.7,0.1,0.8c0,0.2,0,0.2-0.1,0.4s-0.1,0.3-0.2,0.5C7.3,42.7,7,42.9,6.9,43s-0.6,0.7-0.6,0.7S6,44.4,5.9,44.6s-0.3,0.9-0.3,1.1
	s-0.1,0.7-0.1,0.7s-0.1,0.4,0,0.5s0.1,0.4,0.2,0.5c0.1,0.1,0.2,0.2,0.3,0.4s0.4,0.3,0.6,0.3s0.6,0,0.7,0s0.1,0,0.3-0.2
	s0.6-0.7,0.8-1c0.2-0.3,1-2,1-2l0.7-1.2l0.3-0.2l0.2-0.7v-0.5l0.2-0.6v-0.4l0.1-0.1l0.3-0.7l1.4-2.4l0.3-0.7l0.1-0.9l0.2-0.6v-0.4
	l0.1,0.2l0.2,0.1l0.3,1.8l0.2,2.1c0,0-0.7,1.5-0.8,2s-0.3,1.8-0.3,2.2s-0.2,1.5-0.3,1.8c-0.1,0.3-0.4,1.1-0.4,1.1s-0.1,0.4-0.2,0.8
	c-0.1,0.4-0.2,0.6-0.3,0.8s-0.2,0.5-0.3,0.8s0,0.6,0,0.7s-0.2,0.8-0.3,0.9s-0.1,0.4-0.1,0.6s0.4,0.5,0.4,0.5s0,0.2,0,0.3
	s0.1,0.1,0.2,0.1s0.3-0.1,0.3-0.1l1.1,0.5c0,0,0,0.2,0.1,0.2c0,0,0.2,0.1,0.2,0.1s0.1-0.1,0.1-0.1l1,0.3c0,0,0,0.2,0,0.2
	s0.2,0,0.2,0c0.1,0,0.1-0.1,0.1-0.1l0.4,0c0,0,0,0.1,0,0.1c0.1,0.1,0.3,0,0.4,0c0.1,0,0.1-0.1,0.1-0.1s0.2,0,0.5-0.1
	c0.3-0.1,0.4-0.3,0.4-0.4s0-0.3-0.1-0.5s-0.5-0.3-0.6-0.5s-1.6-1.7-1.6-1.8s0.2-0.8,0.2-0.8s0.2-0.4,0.3-0.5s0.1-0.3,0-0.4
	s-0.3,0-0.3,0s0-0.1,0.1-0.4s0.4-0.9,0.7-1.5c0.2-0.5,1.1-1.6,1.2-1.9c0.2-0.3,0.5-1.2,0.5-1.6c0.1-0.4,0.1-0.7,0.1-1s0-0.8,0-1
	s0-0.5,0-0.5l0.5-1.9l0.1-1.3l0-1.5c0,0,0.5,0.1,0.6,0.1c0.1,0,0.2-0.1,0.2-0.2c0.1-0.2,0-1.4,0-1.4l0-1.3l0-1.4v-1.3l-0.1-1.5
	l-0.1-1.7c0,0-0.2-1.1-0.3-1.8s-0.2-1.2-0.3-1.6s-0.4-0.8-0.4-0.8l-0.2-0.6L17,21l0.3-0.5l0.1-0.2l1.1-0.2c0,0,1.9-0.5,2.2-0.7
	s1.3-0.4,1.3-0.4l0.4-0.4l0.1-0.4l-0.1-0.7l-0.4-1.5l-0.3-1l0.1-0.1l-0.4-0.9l-0.8-1.5l-0.9-1.9l-0.4-0.8l-0.7-0.7l-0.4-0.2
	l-0.6-0.3l-1.3-0.3l-0.8-0.3l-0.1,0l0.1-0.3l0-0.3L16,6.9l0.3-0.4l0.3-0.5L17,5.6l0-0.4l0.1-0.8l0.4-0.2l-0.3-0.6l0.1-0.5L17.4,3
	l-0.6-1.3l-0.4-0.4L16,0.8l-0.2,0.1l-0.2-0.3l-0.8-0.1l-0.1-0.1l-0.8,0.2l-0.7,0.2l-0.6-0.1l-0.1,0.2L12,1l-0.5,0.6l-0.4,0.6
	l-0.1,0.4l-0.2,0.1l0.2,0.6l-0.3,0.5l0.3,0.5l0,0.5l0.3,0.8v0.4l0.2,0.4l0.3,0.2l0.2,0.8l0,0.2l0,0.2l-0.1,0.1l-0.2,0
	c0,0-0.1,0.1-0.3,0.2c-0.2,0.1-0.8,0.2-0.8,0.2S10,8.3,9.7,8.4S8,8.7,8,8.7L7,9L5.7,9.5v0.1L5.3,9.8c0,0-0.9,0.4-1.3,0.7
	S3.6,10.8,3.4,11S3,11.7,2.9,11.9S2.4,13,2.3,13.3s-0.2,1.4-0.3,1.8S1.7,19,1.7,19s-0.2,0.3-0.4,0.5s-0.4,0.4-0.5,0.6
	s-0.2,0.6-0.3,0.8s-0.1,0.6-0.1,0.9s0.2,0.8,0.2,0.8l0.1,0.3c0,0,0.2,0.2,0.3,0.2s0.1,0.1,0.2,0.1S1.5,23,1.5,23S1.6,23.2,1.7,23.2z
	"/>
<path id="skin-arm-l" class="st1" d="M6,11.8c0-0.4-0.1-0.9-0.1-1.2s-0.1-0.5-0.1-0.5l-1.5,0.7c0,0-0.3,0.2-0.4,0.4
	s-0.5,0.6-0.5,0.6s-0.5,0.9-0.6,1.5s-0.3,1.9-0.4,2.6S2.2,19,2.2,19L2,19.5l0,0c0,0-0.6,0.4-0.7,0.6s-0.3,0.8-0.3,0.8l-0.1,0.4
	l0,0.6l0.1,0.5l0.2,0.3c0,0,0,0,0.1,0.1s0.1-0.1,0.1-0.1l-0.1-0.5l0-0.4l0,0.1l0.2,0.5l0.1,0.2c0,0,0.1,0.1,0.1,0.1s0.1-0.1,0.1-0.1
	l-0.1-1l0.1-0.4l0.2-0.3l0.2-0.3l0.1,0.2l0,0.2l-0.1,0.5l0.1,0.4c0,0,0,0.1,0.1,0.2s0.2-0.1,0.3-0.2s0-0.5,0-0.5l0.2-0.7l0-0.8
	l1.3-5.4l0.5-1.2L5,13.2l1-0.4C6,12.8,6,12.2,6,11.8z"/>
<polygon class="st0" points="4.5,11.9 4.6,11.6 4.6,11.4 4.5,11.2 4.2,11.6 4.2,12 "/>
<path class="st2" d="M6.2,47.5c0.1,0.1,0.4,0.1,0.4,0.1h0.1l0,0l-0.1,0c0,0-0.1-0.2-0.1-0.3c0-0.2,0.1-0.3,0.2-0.3s0.3,0,0.4,0
	S7,47.5,7,47.5s0.5-0.4,0.7-0.7c0.2-0.3,0.9-1.6,1-1.8s0-0.3,0-0.3s0.6-1,0.7-1.2s0-0.4,0-0.5s-0.1-0.2-0.3-0.3s-0.3,0-0.4,0
	s-0.3,0.1-0.3,0.1h0.1L8.7,43v0.4l-0.1,0.1H8.4l-0.3-0.1L8,43.7l0.1-0.1h0.3l0.1,0.1v0.1c0,0,0.1,0,0.2,0S9,44.1,9,44.1v0.3H8.8
	c0,0-0.1,0-0.2,0c-0.1-0.1-0.2-0.2-0.2-0.2c-0.1,0.1-0.2,0.2-0.2,0.1c-0.1,0-0.2-0.2-0.2-0.2s-0.8,1-1,1.1s-0.4,0.3-0.4,0.3
	S6.2,46,6,46.3c-0.2,0.3,0,0.7,0,0.8S6.2,47.5,6.2,47.5S6.1,47.4,6.2,47.5z"/>
<path class="st0" d="M6.5,47c0,0,0.1-0.1,0.1-0.2s-0.1-0.2-0.1-0.2s-0.2,0-0.3,0.1s-0.1,0.2,0,0.3S6.5,47,6.5,47L6.5,47z"/>
<path id="player-jersey" class="st3" d="M6.7,13.8l0.9-0.1l0.6,0l0.3-1l0.2,0V13l-0.1,1.3l0.1,3.5l0,1.6l-0.1,0.8l0.1,0.6l0.5-0.1
	l2.2-0.2l0.9-0.1l0.3,0c0,0,0.1-0.1,0.1-0.4s0-1.8,0-2.2s0.2-1.8,0.3-2.1s0.2-0.8,0.2-0.8s0.1-1.4,0.2-1.2s0.1,1.4,0.1,1.8
	s-0.3,1.8-0.3,2.2s0,0.9,0.1,1.2S13,20,13,20l0.1,0.4l1.1,0.1l1.2,0l0.9,0.1l0.4,0l0.2-0.3c0,0,0.4-1.6,0.5-2.2s0.3-1.1,0.4-1.6
	s-0.1-0.9,0-1.1c0.1-0.2,0-0.2,0.2-0.4s0.3-0.2,0.3-0.1s0.1,0.2,0.1,0.4s0,0.3,0,0.5s0.4,0.8,0.4,0.8l1.3-0.7l0.9-0.6l0.5-0.4
	c0,0-0.3-0.7-0.4-0.9s-0.5-1.1-0.7-1.4s-0.5-1.3-0.6-1.5s-0.3-0.6-0.5-0.8s-0.3-0.4-0.6-0.7S17.8,9.1,17.6,9s-1.2-0.3-1.5-0.3
	s-0.7-0.2-0.7-0.2s-0.3,0.1-0.6,0.2S14.4,8.8,14,8.8S13,8.7,12.6,8.6S12,8.3,12,8.3l-0.7,0.1c0,0-0.5,0.1-0.8,0.2
	c-0.3,0.1-0.9,0.1-0.9,0.1L8.1,9.1L7.2,9.4l-1,0.4c0,0,0.1,0.5,0.2,0.9c0.1,0.6,0.1,1,0.1,1.5C6.5,12.7,6.7,13.8,6.7,13.8z"/>
<polygon class="st2" points="7.1,44.2 7.3,44 7.2,43.8 7,43.8 6.7,44.2 6.6,44.5 6.9,44.4 "/>
<path class="st0" d="M6.9,46.2c-0.1,0.1,0.1-0.2,0-0.3S6.7,46,6.6,46s-0.1,0.2,0,0.3S6.9,46.2,6.9,46.2S7,46.1,6.9,46.2z"/>
<path id="player-shorts" class="st2" d="M8,30c0.1,0.5,0.2,1.1,0.3,1.5c0.1,0.4,0.1,1.2,0.1,1.2s0,0.1,0.2,0.1s0.4-0.1,0.7-0.2
	s1.2-0.3,1.5-0.4c0.3-0.1,1.2-0.3,1.4-0.3s0.4,0.1,0.4,0.1l0.1-0.3l-0.2-1.4L12.1,28c0,0-0.8-0.1-0.9-0.1S11,28,10.8,28
	s-0.2,0-0.3-0.1s0.1-0.3,0.1-0.4s0.3-0.1,0.4-0.1s0.4,0,0.4,0s-0.4-0.4-0.4-0.5s-0.1-0.3-0.1-0.4s0.1-0.3,0.2-0.3s0.2,0.4,0.4,0.5
	s0.3,0.3,0.5,0.4s0.2,0.1,0.4,0.2c0.2,0.1,1.2-0.2,1.4-0.2s0.7,0,0.9,0.1s0.4,0.3,0.3,0.3s0.1,0.1,0.1,0.1s0,0.1-0.2,0.1
	s-1-0.1-1.2-0.1s-0.5,0.1-0.6,0.2s-0.5,0.2-0.5,0.5s0.2,1.5,0.3,1.9s0.2,1.4,0.2,1.4L13,32.5l0.1,0.8l0.1,1.6l0.7,0.1l1.7-0.1
	l1.8-0.3l0.1-1.6h0.1l0.1,1.3l0.3,0.3l0-0.9v-0.3c0,0,0-1.3,0-1.8c0-0.6,0-1.4,0-2c0-0.6-0.1-1.9-0.2-2.6s-0.3-2.3-0.3-2.7
	s-0.2-0.8-0.3-1.1s-0.2-0.4-0.3-0.5s-0.2-0.4-0.3-0.6s0-0.3,0-0.6s-0.2-0.4-0.2-0.4s-0.4,0-0.7-0.1S14,21,13.6,21s-1.2-0.1-1.6-0.1
	S11.1,21,10.8,21s-1.8,0.2-2,0.3s-0.3,0.2-0.4,0.3s-0.1,0.2,0,0.2s2.6-0.3,2.6-0.3l0.7,0.1l0.3,0.3V22h-0.4l-0.5,0l-2.6,0.2l-0.4,0
	c0,0-0.2,0.1-0.4,0.4s-0.3,0.6-0.4,1s-0.1,0.9-0.1,1.3c0,0.5,0,0.9,0,1.2s0,0.6,0.1,1S7.9,29.4,8,30z"/>
<path class="st0" d="M7.5,45.4c0-0.1,0-0.2-0.2-0.2S7.1,45.4,7,45.5s0.1,0.2,0.2,0.2S7.5,45.5,7.5,45.4z"/>
<path class="st0" d="M7.6,45.8c0,0.1,0.1,0.2,0.2,0.2S8,45.9,8,45.9s0.1-0.3,0-0.3s-0.2-0.1-0.3,0S7.6,45.8,7.6,45.8z"/>
<path class="st0" d="M7.5,46.7c0,0,0.1-0.2,0.1-0.2s-0.1-0.3-0.2-0.2s-0.2,0.1-0.2,0.1s-0.1,0.3,0,0.4C7.3,46.8,7.5,46.7,7.5,46.7z"
	/>
<polygon id="player-sock-l" class="st2" points="10.1,40.3 10.3,40.7 10.7,39.8 11.2,38.8 11.8,37.8 12,37.2 11.3,36.6 10.5,35.9 
	10.5,35.8 10.8,35.6 12.2,36.1 12.3,35.8 12.3,35.4 11.4,34.4 10.3,34.3 9.6,34.5 9.4,34.9 9.3,35.5 9.4,35.6 9.8,35.5 9.8,36 
	9.4,36.4 8.8,38.7 8.7,39.6 8.7,40.3 "/>
<path class="st0" d="M9,43.8c0,0,0.2-0.1,0.3-0.2s-0.1-0.2-0.2-0.2s-0.3,0.1-0.3,0.2S9,43.8,9,43.8L9,43.8z"/>
<path id="skin-leg-l" class="st1" d="M9.9,32.8l0.2,0.2l0.1,0.2l-0.1,0.4L10,33.9l0.4-0.1l1.2,0.1l0.6,0.5l0.4,0.5l0.1-0.2l-0.1-1
	l-0.2-1.1c0,0-0.2-0.2-0.4-0.2C11.9,32.3,9.9,32.8,9.9,32.8z"/>
<path id="player-sock-r" class="st2" d="M13.3,48.3l0.1,0.3l0.2,0.1c0,0,0.6-1.8,0.8-2.2s1.2-2.3,1.2-2.3l0.4-0.8v-1l-0.8-0.8
	l-0.6-0.3h-0.1v-0.1L15,41l1.2,0.4h0.1c0,0,0.2-1.3,0.1-1.5c-0.1-0.1-0.7-0.4-1-0.5s-0.9,0-1,0.1S14,40.7,14,40.7l-0.4,1.1l-0.4,2.7
	l-0.3,1.2l-0.7,2l0.7-0.5l0.4,0.8L13.3,48.3z"/>
<path id="skin-leg-r" class="st1" d="M15.4,35.6c-0.5,0-1.5,0-1.5,0s0.1,1.3,0.2,1.7s0.1,1.7,0.2,1.7s0.9-0.1,1.2,0
	c0.3,0,1.1,0.5,1.1,0.5s0.3-0.9,0.3-1.2c0.1-0.3,0.1-0.7,0.1-0.9s0-0.5,0-0.8s0-1.2,0-1.2S15.9,35.5,15.4,35.6z"/>
<polygon class="st2" points="14,51.5 14.3,51.1 13.6,51.1 "/>
<polygon id="skin-arm-r" class="st4" points="20.7,18.9 21.8,18.5 22.1,18.2 22.1,17.7 21.7,16.1 21.4,15.3 20.9,15.6 20.2,16.2 
	19.5,16.5 20.1,17.4 20.3,17.9 20.3,18 20,18.3 19.2,17.5 18.1,18 17.8,18.6 17.6,19 17.5,19.7 18.3,19.6 "/>
<polygon id="skin-neck" class="st1" points="12.3,8 12.3,7.9 12.5,7.6 12.8,7.8 13.1,7.9 13.6,7.9 13.7,8.2 13.9,8 14.1,7.9 
	14.5,7.8 14.8,7.8 15.1,7.7 15.1,8.1 14.7,8.3 14,8.4 12.9,8.2 "/>
<polygon class="st0" points="11.2,33 11.7,32.9 11.9,33 12,33.4 11.8,33.2 11.4,33.2 11,33.2 "/>
<polygon class="st0" points="15.2,37.5 15.4,37.3 16.1,37.4 16.2,37.8 15.8,37.6 15.5,37.6 15,37.7 "/>
<polygon class="st0" points="10.7,10.7 11.2,10.4 11.3,10 10.3,10.3 10.1,10.6 "/>
<polygon class="st0" points="16.2,11.1 16.8,11.4 17.1,11.5 17.2,11.6 16.4,10.4 15.6,10.1 15.7,10.4 "/>
<polygon id="hair" class="st0" points="16.9,3.6 17,3.1 17,3 16.6,2.1 16.3,1.7 15.9,1.2 15.7,1.3 15.3,1 14.7,0.9 14.6,0.8 
	13.9,0.9 13.2,1.1 12.8,1.1 12.6,1.2 12.3,1.3 11.8,1.8 11.5,2.3 11.5,2.6 11.3,2.7 11.4,3.2 11.2,3.7 11.4,4.1 11.4,4.5 11.7,5.2 
	11.7,5.6 11.8,6 12.1,6.2 12.3,6.8 12.4,7.1 12.8,7.3 13.1,7.4 13.6,7.5 13.8,7.6 14,7.5 14.1,7.4 14.6,7.4 14.9,7.4 15.3,7.3 
	15.4,7.1 15.8,6.7 16.1,6.3 16.3,5.9 16.6,5.5 16.7,5.1 16.8,4.2 17.1,4.1 "/>
</svg>
