<?xml version="1.0" encoding="utf-8"?>
<!-- Generator: Adobe Illustrator 27.8.0, SVG Export Plug-In . SVG Version: 6.00 Build 0)  -->
<svg version="1.1" id="Ebene_1" xmlns="http://www.w3.org/2000/svg" xmlns:xlink="http://www.w3.org/1999/xlink" x="0px" y="0px"
	 viewBox="0 0 23.1 53.5" style="enable-background:new 0 0 23.1 53.5;" xml:space="preserve">
<style type="text/css">
	.st0{fill-rule:evenodd;clip-rule:evenodd;fill:#1A1A18;}
	.st1{fill-rule:evenodd;clip-rule:evenodd;fill:#FBCDAA;}
	.st2{fill-rule:evenodd;clip-rule:evenodd;fill:#FFFFFF;}
	.st3{fill-rule:evenodd;clip-rule:evenodd;fill:#D5100E;}
	.st4{fill:#FBCDAA;}
</style>
<path class="st0" d="M21.4,23.2c-0.1,0-0.1,0-0.3,0c-0.3-0.1-0.3-0.8-0.3-0.8s-0.2,0.3-0.5,0.3c-0.1,0-0.4-0.4-0.5-0.5
	s0-0.5-0.1-0.7s-0.2-0.5-0.2-0.7s0.1-0.5,0-0.8s-0.3-1.6-0.5-2.1s-0.8-3.1-0.9-3.4s-0.4-0.8-0.4-0.9s-0.5-0.2-0.5-0.2L17,13.3
	l-0.1,1c0,0-1.1-0.1-1.3-0.1s-0.5,0-0.5,0s-0.1,1.6-0.1,2.2c0,0.6,0,2.2,0,2.2l0.1,1l0,0.9V21l0,0.2l0.1,0.4c0,0,0.3,0.4,0.4,0.6
	s0.4,1,0.5,1.4s0.1,1,0.1,1.4s0,1.2,0,1.6s-0.5,2.7-0.5,2.7l-0.2,1.1l-0.2,1.1c0,0-0.1,0.8-0.1,1s0,0.5-0.1,0.6s0,0.1-0.4,0.1
	S13.6,33,13.6,33l-0.2,0.2l0.3,0.7l0.2,0.2l0.3,0.5l0.2,0.8l-0.1,0.3l0.1,0.8l0.6,2.2v1.9c0,0,0.8,0,0.8,0.1s-0.1,0.7-0.1,0.8
	c0,0.2,0,0.2,0.1,0.4s0.1,0.3,0.2,0.5c0.1,0.2,0.3,0.4,0.4,0.5s0.5,0.7,0.5,0.7s0.4,0.7,0.5,0.9s0.3,0.9,0.3,1.1s0.1,0.7,0.1,0.7
	s0.1,0.4,0,0.5s-0.1,0.4-0.2,0.5c-0.1,0.1-0.1,0.2-0.3,0.4s-0.4,0.3-0.6,0.3s-0.6,0-0.7,0s-0.1,0-0.3-0.2s-0.6-0.7-0.8-1s-1-2-1-2
	l-0.7-1.2l-0.3-0.2l-0.2-0.7v-0.5l-0.2-0.6v-0.4l-0.1-0.1l-0.3-0.7L10.7,38l-0.3-0.7l-0.1-0.9l-0.2-0.6v-0.4L10,35.5l-0.2,0.1
	l-0.3,1.8l-0.2,2.1c0,0,0.7,1.5,0.8,2s0.3,1.8,0.3,2.2s0.2,1.5,0.3,1.8c0.1,0.3,0.4,1.1,0.4,1.1s0.1,0.4,0.2,0.8
	c0.1,0.4,0.2,0.6,0.3,0.8s0.2,0.5,0.3,0.8s0,0.6,0,0.7s0.2,0.8,0.3,0.9s0.1,0.4,0.1,0.6s-0.4,0.5-0.4,0.5s0,0.2,0,0.3
	s-0.1,0.1-0.2,0.1s-0.3-0.1-0.3-0.1l-1.1,0.5c0,0,0,0.2-0.1,0.2c0,0-0.2,0.1-0.2,0.1s-0.1-0.1-0.1-0.1l-1,0.3c0,0,0,0.2,0,0.2
	s-0.2,0-0.2,0c-0.1,0-0.1-0.1-0.1-0.1l-0.4,0c0,0,0,0.1,0,0.1c-0.1,0.1-0.3,0-0.4,0s-0.1-0.1-0.1-0.1s-0.2,0-0.5-0.1
	s-0.4-0.3-0.4-0.4s0-0.3,0.1-0.5s0.5-0.3,0.6-0.5S9,49.8,9,49.7s-0.2-0.8-0.2-0.8s-0.2-0.4-0.3-0.5s-0.1-0.3,0-0.4s0.3,0,0.3,0
	s0-0.1-0.1-0.4S8.3,46.6,8,46c-0.2-0.5-1.1-1.6-1.2-1.9c-0.2-0.3-0.5-1.2-0.6-1.6c-0.1-0.4-0.1-0.7-0.1-1S6,40.7,6,40.5S6,40,6,40
	l-0.5-1.9l-0.1-1.3l0-1.5c0,0-0.5,0.1-0.6,0.1c-0.1,0-0.2-0.1-0.2-0.2c-0.1-0.2,0-1.4,0-1.4l0-1.3l0-1.4v-1.3l0.1-1.5l0.1-1.7
	c0,0,0.2-1.1,0.3-1.8c0.1-0.6,0.2-1.2,0.3-1.6s0.4-0.8,0.4-0.8L6,21.6L6.1,21l-0.3-0.5l-0.1-0.2L4.5,20c0,0-1.9-0.5-2.2-0.7
	S1,19,1,19l-0.4-0.4l-0.1-0.4l0.1-0.7L1,15.9l0.3-1l-0.1-0.1l0.4-0.9l0.8-1.5l0.9-1.9l0.4-0.8l0.7-0.7l0.4-0.2l0.6-0.3l1.3-0.3
	l0.8-0.3l0.1,0L7.5,7.6l0-0.3L7.1,6.9L6.8,6.5L6.5,6.1L6.1,5.6l0-0.4L5.9,4.4L5.6,4.2l0.3-0.6L5.8,3.1L5.7,3l0.6-1.3l0.4-0.4
	l0.4-0.5l0.2,0.1l0.2-0.3l0.8-0.1l0.1-0.1l0.8,0.2l0.7,0.2l0.6-0.1l0.1,0.2L11.1,1l0.5,0.6l0.3,0.6L12,2.5l0.2,0.1L12,3.1l0.3,0.5
	L12,4.2l0,0.5l-0.3,0.8v0.4l-0.2,0.4l-0.3,0.2L11,7.3l0,0.2l0,0.2l0.1,0.1l0.2,0c0,0,0.1,0.1,0.3,0.2c0.2,0.1,0.8,0.2,0.8,0.2
	s0.6,0.1,0.9,0.2s1.7,0.3,1.7,0.3l1,0.3l1.3,0.5v0.1l0.4,0.2c0,0,1,0.4,1.3,0.7s0.5,0.4,0.7,0.6s0.4,0.7,0.5,0.9s0.5,1.1,0.5,1.4
	s0.2,1.4,0.3,1.8s0.3,3.9,0.3,3.9s0.2,0.3,0.4,0.5s0.4,0.4,0.5,0.6s0.2,0.6,0.3,0.8s0.1,0.6,0,0.9s-0.2,0.8-0.2,0.8l-0.1,0.3
	c0,0-0.2,0.2-0.3,0.2s-0.1,0.1-0.2,0.1S21.6,23,21.6,23S21.5,23.2,21.4,23.2z"/>
<path id="skin-arm-r" class="st1" d="M17.1,11.8c0-0.4,0.1-0.9,0.1-1.2s0.1-0.5,0.1-0.5l1.5,0.7c0,0,0.3,0.2,0.4,0.4
	s0.5,0.6,0.5,0.6s0.5,0.9,0.6,1.5s0.3,1.9,0.4,2.6s0.2,3.1,0.2,3.1l0.2,0.4l0,0c0,0,0.6,0.4,0.7,0.6s0.3,0.8,0.3,0.8l0.1,0.4l0,0.6
	l-0.1,0.5L22,22.7c0,0,0,0-0.1,0.1s-0.1-0.1-0.1-0.1l0.1-0.5l0-0.4l0,0.1l-0.2,0.5l-0.1,0.2c0,0-0.1,0.1-0.1,0.1s-0.1-0.1-0.1-0.1
	l0.1-1l-0.1-0.4L21,20.9l-0.2-0.3l-0.1,0.2l0,0.2l0.1,0.5l-0.1,0.4c0,0,0,0.1-0.1,0.2s-0.2-0.1-0.3-0.2s0-0.5,0-0.5L20,20.7l0-0.8
	l-1.3-5.4l-0.5-1.2L18,13.2l-1-0.4C17.1,12.8,17.1,12.2,17.1,11.8z"/>
<polygon class="st0" points="18.6,11.9 18.5,11.6 18.5,11.4 18.6,11.2 18.9,11.6 18.9,12 "/>
<path class="st2" d="M16.9,47.5c-0.1,0.1-0.4,0.1-0.4,0.1h-0.1l0,0l0.1,0c0,0,0.1-0.2,0.1-0.3c0-0.2-0.1-0.3-0.2-0.3s-0.4,0-0.4,0
	s0,0.4,0,0.4s-0.5-0.4-0.7-0.7c-0.2-0.3-0.9-1.6-1-1.8s0-0.3,0-0.3s-0.6-1-0.7-1.2s0-0.4,0-0.5s0.1-0.2,0.3-0.3s0.3,0,0.4,0
	s0.3,0.1,0.3,0.1h-0.1L14.4,43v0.4l0.1,0.1h0.1l0.3-0.1l0.1,0.3l-0.1-0.1h-0.3l-0.1,0.1v0.1c0,0-0.1,0-0.2,0s-0.2,0.2-0.2,0.2v0.3
	h0.1c0,0,0.1,0,0.2,0c0.1-0.1,0.2-0.2,0.2-0.2c0.1,0.1,0.2,0.2,0.2,0.1c0.1,0,0.2-0.2,0.2-0.2s0.8,1,1,1.1c0.1,0.1,0.4,0.3,0.4,0.3
	s0.5,0.5,0.7,0.8c0.2,0.3,0,0.7,0,0.8C17,47.2,16.9,47.5,16.9,47.5S17,47.4,16.9,47.5z"/>
<path class="st0" d="M16.6,47c0,0-0.1-0.1-0.1-0.2s0.1-0.2,0.1-0.2s0.2,0,0.3,0.1s0.1,0.2,0,0.3S16.6,47,16.6,47L16.6,47z"/>
<path id="player-jersey" class="st3" d="M16.4,13.8l-0.9-0.1l-0.6,0l-0.3-1l-0.2,0V13l0.1,1.3l-0.1,3.5l0,1.6l0.1,0.8l-0.1,0.6
	l-0.5-0.1L12,20.4l-0.9-0.1l-0.3,0c0,0-0.1-0.1-0.1-0.4s0-1.8,0-2.2s-0.2-1.8-0.3-2.1s-0.2-0.8-0.2-0.8s-0.1-1.4-0.2-1.2
	S10,15,10,15.3s0.3,1.8,0.3,2.2s0,0.9-0.1,1.2S10.1,20,10.1,20L10,20.4L9,20.5l-1.2,0l-0.9,0.1l-0.3,0l-0.2-0.3c0,0-0.4-1.6-0.5-2.2
	s-0.3-1.1-0.4-1.6s0.1-0.9,0-1.1c-0.1-0.2,0-0.2-0.2-0.4s-0.3-0.2-0.3-0.1S4.8,15,4.9,15.2s0,0.3,0,0.5s-0.4,0.8-0.4,0.8l-1.3-0.7
	l-0.9-0.6l-0.5-0.4c0,0,0.3-0.7,0.4-0.9s0.5-1.1,0.7-1.4s0.5-1.3,0.6-1.5s0.3-0.6,0.4-0.8s0.3-0.4,0.6-0.7S5.3,9.1,5.6,9
	S6.7,8.7,7,8.7s0.7-0.2,0.7-0.2S8,8.6,8.3,8.7s0.5,0.1,0.8,0.1s1.1-0.1,1.4-0.2s0.6-0.3,0.6-0.3l0.7,0.1c0,0,0.5,0.1,0.8,0.2
	c0.3,0.1,0.9,0.1,0.9,0.1L15,9.1l0.9,0.3l1,0.4c0,0-0.1,0.5-0.2,0.9c-0.1,0.6-0.1,1-0.1,1.5C16.6,12.7,16.4,13.8,16.4,13.8z"/>
<polygon class="st2" points="16,44.2 15.8,44 15.9,43.8 16.1,43.8 16.4,44.2 16.5,44.5 16.2,44.4 "/>
<path class="st0" d="M16.2,46.2c0,0.1-0.1-0.2,0-0.3s0.2,0.1,0.3,0.1s0.1,0.2,0,0.3C16.4,46.4,16.2,46.2,16.2,46.2
	S16.1,46.1,16.2,46.2z"/>
<path id="player-shorts" class="st2" d="M15.1,30c-0.1,0.5-0.2,1.1-0.3,1.5c-0.1,0.4-0.1,1.2-0.1,1.2s0,0.1-0.2,0.1
	s-0.4-0.1-0.7-0.2s-1.2-0.3-1.5-0.4c-0.3-0.1-1.2-0.3-1.4-0.3S10.5,32,10.5,32l-0.1-0.3l0.2-1.4L11,28c0,0,0.8-0.1,0.9-0.1
	s0.2,0.1,0.3,0.1s0.2,0,0.3-0.1s-0.1-0.3-0.1-0.4s-0.3-0.1-0.4-0.1s-0.4,0-0.4,0S12,27.1,12,27s0.1-0.3,0.1-0.4s-0.1-0.3-0.2-0.3
	s-0.2,0.4-0.4,0.5s-0.3,0.3-0.5,0.4s-0.2,0.1-0.4,0.2c-0.2,0.1-1.2-0.2-1.4-0.2s-0.7,0-0.9,0.1s-0.4,0.3-0.3,0.3s-0.1,0.1-0.1,0.1
	s0,0.1,0.2,0.1s1-0.1,1.2-0.1s0.5,0.1,0.6,0.2s0.5,0.2,0.5,0.5S10.1,30,10,30.4s-0.2,1.4-0.2,1.4l0.3,0.8L10,33.3l-0.1,1.6L9.2,35
	l-1.7-0.1l-1.8-0.3l-0.1-1.6H5.5l-0.1,1.3l-0.3,0.3l0-0.9l0-0.3c0,0,0-1.3,0-1.8c0-0.6,0-1.4,0-2c0-0.6,0.1-1.9,0.2-2.6
	s0.3-2.3,0.3-2.7s0.2-0.8,0.3-1.1s0.2-0.4,0.3-0.5s0.2-0.4,0.3-0.6s0-0.3,0-0.6s0.2-0.4,0.2-0.4s0.4,0,0.7-0.1S9.1,21,9.5,21
	s1.2-0.1,1.6-0.1S12,21,12.2,21s1.8,0.2,2,0.3s0.3,0.2,0.4,0.3s0.1,0.2,0,0.2S12,21.5,12,21.5l-0.7,0.1L11,21.8V22h0.4l0.5,0
	l2.6,0.2l0.4,0c0,0,0.2,0.1,0.4,0.4s0.3,0.6,0.4,1s0.1,0.9,0.1,1.3s0,0.9,0,1.2s0,0.6-0.1,1S15.2,29.4,15.1,30z"/>
<path class="st0" d="M15.6,45.4c0-0.1,0-0.2,0.2-0.2s0.3,0.2,0.3,0.3s-0.1,0.2-0.2,0.2S15.6,45.5,15.6,45.4z"/>
<path class="st0" d="M15.5,45.8c0,0.1-0.1,0.2-0.2,0.2s-0.3-0.1-0.3-0.1s-0.1-0.3,0-0.3s0.2-0.1,0.3,0S15.6,45.8,15.5,45.8z"/>
<path class="st0" d="M15.6,46.7c0,0-0.1-0.2-0.1-0.2s0.1-0.3,0.2-0.2s0.2,0.1,0.2,0.1s0.1,0.3,0,0.4C15.8,46.8,15.6,46.7,15.6,46.7z
	"/>
<polygon id="player-sock-r" class="st2" points="13,40.3 12.8,40.7 12.4,39.8 11.9,38.8 11.3,37.8 11.1,37.2 11.8,36.6 12.6,35.9 
	12.6,35.8 12.4,35.6 10.9,36.1 10.8,35.8 10.8,35.4 11.7,34.4 12.8,34.3 13.5,34.5 13.7,34.9 13.8,35.5 13.7,35.6 13.3,35.5 
	13.3,36 13.7,36.4 14.3,38.7 14.4,39.6 14.4,40.3 "/>
<path class="st0" d="M14.1,43.8c0,0-0.2-0.1-0.3-0.2s0.1-0.2,0.2-0.2s0.3,0.1,0.3,0.2S14.1,43.8,14.1,43.8L14.1,43.8z"/>
<path id="skin-leg-r" class="st1" d="M13.2,32.8L13,33.1l-0.1,0.2l0.1,0.4l0.1,0.2l-0.4-0.1l-1.2,0.1l-0.6,0.5l-0.4,0.5l-0.1-0.2
	l0.1-1l0.2-1.1c0,0,0.2-0.2,0.4-0.2C11.2,32.3,13.2,32.8,13.2,32.8z"/>
<path id="player-sock-l" class="st2" d="M9.8,48.3l-0.1,0.3l-0.2,0.1c0,0-0.6-1.8-0.8-2.2s-1.2-2.3-1.2-2.3L7,43.3v-1l0.8-0.8
	l0.6-0.3h0.1v-0.1L8.1,41l-1.2,0.4H6.7c0,0-0.2-1.3-0.1-1.5c0.1-0.1,0.7-0.4,1-0.5s0.9,0,1,0.1s0.4,1.1,0.4,1.1l0.4,1.1l0.4,2.7
	l0.3,1.2l0.7,2l-0.7-0.5l-0.4,0.8L9.8,48.3z"/>
<path id="skin-leg-l" class="st1" d="M7.7,35.6c0.5,0,1.5,0,1.5,0S9,36.9,8.9,37.3S8.8,39,8.8,39s-0.9-0.1-1.2,0
	c-0.3,0-1.1,0.5-1.1,0.5s-0.3-0.9-0.3-1.2C6,37.9,6,37.5,6,37.3c0-0.2,0-0.4,0-0.8s0-1.2,0-1.2S7.2,35.5,7.7,35.6z"/>
<polygon class="st2" points="9.1,51.5 8.8,51.1 9.5,51.1 "/>
<polygon id="skin-arm-l" class="st4" points="2.4,18.9 1.3,18.5 1,18.2 1,17.7 1.4,16.1 1.7,15.3 2.2,15.6 2.9,16.2 3.5,16.5 
	3,17.4 2.8,17.9 2.8,18 3.1,18.3 3.9,17.5 5,18 5.3,18.6 5.4,19 5.6,19.7 4.8,19.6 "/>
<polygon id="skin-neck" class="st1" points="10.8,8 10.8,7.9 10.6,7.6 10.3,7.8 10,7.9 9.5,7.9 9.4,8.2 9.2,8 9,7.9 8.6,7.8 
	8.3,7.8 8,7.7 8,8.1 8.4,8.3 9.1,8.4 10.2,8.2 "/>
<polygon class="st0" points="11.9,33 11.4,32.9 11.2,33 11.1,33.4 11.4,33.2 11.7,33.2 12.1,33.2 "/>
<polygon class="st0" points="7.9,37.5 7.7,37.3 7,37.4 6.8,37.8 7.3,37.6 7.6,37.6 8.1,37.7 "/>
<polygon class="st0" points="12.4,10.7 11.9,10.4 11.8,10 12.8,10.3 13,10.6 "/>
<polygon class="st0" points="6.9,11.1 6.3,11.4 6,11.5 5.8,11.6 6.7,10.4 7.5,10.1 7.4,10.4 "/>
<polygon id="hair" class="st0" points="6.2,3.6 6.1,3.1 6.1,3 6.5,2.1 6.8,1.7 7.2,1.2 7.4,1.3 7.8,1 8.4,0.9 8.5,0.8 9.2,0.9 
	9.9,1.1 10.4,1.1 10.5,1.2 10.8,1.3 11.3,1.8 11.6,2.3 11.6,2.6 11.8,2.7 11.7,3.2 11.9,3.7 11.7,4.1 11.7,4.5 11.4,5.2 11.4,5.6 
	11.3,6 11,6.2 10.8,6.8 10.7,7.1 10.3,7.3 10,7.4 9.5,7.5 9.3,7.6 9.1,7.5 9,7.4 8.5,7.4 8.2,7.4 7.8,7.3 7.7,7.1 7.3,6.7 7,6.3 
	6.8,5.9 6.5,5.5 6.4,5.1 6.3,4.2 6,4.1 "/>
</svg>
