<?xml version="1.0" encoding="utf-8"?>
<!-- Generator: Adobe Illustrator 16.0.4, SVG Export Plug-In . SVG Version: 6.00 Build 0)  -->
<!DOCTYPE svg PUBLIC "-//W3C//DTD SVG 1.1//EN" "http://www.w3.org/Graphics/SVG/1.1/DTD/svg11.dtd" [
	<!ENTITY ns_flows "http://ns.adobe.com/Flows/1.0/">
	<!ENTITY ns_extend "http://ns.adobe.com/Extensibility/1.0/">
	<!ENTITY ns_ai "http://ns.adobe.com/AdobeIllustrator/10.0/">
	<!ENTITY ns_graphs "http://ns.adobe.com/Graphs/1.0/">
]>
<svg version="1.1" id="Ebene_1" xmlns:x="&ns_extend;" xmlns:i="&ns_ai;" xmlns:graph="&ns_graphs;"
	 xmlns="http://www.w3.org/2000/svg" xmlns:xlink="http://www.w3.org/1999/xlink" xmlns:a="http://ns.adobe.com/AdobeSVGViewerExtensions/3.0/"
	 x="0px" y="0px" width="20.9px" height="54.9px" viewBox="0 0 20.9 54.9" style="enable-background:new 0 0 20.9 54.9;"
	 xml:space="preserve">
<style type="text/css">
<![CDATA[
	.st0{fill:#D0D0D0;stroke:#030304;stroke-width:0.36;stroke-linecap:round;stroke-linejoin:round;stroke-miterlimit:3.8637;}
	.st1{fill:none;stroke:#080200;stroke-width:0.36;stroke-linecap:round;stroke-linejoin:round;stroke-miterlimit:3.8637;}
	.st2{fill:#D8D7D7;stroke:#FFFFFF;stroke-width:0.36;stroke-linecap:round;stroke-linejoin:round;stroke-miterlimit:3.8637;}
	.st3{fill:none;stroke:#FFFFFF;stroke-width:0.36;stroke-linecap:round;stroke-linejoin:round;stroke-miterlimit:3.8637;}
	.st4{fill:#D0D0D0;stroke:#020203;stroke-width:0.36;stroke-linecap:round;stroke-linejoin:round;stroke-miterlimit:3.8637;}
]]>
</style>
<g>
	<path class="st4" d="M2.1,26.7c-0.06,0-0.1,0.19-0.1,0.25c0.01,0.06,0.06,0.22,0.12,0.22c0,0,5.29,0,5.45,0
		c0.15,0,0.36,0.13,0.36,0.31c0,0.18,0,0.43,0,0.48c0,0.14-0.18,0.27-0.27,0.31c-0.09,0.05-5.57,3.95-5.57,3.95
		c-0.14,0.06-0.13,0.19-0.1,0.3c0.04,0.13,0.16,0.2,0.24,0.17c0,0,5.57-3.96,5.73-4.05c0.32-0.17,0.43-0.38,0.43-0.62
		c0-0.28,0-0.59,0-0.59c0-0.36-0.39-0.71-0.84-0.71C7.53,26.72,2.1,26.7,2.1,26.7z"/>
	<path class="st4" d="M2.09,1.09C2.04,1.09,2,1.26,2,1.32c0.01,0.05,0.06,0.2,0.11,0.2c0,0,4.85,0,4.99,0s0.33,0.11,0.33,0.28
		c0,0.16,0,0.39,0,0.44c0,0.13-0.16,0.25-0.25,0.29c-0.09,0.05-5.1,3.62-5.1,3.62C1.96,6.19,1.96,6.31,1.99,6.41
		C2.03,6.53,2.13,6.6,2.21,6.57c0,0,5.1-3.63,5.25-3.71C7.75,2.7,7.85,2.5,7.85,2.29c0-0.26,0-0.54,0-0.54
		c0-0.33-0.36-0.65-0.77-0.65C7.06,1.1,2.09,1.09,2.09,1.09z"/>
	<path class="st0" d="M19.24,27.99c0-0.02-0.03-0.03-0.05-0.04c-0.01-0.03-0.02-0.05-0.04-0.05H0.76c-0.04,0-0.08,0.1-0.08,0.23
		s0.04,0.23,0.08,0.23h18.01l1.08,25.43H0.76c-0.04,0-0.08,0.1-0.08,0.23s0.04,0.23,0.08,0.23h19.42c0.1,0,0.13-0.11,0.13-0.21
		L19.24,27.99z"/>
	<polyline class="st1" points="7.63,1.12 1.95,1.13 1.95,28.14 19.28,28.14 	"/>
	<line class="st2" x1="1.99" y1="3.16" x2="8.52" y2="3.16"/>
	<line class="st2" x1="1.99" y1="5.2" x2="9.33" y2="5.2"/>
	<line class="st2" x1="1.99" y1="7.24" x2="10.2" y2="7.24"/>
	<line class="st2" x1="1.99" y1="9.28" x2="11.1" y2="9.28"/>
	<line class="st2" x1="1.99" y1="11.32" x2="12.06" y2="11.32"/>
	<line class="st2" x1="1.99" y1="13.36" x2="12.89" y2="13.36"/>
	<line class="st2" x1="1.99" y1="25.61" x2="18.21" y2="25.61"/>
	<line class="st2" x1="3.99" y1="53.99" x2="3.99" y2="27.05"/>
	<line class="st2" x1="6.05" y1="53.99" x2="6.05" y2="27.05"/>
	<line class="st2" x1="8.11" y1="53.99" x2="8.11" y2="27.05"/>
	<line class="st2" x1="13.17" y1="38.54" x2="1.99" y2="38.54"/>
	<line class="st2" x1="11.43" y1="34.5" x2="1.99" y2="34.5"/>
	<line class="st2" x1="12.25" y1="36.52" x2="1.99" y2="36.52"/>
	<line class="st2" x1="14.03" y1="40.57" x2="1.99" y2="40.57"/>
	<line class="st2" x1="14.95" y1="42.59" x2="1.99" y2="42.59"/>
	<line class="st2" x1="15.88" y1="44.61" x2="1.99" y2="44.61"/>
	<line class="st2" x1="16.76" y1="46.64" x2="1.99" y2="46.64"/>
	<line class="st2" x1="17.66" y1="48.66" x2="1.99" y2="48.66"/>
	<line class="st2" x1="18.58" y1="50.69" x2="1.99" y2="50.69"/>
	<line class="st2" x1="19.43" y1="52.71" x2="1.99" y2="52.71"/>
	<line class="st2" x1="6.04" y1="27.04" x2="5.7" y2="1.11"/>
	<line class="st2" x1="3.96" y1="26.71" x2="3.79" y2="1.14"/>
	<line class="st2" x1="1.99" y1="15.4" x2="13.77" y2="15.4"/>
	<line class="st2" x1="1.99" y1="17.45" x2="14.64" y2="17.45"/>
	<line class="st2" x1="1.99" y1="19.48" x2="15.54" y2="19.48"/>
	<line class="st2" x1="1.99" y1="23.57" x2="17.31" y2="23.57"/>
	<line class="st2" x1="10.34" y1="32.47" x2="1.99" y2="32.47"/>
	<line class="st2" x1="9.55" y1="30.45" x2="1.99" y2="30.45"/>
	<line class="st2" x1="2.18" y1="21.52" x2="16.39" y2="21.52"/>
	<line class="st2" x1="10.17" y1="53.99" x2="10.17" y2="31.71"/>
	<line class="st2" x1="12.23" y1="53.99" x2="12.23" y2="36.42"/>
	<line class="st2" x1="14.29" y1="53.99" x2="14.29" y2="40.89"/>
	<line class="st2" x1="16.34" y1="53.99" x2="16.34" y2="45.55"/>
	<line class="st2" x1="18.41" y1="53.99" x2="18.41" y2="50.21"/>
	<line class="st2" x1="10.17" y1="31.8" x2="9.69" y2="5.99"/>
	<line class="st2" x1="14.57" y1="28.3" x2="14.58" y2="17.49"/>
	<line class="st2" x1="16.34" y1="28.3" x2="16.34" y2="21.58"/>
	<line class="st2" x1="12.24" y1="36.52" x2="11.63" y2="10.37"/>
	<line class="st2" x1="14.28" y1="40.77" x2="13.51" y2="14.74"/>
	<line class="st2" x1="16.34" y1="45.64" x2="15.51" y2="19.4"/>
	<line class="st2" x1="18.41" y1="50.33" x2="17.44" y2="23.81"/>
	<line class="st3" x1="18.8" y1="29.02" x2="7.73" y2="3.18"/>
	<line class="st3" x1="18.86" y1="31.05" x2="7.77" y2="5.18"/>
	<line class="st3" x1="18.93" y1="32.99" x2="7.85" y2="7.29"/>
	<line class="st3" x1="18.99" y1="35.02" x2="7.87" y2="9.31"/>
	<line class="st3" x1="19.08" y1="37.05" x2="7.85" y2="11.33"/>
	<line class="st3" x1="19.18" y1="38.96" x2="7.95" y2="13.37"/>
	<line class="st3" x1="19.3" y1="41.08" x2="7.98" y2="15.41"/>
	<line class="st3" x1="19.33" y1="42.96" x2="7.95" y2="17.45"/>
	<line class="st3" x1="19.46" y1="45.11" x2="8" y2="19.47"/>
	<line class="st3" x1="19.52" y1="47.21" x2="8.02" y2="21.49"/>
	<line class="st3" x1="19.68" y1="49.42" x2="8.04" y2="23.54"/>
	<line class="st3" x1="19.71" y1="51.39" x2="8.08" y2="25.58"/>
	<polygon class="st1" points="1.95,54.03 20.13,54.03 8.12,27.02 1.95,27.02 	"/>
	<polygon class="st1" points="1.95,27.02 8.08,27.02 7.66,1.11 1.87,1.11 	"/>
	<line class="st1" x1="19.28" y1="28.14" x2="7.63" y2="1.12"/>
	<path class="st0" d="M2.02,26.33L2.03,53.9c0,0.46-0.32,0.54-0.71,0.54s-0.72-0.08-0.72-0.54L0.59,26.33H2.02z"/>
	<path class="st0" d="M1.91,0.46l0.11,25.82c-0.27,0-1.12,0-1.43,0L0.62,0.46H1.91z"/>
	<line class="st0" x1="18.77" y1="28.08" x2="19.85" y2="53.79"/>
</g>
</svg>
