<?xml version="1.0" encoding="utf-8"?>
<!-- Generator: Adobe Illustrator 16.0.4, SVG Export Plug-In . SVG Version: 6.00 Build 0)  -->
<!DOCTYPE svg PUBLIC "-//W3C//DTD SVG 1.1//EN" "http://www.w3.org/Graphics/SVG/1.1/DTD/svg11.dtd" [
	<!ENTITY ns_flows "http://ns.adobe.com/Flows/1.0/">
	<!ENTITY ns_extend "http://ns.adobe.com/Extensibility/1.0/">
	<!ENTITY ns_ai "http://ns.adobe.com/AdobeIllustrator/10.0/">
	<!ENTITY ns_graphs "http://ns.adobe.com/Graphs/1.0/">
]>
<svg version="1.1" id="Linien" xmlns:x="&ns_extend;" xmlns:i="&ns_ai;" xmlns:graph="&ns_graphs;"
	 xmlns="http://www.w3.org/2000/svg" xmlns:xlink="http://www.w3.org/1999/xlink" xmlns:a="http://ns.adobe.com/AdobeSVGViewerExtensions/3.0/"
	 x="0px" y="0px" width="757.3px" height="567.98px" viewBox="0 0 757.3 567.98" style="enable-background:new 0 0 757.3 567.98;"
	 xml:space="preserve">
<style type="text/css">
<![CDATA[
	.st0{fill:#7FBE6A;}
	.st1{fill:none;stroke:#FFFFFF;stroke-width:2;}
	.st2{fill:#FFFFFF;}
	.st3{fill:#333333;}
	.st4{fill:#A5CF91;}
]]>
</style>
<g>
	<rect x="0" class="st0" width="757.3" height="567.98"/>
</g>
<polygon class="st4" points="7.63,567.98 7.63,0 41.36,0 41.36,567.98 "/>
<polygon class="st4" points="614.9,567.98 614.9,0 648.63,0 648.63,567.98 "/>
<polygon class="st4" points="547.38,567.98 547.38,0 581.11,0 581.11,567.98 "/>
<polygon class="st4" points="479.91,567.98 479.91,0 513.64,0 513.64,567.98 "/>
<polygon class="st4" points="412.43,567.98 412.43,0 446.17,0 446.17,567.98 "/>
<polygon class="st4" points="682.37,567.98 682.37,0 716.1,0 716.1,567.98 "/>
<polygon class="st4" points="277.59,567.98 277.59,0 311.32,0 311.32,567.98 "/>
<polygon class="st4" points="210.07,567.98 210.07,0 243.81,0 243.81,567.98 "/>
<polygon class="st4" points="142.6,567.98 142.6,0 176.33,0 176.33,567.98 "/>
<polygon class="st4" points="75.13,567.98 75.13,0 108.86,0 108.86,567.98 "/>
<polygon class="st4" points="345.06,567.98 345.06,0 378.79,0 378.79,567.98 "/>
<polygon class="st4" points="749.87,567.98 749.87,0 757.3,0 757.3,567.98 "/>
<g>
	<rect x="41.3" y="62.79" class="st1" width="674.71" height="460.03"/>
	<polyline class="st1" points="716.01,416.46 614.8,416.46 614.8,169.15 716.01,169.15 	"/>
	<polyline class="st1" points="716.01,348.98 682.27,348.98 682.27,236.62 716.01,236.62 	"/>
	<line class="st1" x1="378.65" y1="522.82" x2="378.65" y2="62.79"/>
	<circle class="st1" cx="378.65" cy="292.8" r="56.12"/>
	<path class="st1" d="M41.3,516.68c3.39,0,6.13,2.74,6.13,6.13"/>
	<path class="st1" d="M47.43,62.79c0,3.39-2.75,6.13-6.13,6.13"/>
	<path class="st1" d="M716.01,68.92c-3.39,0-6.13-2.75-6.13-6.13"/>
	<path class="st1" d="M709.87,522.81c0-3.39,2.75-6.13,6.13-6.13"/>
	<path class="st1" d="M614.76,337.62c-13.57-10.24-22.35-26.51-22.35-44.82c0-18.32,8.77-34.58,22.35-44.83"/>
	<circle class="st2" cx="648.53" cy="292.8" r="2.15"/>
	<polyline class="st1" points="41.3,169.15 142.5,169.15 142.5,416.46 41.3,416.46 	"/>
	<polyline class="st1" points="41.3,236.62 75.03,236.62 75.03,348.99 41.3,348.99 	"/>
	<path class="st1" d="M142.55,247.98c13.57,10.25,22.35,26.51,22.35,44.83c0,18.31-8.77,34.58-22.35,44.82"/>
	<circle class="st2" cx="108.77" cy="292.81" r="2.15"/>
	<circle class="st2" cx="378.65" cy="292.8" r="2.15"/>
</g>
<g>
	<path class="st3" d="M593.61,542.31c-0.23-0.1-0.48-0.16-0.71-0.16c-0.6,0-0.88,0.42-0.88,1.22v1h1.34v0.87h-1.34v5.45h-1.07v-5.45
		h-0.87v-0.81l0.86-0.06v-1c0-1.29,0.58-2.09,1.85-2.09c0.39,0,0.77,0.09,1.05,0.21L593.61,542.31z"/>
	<path class="st3" d="M594.27,544.38h1.08v3.86c0,1.18,0.35,1.69,1.18,1.69c0.65,0,1.11-0.32,1.7-1.07v-4.49h1.07v6.32h-0.88
		l-0.09-0.99h-0.04c-0.59,0.69-1.21,1.14-2.08,1.14c-1.34,0-1.94-0.86-1.94-2.47V544.38z"/>
	<path class="st3" d="M601.26,549.26c0.54,0.44,1.1,0.75,1.86,0.75c0.83,0,1.25-0.44,1.25-0.99c0-0.65-0.75-0.94-1.44-1.2
		c-0.9-0.33-1.89-0.75-1.89-1.82c0-1.01,0.81-1.79,2.17-1.79c0.79,0,1.48,0.33,1.96,0.71l-0.51,0.68c-0.43-0.33-0.88-0.56-1.44-0.56
		c-0.79,0-1.16,0.43-1.16,0.91c0,0.59,0.69,0.82,1.4,1.09c0.91,0.34,1.92,0.71,1.92,1.91c0,1.03-0.82,1.88-2.31,1.88
		c-0.9,0-1.76-0.38-2.35-0.87L601.26,549.26z"/>
	<path class="st3" d="M606.71,549.26c0.55,0.44,1.1,0.75,1.86,0.75c0.83,0,1.25-0.44,1.25-0.99c0-0.65-0.75-0.94-1.44-1.2
		c-0.9-0.33-1.88-0.75-1.88-1.82c0-1.01,0.81-1.79,2.17-1.79c0.79,0,1.48,0.33,1.96,0.71l-0.51,0.68c-0.43-0.33-0.88-0.56-1.44-0.56
		c-0.79,0-1.16,0.43-1.16,0.91c0,0.59,0.69,0.82,1.4,1.09c0.91,0.34,1.92,0.71,1.92,1.91c0,1.03-0.82,1.88-2.31,1.88
		c-0.9,0-1.75-0.38-2.35-0.87L606.71,549.26z"/>
	<path class="st3" d="M612.33,541.43h1.07v2.52l-0.03,1.14c0.57-0.51,1.27-0.88,1.98-0.88c1.64,0,2.51,1.26,2.51,3.21
		c0,2.16-1.29,3.42-2.73,3.42c-0.58,0-1.25-0.29-1.81-0.78h-0.04l-0.09,0.62h-0.86V541.43z M614.94,549.96
		c1.04,0,1.81-0.95,1.81-2.51c0-1.39-0.47-2.33-1.66-2.33c-0.53,0-1.09,0.3-1.69,0.86v3.31
		C613.95,549.77,614.52,549.96,614.94,549.96z"/>
	<path class="st3" d="M622.93,546.69c0-0.81-0.27-1.59-1.3-1.59c-0.74,0-1.39,0.34-1.89,0.68l-0.43-0.74
		c0.58-0.38,1.47-0.82,2.48-0.82c1.55,0,2.2,1.03,2.2,2.6v3.87h-0.88l-0.09-0.75h-0.03c-0.61,0.49-1.31,0.91-2.09,0.91
		c-1.07,0-1.86-0.66-1.86-1.79C619.05,547.67,620.24,547,622.93,546.69z M621.21,550c0.61,0,1.12-0.3,1.73-0.84v-1.76
		c-2.12,0.26-2.83,0.78-2.83,1.59C620.1,549.69,620.58,550,621.21,550z"/>
	<path class="st3" d="M626.02,541.43h1.06v8.06c0,0.34,0.14,0.47,0.3,0.47c0.07,0,0.12,0,0.23-0.03l0.14,0.81
		c-0.14,0.07-0.33,0.1-0.61,0.1c-0.81,0-1.13-0.51-1.13-1.43L626.02,541.43L626.02,541.43L626.02,541.43z"/>
	<path class="st3" d="M629.33,541.43h1.07v8.06c0,0.34,0.14,0.47,0.3,0.47c0.06,0,0.12,0,0.23-0.03l0.14,0.81
		c-0.14,0.07-0.33,0.1-0.61,0.1c-0.81,0-1.13-0.51-1.13-1.43V541.43z"/>
	<path class="st3" d="M632.83,545.25h-0.94v-0.81l0.99-0.06l0.13-1.77h0.9v1.77h1.7v0.87h-1.7v3.51c0,0.78,0.25,1.22,0.97,1.22
		c0.22,0,0.51-0.09,0.71-0.17l0.21,0.81c-0.35,0.12-0.78,0.23-1.17,0.23c-1.35,0-1.81-0.86-1.81-2.11L632.83,545.25L632.83,545.25z"
		/>
	<path class="st3" d="M637.04,544.38h0.88l0.09,1.14h0.04c0.43-0.79,1.08-1.3,1.79-1.3c0.27,0,0.47,0.04,0.68,0.13l-0.21,0.94
		c-0.21-0.06-0.35-0.1-0.61-0.1c-0.53,0-1.17,0.39-1.6,1.46v4.06h-1.07L637.04,544.38L637.04,544.38z"/>
	<path class="st3" d="M644.8,546.69c0-0.81-0.27-1.59-1.3-1.59c-0.74,0-1.39,0.34-1.89,0.68l-0.43-0.74
		c0.58-0.38,1.47-0.82,2.48-0.82c1.55,0,2.2,1.03,2.2,2.6v3.87h-0.88l-0.09-0.75h-0.03c-0.61,0.49-1.31,0.91-2.09,0.91
		c-1.07,0-1.86-0.66-1.86-1.79C640.91,547.67,642.11,547,644.8,546.69z M643.07,550c0.61,0,1.12-0.3,1.73-0.84v-1.76
		c-2.12,0.26-2.83,0.78-2.83,1.59C641.97,549.69,642.45,550,643.07,550z"/>
	<path class="st3" d="M647.69,542.38c0-0.42,0.33-0.69,0.74-0.69s0.74,0.27,0.74,0.69c0,0.4-0.33,0.69-0.74,0.69
		S647.69,542.79,647.69,542.38z M647.88,544.38h1.07v6.32h-1.07V544.38z"/>
	<path class="st3" d="M651.08,544.38h0.88l0.09,0.91h0.04c0.6-0.6,1.25-1.07,2.12-1.07c1.33,0,1.92,0.86,1.92,2.47v4h-1.07v-3.86
		c0-1.18-0.36-1.69-1.2-1.69c-0.65,0-1.09,0.34-1.73,0.97v4.58h-1.05V544.38z"/>
	<path class="st3" d="M658,542.38c0-0.42,0.33-0.69,0.74-0.69s0.74,0.27,0.74,0.69c0,0.4-0.33,0.69-0.74,0.69S658,542.79,658,542.38
		z M658.19,544.38h1.07v6.32h-1.07V544.38z"/>
	<path class="st3" d="M661.39,544.38h0.88l0.09,0.91h0.04c0.6-0.6,1.25-1.07,2.12-1.07c1.33,0,1.92,0.86,1.92,2.47v4h-1.07v-3.86
		c0-1.18-0.36-1.69-1.2-1.69c-0.65,0-1.09,0.34-1.73,0.97v4.58h-1.07v-6.31H661.39L661.39,544.38z"/>
	<path class="st3" d="M668.94,550.47v-0.05c-0.31-0.19-0.56-0.53-0.56-1.03c0-0.53,0.36-0.95,0.69-1.17v-0.05
		c-0.42-0.34-0.82-0.95-0.82-1.7c0-1.38,1.09-2.25,2.38-2.25c0.35,0,0.66,0.07,0.9,0.16h2.2v0.82h-1.3c0.3,0.29,0.52,0.77,0.52,1.3
		c0,1.35-1.03,2.2-2.31,2.2c-0.31,0-0.66-0.08-0.95-0.22c-0.22,0.19-0.4,0.4-0.4,0.75c0,0.4,0.26,0.69,1.12,0.69h1.22
		c1.47,0,2.21,0.46,2.21,1.51c0,1.17-1.23,2.18-3.2,2.18c-1.55,0-2.61-0.61-2.61-1.7C668.02,551.38,668.37,550.86,668.94,550.47z
		 M670.79,552.86c1.21,0,2-0.62,2-1.29c0-0.58-0.45-0.78-1.27-0.78h-1.09c-0.25,0-0.55-0.03-0.82-0.1c-0.46,0.33-0.65,0.7-0.65,1.07
		C668.95,552.43,669.64,552.86,670.79,552.86z M671.97,546.47c0-0.92-0.6-1.47-1.34-1.47c-0.74,0-1.34,0.55-1.34,1.47
		s0.61,1.51,1.34,1.51C671.36,547.97,671.97,547.39,671.97,546.47z"/>
	<path class="st3" d="M674.52,547.02h2.99v0.82h-2.99V547.02z"/>
	<path class="st3" d="M679.54,550.47v-0.05c-0.31-0.19-0.56-0.53-0.56-1.03c0-0.53,0.36-0.95,0.69-1.17v-0.05
		c-0.42-0.34-0.82-0.95-0.82-1.7c0-1.38,1.09-2.25,2.38-2.25c0.35,0,0.66,0.07,0.9,0.16h2.2v0.82h-1.3c0.3,0.29,0.52,0.77,0.52,1.3
		c0,1.35-1.03,2.2-2.31,2.2c-0.31,0-0.66-0.08-0.95-0.22c-0.22,0.19-0.4,0.4-0.4,0.75c0,0.4,0.26,0.69,1.12,0.69h1.22
		c1.47,0,2.21,0.46,2.21,1.51c0,1.17-1.24,2.18-3.2,2.18c-1.55,0-2.61-0.61-2.61-1.7C678.61,551.38,678.96,550.86,679.54,550.47z
		 M681.38,552.86c1.21,0,2-0.62,2-1.29c0-0.58-0.46-0.78-1.27-0.78h-1.09c-0.25,0-0.55-0.03-0.82-0.1c-0.45,0.33-0.65,0.7-0.65,1.07
		C679.55,552.43,680.24,552.86,681.38,552.86z M682.57,546.47c0-0.92-0.6-1.47-1.34-1.47s-1.34,0.55-1.34,1.47s0.61,1.51,1.34,1.51
		C681.95,547.97,682.57,547.39,682.57,546.47z"/>
	<path class="st3" d="M685.65,544.38h0.88l0.09,1.14h0.04c0.43-0.79,1.08-1.3,1.79-1.3c0.27,0,0.47,0.04,0.68,0.13l-0.21,0.94
		c-0.21-0.06-0.35-0.1-0.61-0.1c-0.53,0-1.17,0.39-1.6,1.46v4.06h-1.07L685.65,544.38L685.65,544.38L685.65,544.38z"/>
	<path class="st3" d="M693.41,546.69c0-0.81-0.27-1.59-1.3-1.59c-0.74,0-1.39,0.34-1.88,0.68l-0.43-0.74
		c0.59-0.38,1.47-0.82,2.48-0.82c1.55,0,2.2,1.03,2.2,2.6v3.87h-0.88l-0.09-0.75h-0.03c-0.61,0.49-1.31,0.91-2.09,0.91
		c-1.07,0-1.86-0.66-1.86-1.79C689.52,547.67,690.72,547,693.41,546.69z M691.68,550c0.61,0,1.12-0.3,1.73-0.84v-1.76
		c-2.12,0.26-2.83,0.78-2.83,1.59C690.57,549.69,691.05,550,691.68,550z"/>
	<path class="st3" d="M697.55,551.22v2.13h-1.07v-8.98h0.88l0.09,0.73h0.04c0.57-0.48,1.27-0.88,2.02-0.88c1.62,0,2.5,1.26,2.5,3.22
		c0,2.14-1.29,3.41-2.73,3.41c-0.58,0-1.17-0.27-1.75-0.73L697.55,551.22z M699.1,549.96c1.04,0,1.81-0.95,1.81-2.51
		c0-1.39-0.47-2.33-1.66-2.33c-0.53,0-1.07,0.3-1.69,0.86v3.31C698.13,549.77,698.68,549.96,699.1,549.96z"/>
	<path class="st3" d="M703.7,541.43h1.07v2.52l-0.04,1.3c0.6-0.57,1.23-1.04,2.11-1.04c1.33,0,1.92,0.86,1.92,2.47v4h-1.07v-3.86
		c0-1.18-0.36-1.69-1.2-1.69c-0.65,0-1.09,0.34-1.73,0.97v4.58h-1.07L703.7,541.43L703.7,541.43z"/>
	<path class="st3" d="M710.58,542.38c0-0.42,0.33-0.69,0.74-0.69s0.74,0.27,0.74,0.69c0,0.4-0.33,0.69-0.74,0.69
		S710.58,542.79,710.58,542.38z M710.77,544.38h1.07v6.32h-1.07V544.38z"/>
	<path class="st3" d="M716.55,544.22c0.83,0,1.42,0.35,1.85,0.75l-0.53,0.69c-0.38-0.33-0.77-0.56-1.27-0.56
		c-1.14,0-1.98,0.99-1.98,2.44c0,1.44,0.79,2.42,1.95,2.42c0.6,0,1.11-0.3,1.48-0.64l0.48,0.7c-0.57,0.51-1.3,0.82-2.05,0.82
		c-1.68,0-2.96-1.21-2.96-3.3C713.5,545.42,714.92,544.22,716.55,544.22z"/>
	<path class="st3" d="M719.73,549.26c0.54,0.44,1.1,0.75,1.86,0.75c0.83,0,1.25-0.44,1.25-0.99c0-0.65-0.75-0.94-1.44-1.2
		c-0.9-0.33-1.89-0.75-1.89-1.82c0-1.01,0.81-1.79,2.17-1.79c0.79,0,1.48,0.33,1.96,0.71l-0.51,0.68c-0.43-0.33-0.88-0.56-1.44-0.56
		c-0.79,0-1.16,0.43-1.16,0.91c0,0.59,0.69,0.82,1.4,1.09c0.91,0.34,1.92,0.71,1.92,1.91c0,1.03-0.82,1.88-2.31,1.88
		c-0.9,0-1.76-0.38-2.35-0.87L719.73,549.26z"/>
	<path class="st3" d="M725.91,549.21c0.42,0,0.77,0.34,0.77,0.83c0,0.47-0.35,0.81-0.77,0.81c-0.43,0-0.78-0.34-0.78-0.81
		C725.13,549.55,725.48,549.21,725.91,549.21z"/>
	<path class="st3" d="M730.77,544.22c0.73,0,1.21,0.27,1.77,0.73l-0.05-1.08v-2.43h1.08v9.26h-0.88l-0.09-0.74h-0.04
		c-0.49,0.48-1.17,0.9-1.91,0.9c-1.59,0-2.61-1.2-2.61-3.3C728.02,545.5,729.33,544.22,730.77,544.22z M730.87,549.96
		c0.58,0,1.09-0.29,1.61-0.87v-3.3c-0.53-0.48-1.01-0.66-1.53-0.66c-1.01,0-1.82,0.98-1.82,2.42
		C729.13,549.04,729.77,549.96,730.87,549.96z"/>
	<path class="st3" d="M738.06,544.22c1.61,0,2.52,1.16,2.52,2.96c0,0.22-0.01,0.43-0.04,0.58h-4.26c0.08,1.37,0.9,2.22,2.11,2.22
		c0.6,0,1.11-0.19,1.57-0.49l0.38,0.7c-0.55,0.35-1.22,0.65-2.08,0.65c-1.69,0-3.03-1.24-3.03-3.3S736.62,544.22,738.06,544.22z
		 M739.65,547.06c0-1.29-0.57-2-1.56-2c-0.88,0-1.69,0.73-1.82,2H739.65z"/>
</g>
</svg>
