<?xml version="1.0" encoding="UTF-8"?>
<svg id="Streifen" xmlns="http://www.w3.org/2000/svg" version="1.1" viewBox="0 0 757.3 568">
  <!-- Generator: Adobe Illustrator 29.1.0, SVG Export Plug-In . SVG Version: 2.1.0 Build 142)  -->
  <defs>
    <style>
      .st0 {
        fill: #92dab0;
      }

      .st1 {
        fill: #b2e7c7;
      }
    </style>
  </defs>
  <rect class="st1" y="-.5" width="757.3" height="568"/>
  <rect class="st0" y="-.5" width="34.7" height="568"/>
  <polygon class="st0" points="619.5 567.5 619.5 -.5 653.9 -.5 653.9 567.5 619.5 567.5"/>
  <polygon class="st0" points="550.6 567.5 550.6 -.5 585 -.5 585 567.5 550.6 567.5"/>
  <polygon class="st0" points="481.8 567.5 481.8 -.5 516.2 -.5 516.2 567.5 481.8 567.5"/>
  <polygon class="st0" points="413 567.5 413 -.5 447.4 -.5 447.4 567.5 413 567.5"/>
  <polygon class="st0" points="688.3 567.5 688.3 -.5 722.7 -.5 722.7 567.5 688.3 567.5"/>
  <polygon class="st0" points="275.5 567.5 275.5 -.5 309.9 -.5 309.9 567.5 275.5 567.5"/>
  <polygon class="st0" points="206.7 567.5 206.7 -.5 241.1 -.5 241.1 567.5 206.7 567.5"/>
  <polygon class="st0" points="137.9 567.5 137.9 -.5 172.3 -.5 172.3 567.5 137.9 567.5"/>
  <polygon class="st0" points="69.1 567.5 69.1 -.5 103.5 -.5 103.5 567.5 69.1 567.5"/>
  <polygon class="st0" points="344.3 567.5 344.3 -.5 378.7 -.5 378.7 567.5 344.3 567.5"/>
</svg>