<?xml version="1.0" encoding="utf-8"?>
<!-- Generator: Adobe Illustrator 27.8.0, SVG Export Plug-In . SVG Version: 6.00 Build 0)  -->
<svg version="1.1" id="Streifen" xmlns="http://www.w3.org/2000/svg" xmlns:xlink="http://www.w3.org/1999/xlink" x="0px" y="0px"
	 viewBox="0 0 757.3 568" style="enable-background:new 0 0 757.3 568;" xml:space="preserve">
<style type="text/css">
	.st0{fill:#77AD63;}
	.st1{fill:#A5CF91;}
</style>
<g>
	<rect y="-0.5" class="st0" width="757.3" height="568"/>
</g>
<rect y="-0.5" class="st1" width="34.7" height="568"/>
<polygon class="st1" points="619.5,567.5 619.5,-0.5 653.9,-0.5 653.9,567.5 "/>
<polygon class="st1" points="550.6,567.5 550.6,-0.5 585,-0.5 585,567.5 "/>
<polygon class="st1" points="481.8,567.5 481.8,-0.5 516.2,-0.5 516.2,567.5 "/>
<polygon class="st1" points="413,567.5 413,-0.5 447.4,-0.5 447.4,567.5 "/>
<polygon class="st1" points="688.3,567.5 688.3,-0.5 722.7,-0.5 722.7,567.5 "/>
<polygon class="st1" points="275.5,567.5 275.5,-0.5 309.9,-0.5 309.9,567.5 "/>
<polygon class="st1" points="206.7,567.5 206.7,-0.5 241.1,-0.5 241.1,567.5 "/>
<polygon class="st1" points="137.9,567.5 137.9,-0.5 172.3,-0.5 172.3,567.5 "/>
<polygon class="st1" points="69.1,567.5 69.1,-0.5 103.5,-0.5 103.5,567.5 "/>
<polygon class="st1" points="344.3,567.5 344.3,-0.5 378.7,-0.5 378.7,567.5 "/>
</svg>
