<?xml version="1.0" encoding="utf-8"?>
<!-- Generator: Adobe Illustrator 27.8.0, SVG Export Plug-In . SVG Version: 6.00 Build 0)  -->
<svg version="1.1" id="Linien" xmlns="http://www.w3.org/2000/svg" xmlns:xlink="http://www.w3.org/1999/xlink" x="0px" y="0px"
	 viewBox="0 0 751.2 751.2" style="enable-background:new 0 0 751.2 751.2;" xml:space="preserve">
<style type="text/css">
	.st0{fill:#77AD63;}
	.st1{fill:#A5CF91;}
	.st2{fill:none;stroke:#FFFFFF;stroke-width:2;}
	.st3{fill:#FFFFFF;}
</style>
<g>
	<rect y="0" class="st0" width="751.2" height="751.2"/>
</g>
<polygon class="st1" points="9.6,751.2 9.6,0 56.9,0 56.9,751.2 "/>
<polygon class="st1" points="672.8,751.2 672.8,0 720.2,0 720.2,751.2 "/>
<polygon class="st1" points="578,751.2 578,0 625.4,0 625.4,751.2 "/>
<polygon class="st1" points="388.7,751.2 388.7,0 436,0 436,751.2 "/>
<polygon class="st1" points="293.9,751.2 293.9,0 341.2,0 341.2,751.2 "/>
<polygon class="st1" points="199.1,751.2 199.1,0 246.5,0 246.5,751.2 "/>
<polygon class="st1" points="104.3,751.2 104.3,0 151.7,0 151.7,751.2 "/>
<polygon class="st1" points="483.4,751.2 483.4,0 530.8,0 530.8,751.2 "/>
<g>
	<polyline class="st2" points="751.2,723.8 56.8,723.8 56.8,77.8 751.2,77.8 	"/>
	<line class="st2" x1="530.6" y1="723.8" x2="530.6" y2="77.8"/>
	<path class="st2" d="M530.6,322c43.5,0,78.8,35.3,78.8,78.8c0,43.5-35.3,78.8-78.8,78.8s-78.8-35.3-78.8-78.8
		C451.8,357.3,487.1,322,530.6,322z"/>
	<path class="st2" d="M56.8,715.2c4.8,0,8.6,3.9,8.6,8.6"/>
	<path class="st2" d="M65.5,77.8c0,4.8-3.9,8.6-8.6,8.6"/>
	<polyline class="st2" points="56.8,227.2 199,227.2 199,574.5 56.8,574.5 	"/>
	<polyline class="st2" points="56.8,321.9 104.2,321.9 104.2,479.7 56.8,479.7 	"/>
	<path class="st2" d="M199,337.9c19.1,14.4,31.4,37.2,31.4,63s-12.3,48.6-31.4,63"/>
	<circle class="st3" cx="151.6" cy="400.8" r="3"/>
	<circle class="st3" cx="530.6" cy="400.8" r="3"/>
</g>
</svg>
