<?xml version="1.0" encoding="UTF-8"?>
<svg id="Linien" xmlns="http://www.w3.org/2000/svg" version="1.1" viewBox="0 0 751.2 751.2">
  <!-- Generator: Adobe Illustrator 29.1.0, SVG Export Plug-In . SVG Version: 2.1.0 Build 142)  -->
  <defs>
    <style>
      .st0 {
        fill: #92dab0;
      }

      .st1 {
        fill: #fff;
      }

      .st2 {
        fill: #b2e7c7;
      }

      .st3 {
        fill: none;
        stroke: #fff;
        stroke-width: 2px;
      }
    </style>
  </defs>
  <rect class="st2" y="0" width="751.2" height="751.2"/>
  <polygon class="st0" points="9.6 751.2 9.6 0 56.9 0 56.9 751.2 9.6 751.2"/>
  <polygon class="st0" points="672.8 751.2 672.8 0 720.2 0 720.2 751.2 672.8 751.2"/>
  <polygon class="st0" points="578 751.2 578 0 625.4 0 625.4 751.2 578 751.2"/>
  <polygon class="st0" points="388.7 751.2 388.7 0 436 0 436 751.2 388.7 751.2"/>
  <polygon class="st0" points="293.9 751.2 293.9 0 341.2 0 341.2 751.2 293.9 751.2"/>
  <polygon class="st0" points="199.1 751.2 199.1 0 246.5 0 246.5 751.2 199.1 751.2"/>
  <polygon class="st0" points="104.3 751.2 104.3 0 151.7 0 151.7 751.2 104.3 751.2"/>
  <polygon class="st0" points="483.4 751.2 483.4 0 530.8 0 530.8 751.2 483.4 751.2"/>
  <g>
    <polyline class="st3" points="751.2 723.8 56.8 723.8 56.8 77.8 751.2 77.8"/>
    <line class="st3" x1="530.6" y1="723.8" x2="530.6" y2="77.8"/>
    <path class="st3" d="M530.6,322c43.5,0,78.8,35.3,78.8,78.8s-35.3,78.8-78.8,78.8-78.8-35.3-78.8-78.8,35.3-78.8,78.8-78.8Z"/>
    <path class="st3" d="M56.8,715.2c4.8,0,8.6,3.9,8.6,8.6"/>
    <path class="st3" d="M65.5,77.8c0,4.8-3.9,8.6-8.6,8.6"/>
    <polyline class="st3" points="56.8 227.2 199 227.2 199 574.5 56.8 574.5"/>
    <polyline class="st3" points="56.8 321.9 104.2 321.9 104.2 479.7 56.8 479.7"/>
    <path class="st3" d="M199,337.9c19.1,14.4,31.4,37.2,31.4,63s-12.3,48.6-31.4,63"/>
    <circle class="st1" cx="151.6" cy="400.8" r="3"/>
    <circle class="st1" cx="530.6" cy="400.8" r="3"/>
  </g>
</svg>