<?xml version="1.0" encoding="utf-8"?>
<!-- Generator: Adobe Illustrator 16.0.4, SVG Export Plug-In . SVG Version: 6.00 Build 0)  -->
<!DOCTYPE svg PUBLIC "-//W3C//DTD SVG 1.1//EN" "http://www.w3.org/Graphics/SVG/1.1/DTD/svg11.dtd" [
	<!ENTITY ns_flows "http://ns.adobe.com/Flows/1.0/">
	<!ENTITY ns_extend "http://ns.adobe.com/Extensibility/1.0/">
	<!ENTITY ns_ai "http://ns.adobe.com/AdobeIllustrator/10.0/">
	<!ENTITY ns_graphs "http://ns.adobe.com/Graphs/1.0/">
]>
<svg version="1.1" id="Linien" xmlns:x="&ns_extend;" xmlns:i="&ns_ai;" xmlns:graph="&ns_graphs;"
	 xmlns="http://www.w3.org/2000/svg" xmlns:xlink="http://www.w3.org/1999/xlink" xmlns:a="http://ns.adobe.com/AdobeSVGViewerExtensions/3.0/"
	 x="0px" y="0px" width="751.18px" height="751.18px" viewBox="0 0 751.18 751.18"
	 style="enable-background:new 0 0 751.18 751.18;" xml:space="preserve">
<style type="text/css">
<![CDATA[
	.st0{fill:#7FBE6A;}
	.st1{fill:none;stroke:#FFFFFF;stroke-width:2;}
	.st2{fill:#FFFFFF;}
	.st3{fill:#333333;}
	.st4{fill:#A5CF91;}
]]>
</style>
<g>
	<rect x="0" class="st0" width="751.18" height="751.18"/>
</g>
<polygon class="st4" points="9.56,751.18 9.56,0 56.94,0 56.94,751.18 "/>
<polygon class="st4" points="672.78,751.18 672.78,0 720.15,0 720.15,751.18 "/>
<polygon class="st4" points="578.03,751.18 578.03,0 625.4,0 625.4,751.18 "/>
<polygon class="st4" points="388.66,751.18 388.66,0 436.04,0 436.04,751.18 "/>
<polygon class="st4" points="293.85,751.18 293.85,0 341.23,0 341.23,751.18 "/>
<polygon class="st4" points="199.1,751.18 199.1,0 246.48,0 246.48,751.18 "/>
<polygon class="st4" points="104.35,751.18 104.35,0 151.73,0 151.73,751.18 "/>
<polygon class="st4" points="483.41,751.18 483.41,0 530.79,0 530.79,751.18 "/>
<g>
	<polyline class="st1" points="751.18,723.83 56.84,723.83 56.84,77.81 751.18,77.81 	"/>
	<line class="st1" x1="530.59" y1="723.83" x2="530.59" y2="77.81"/>
	<path class="st1" d="M530.59,322.01c43.53,0,78.81,35.29,78.81,78.81c0,43.53-35.28,78.81-78.81,78.81
		c-43.53,0-78.82-35.29-78.82-78.81C451.78,357.29,487.06,322.01,530.59,322.01z"/>
	<path class="st1" d="M56.85,715.21c4.76,0,8.61,3.86,8.61,8.61"/>
	<path class="st1" d="M65.46,77.81c0,4.76-3.86,8.61-8.61,8.61"/>
	<polyline class="st1" points="56.84,227.18 198.97,227.18 198.97,574.47 56.84,574.47 	"/>
	<polyline class="st1" points="56.84,321.93 104.22,321.93 104.22,479.73 56.84,479.73 	"/>
	<path class="st1" d="M199.03,337.88c19.06,14.39,31.38,37.23,31.38,62.95c0,25.72-12.32,48.56-31.38,62.95"/>
	<circle class="st2" cx="151.6" cy="400.83" r="3.02"/>
	<circle class="st2" cx="530.59" cy="400.82" r="3.01"/>
</g>
<g>
	<path class="st3" d="M27.31,720.3c-0.1,0.23-0.16,0.48-0.16,0.71c0,0.6,0.42,0.88,1.22,0.88h1v-1.34h0.87v1.34h5.45v1.07h-5.45
		v0.87h-0.81l-0.06-0.86h-1c-1.29,0-2.09-0.58-2.09-1.85c0-0.39,0.09-0.77,0.21-1.05L27.31,720.3z"/>
	<path class="st3" d="M29.37,719.64v-1.08h3.86c1.18,0,1.69-0.35,1.69-1.18c0-0.65-0.32-1.11-1.07-1.7h-4.49v-1.07h6.32v0.88
		l-0.99,0.09v0.04c0.69,0.59,1.14,1.21,1.14,2.08c0,1.34-0.86,1.94-2.47,1.94H29.37z"/>
	<path class="st3" d="M34.26,712.65c0.44-0.54,0.75-1.1,0.75-1.86c0-0.83-0.44-1.25-0.99-1.25c-0.65,0-0.94,0.75-1.2,1.44
		c-0.33,0.9-0.75,1.89-1.82,1.89c-1.01,0-1.79-0.81-1.79-2.17c0-0.79,0.33-1.48,0.71-1.96l0.68,0.51c-0.33,0.43-0.56,0.88-0.56,1.44
		c0,0.79,0.43,1.16,0.91,1.16c0.59,0,0.82-0.69,1.09-1.4c0.34-0.91,0.71-1.92,1.91-1.92c1.03,0,1.88,0.82,1.88,2.31
		c0,0.9-0.38,1.76-0.87,2.35L34.26,712.65z"/>
	<path class="st3" d="M34.26,707.2c0.44-0.55,0.75-1.1,0.75-1.86c0-0.83-0.44-1.25-0.99-1.25c-0.65,0-0.94,0.75-1.2,1.44
		c-0.33,0.9-0.75,1.88-1.82,1.88c-1.01,0-1.79-0.81-1.79-2.17c0-0.79,0.33-1.48,0.71-1.96l0.68,0.51c-0.33,0.43-0.56,0.88-0.56,1.44
		c0,0.79,0.43,1.16,0.91,1.16c0.59,0,0.82-0.69,1.09-1.4c0.34-0.91,0.71-1.92,1.91-1.92c1.03,0,1.88,0.82,1.88,2.31
		c0,0.9-0.38,1.75-0.87,2.35L34.26,707.2z"/>
	<path class="st3" d="M26.43,701.58v-1.07h2.52l1.14,0.03c-0.51-0.57-0.88-1.27-0.88-1.98c0-1.64,1.26-2.51,3.21-2.51
		c2.16,0,3.42,1.29,3.42,2.73c0,0.58-0.29,1.25-0.78,1.81v0.04l0.62,0.09v0.86H26.43L26.43,701.58z M34.95,698.97
		c0-1.04-0.95-1.81-2.51-1.81c-1.39,0-2.33,0.47-2.33,1.66c0,0.53,0.3,1.09,0.86,1.69h3.31C34.77,699.96,34.95,699.39,34.95,698.97z
		"/>
	<path class="st3" d="M31.69,690.98c-0.81,0-1.59,0.27-1.59,1.3c0,0.74,0.34,1.39,0.68,1.89l-0.74,0.43
		c-0.38-0.58-0.82-1.47-0.82-2.48c0-1.55,1.03-2.2,2.6-2.2h3.87v0.88l-0.75,0.09v0.03c0.49,0.61,0.91,1.31,0.91,2.09
		c0,1.07-0.66,1.86-1.79,1.86C32.67,694.86,31.99,693.67,31.69,690.98z M34.99,692.7c0-0.61-0.3-1.12-0.84-1.73h-1.76
		c0.26,2.12,0.78,2.83,1.59,2.83C34.69,693.81,34.99,693.33,34.99,692.7z"/>
	<path class="st3" d="M26.43,687.89v-1.06h8.06c0.34,0,0.47-0.14,0.47-0.3c0-0.07,0-0.12-0.03-0.23l0.81-0.14
		c0.07,0.14,0.1,0.33,0.1,0.61c0,0.81-0.51,1.13-1.43,1.13L26.43,687.89L26.43,687.89L26.43,687.89z"/>
	<path class="st3" d="M26.43,684.58v-1.07h8.06c0.34,0,0.47-0.14,0.47-0.3c0-0.06,0-0.12-0.03-0.23l0.81-0.14
		c0.07,0.14,0.1,0.33,0.1,0.61c0,0.81-0.51,1.13-1.43,1.13H26.43L26.43,684.58z"/>
	<path class="st3" d="M30.24,681.08v0.94h-0.81l-0.06-0.99l-1.77-0.13V680h1.77v-1.7h0.87v1.7h3.51c0.78,0,1.22-0.25,1.22-0.97
		c0-0.22-0.09-0.51-0.17-0.71l0.81-0.21c0.12,0.35,0.23,0.78,0.23,1.17c0,1.35-0.86,1.81-2.11,1.81L30.24,681.08L30.24,681.08z"/>
	<path class="st3" d="M29.37,676.87v-0.88l1.14-0.09v-0.04c-0.79-0.43-1.3-1.08-1.3-1.79c0-0.27,0.04-0.47,0.13-0.68l0.94,0.21
		c-0.06,0.21-0.1,0.35-0.1,0.61c0,0.53,0.39,1.17,1.46,1.6h4.06v1.07L29.37,676.87L29.37,676.87z"/>
	<path class="st3" d="M31.69,669.11c-0.81,0-1.59,0.27-1.59,1.3c0,0.74,0.34,1.39,0.68,1.89l-0.74,0.43
		c-0.38-0.58-0.82-1.47-0.82-2.48c0-1.55,1.03-2.2,2.6-2.2h3.87v0.88l-0.75,0.09v0.03c0.49,0.61,0.91,1.31,0.91,2.09
		c0,1.07-0.66,1.86-1.79,1.86C32.67,673,31.99,671.8,31.69,669.11z M34.99,670.84c0-0.61-0.3-1.12-0.84-1.73h-1.76
		c0.26,2.12,0.78,2.83,1.59,2.83C34.69,671.94,34.99,671.46,34.99,670.84z"/>
	<path class="st3" d="M27.38,666.22c-0.42,0-0.69-0.33-0.69-0.74s0.27-0.74,0.69-0.74c0.4,0,0.69,0.33,0.69,0.74
		S27.79,666.22,27.38,666.22z M29.37,666.03v-1.07h6.32v1.07H29.37z"/>
	<path class="st3" d="M29.37,662.83v-0.88l0.91-0.09v-0.04c-0.6-0.6-1.07-1.25-1.07-2.12c0-1.33,0.86-1.92,2.47-1.92h4v1.07h-3.86
		c-1.18,0-1.69,0.36-1.69,1.2c0,0.65,0.34,1.09,0.97,1.73h4.58v1.05H29.37z"/>
	<path class="st3" d="M27.38,655.91c-0.42,0-0.69-0.33-0.69-0.74c0-0.41,0.27-0.74,0.69-0.74c0.4,0,0.69,0.33,0.69,0.74
		C28.07,655.58,27.79,655.91,27.38,655.91z M29.37,655.72v-1.07h6.32v1.07H29.37z"/>
	<path class="st3" d="M29.37,652.52v-0.88l0.91-0.09v-0.04c-0.6-0.6-1.07-1.25-1.07-2.12c0-1.33,0.86-1.92,2.47-1.92h4v1.07h-3.86
		c-1.18,0-1.69,0.36-1.69,1.2c0,0.65,0.34,1.09,0.97,1.73h4.58v1.07h-6.31V652.52L29.37,652.52z"/>
	<path class="st3" d="M35.47,644.97h-0.05c-0.19,0.31-0.53,0.56-1.03,0.56c-0.53,0-0.95-0.36-1.17-0.69h-0.05
		c-0.34,0.42-0.95,0.82-1.7,0.82c-1.38,0-2.25-1.09-2.25-2.38c0-0.35,0.07-0.66,0.16-0.9v-2.2h0.82v1.3c0.29-0.3,0.77-0.52,1.3-0.52
		c1.35,0,2.2,1.03,2.2,2.31c0,0.31-0.08,0.66-0.22,0.95c0.19,0.22,0.4,0.4,0.75,0.4c0.4,0,0.69-0.26,0.69-1.12v-1.22
		c0-1.47,0.46-2.21,1.51-2.21c1.17,0,2.18,1.23,2.18,3.2c0,1.55-0.61,2.61-1.7,2.61C36.37,645.89,35.86,645.54,35.47,644.97z
		 M37.86,643.12c0-1.21-0.62-2-1.29-2c-0.58,0-0.78,0.45-0.78,1.27v1.09c0,0.25-0.03,0.55-0.1,0.82c0.33,0.46,0.7,0.65,1.07,0.65
		C37.43,644.96,37.86,644.27,37.86,643.12z M31.47,641.94c-0.92,0-1.47,0.6-1.47,1.34s0.55,1.34,1.47,1.34s1.51-0.61,1.51-1.34
		C32.97,642.55,32.39,641.94,31.47,641.94z"/>
	<path class="st3" d="M32.02,639.39v-2.99h0.82v2.99H32.02z"/>
	<path class="st3" d="M35.47,634.37h-0.05c-0.19,0.31-0.53,0.56-1.03,0.56c-0.53,0-0.95-0.36-1.17-0.69h-0.05
		c-0.34,0.42-0.95,0.82-1.7,0.82c-1.38,0-2.25-1.09-2.25-2.38c0-0.35,0.07-0.66,0.16-0.9v-2.2h0.82v1.3c0.29-0.3,0.77-0.52,1.3-0.52
		c1.35,0,2.2,1.03,2.2,2.31c0,0.31-0.08,0.66-0.22,0.95c0.19,0.22,0.4,0.4,0.75,0.4c0.4,0,0.69-0.26,0.69-1.12v-1.22
		c0-1.47,0.46-2.21,1.51-2.21c1.17,0,2.18,1.24,2.18,3.2c0,1.55-0.61,2.61-1.7,2.61C36.37,635.3,35.86,634.95,35.47,634.37z
		 M37.86,632.53c0-1.21-0.62-2-1.29-2c-0.58,0-0.78,0.46-0.78,1.27v1.09c0,0.25-0.03,0.55-0.1,0.82c0.33,0.45,0.7,0.65,1.07,0.65
		C37.43,634.36,37.86,633.67,37.86,632.53z M31.47,631.34c-0.92,0-1.47,0.6-1.47,1.34c0,0.74,0.55,1.34,1.47,1.34
		s1.51-0.61,1.51-1.34C32.97,631.96,32.39,631.34,31.47,631.34z"/>
	<path class="st3" d="M29.37,628.26v-0.88l1.14-0.09v-0.04c-0.79-0.43-1.3-1.08-1.3-1.79c0-0.27,0.04-0.47,0.13-0.68l0.94,0.21
		c-0.06,0.21-0.1,0.35-0.1,0.61c0,0.53,0.39,1.17,1.46,1.6h4.06v1.07L29.37,628.26L29.37,628.26L29.37,628.26z"/>
	<path class="st3" d="M31.69,620.5c-0.81,0-1.59,0.27-1.59,1.3c0,0.74,0.34,1.39,0.68,1.88l-0.74,0.43
		c-0.38-0.59-0.82-1.47-0.82-2.48c0-1.55,1.03-2.2,2.6-2.2h3.87v0.88l-0.75,0.09v0.03c0.49,0.61,0.91,1.31,0.91,2.09
		c0,1.07-0.66,1.86-1.79,1.86C32.67,624.39,31.99,623.19,31.69,620.5z M34.99,622.23c0-0.61-0.3-1.12-0.84-1.73h-1.76
		c0.26,2.12,0.78,2.83,1.59,2.83C34.69,623.34,34.99,622.86,34.99,622.23z"/>
	<path class="st3" d="M36.22,616.36h2.13v1.07h-8.98v-0.88l0.73-0.09v-0.04c-0.48-0.57-0.88-1.27-0.88-2.02
		c0-1.62,1.26-2.5,3.22-2.5c2.14,0,3.41,1.29,3.41,2.73c0,0.58-0.27,1.17-0.73,1.75L36.22,616.36z M34.95,614.81
		c0-1.04-0.95-1.81-2.51-1.81c-1.39,0-2.33,0.47-2.33,1.66c0,0.53,0.3,1.07,0.86,1.69h3.31C34.77,615.78,34.95,615.23,34.95,614.81z
		"/>
	<path class="st3" d="M26.43,610.21v-1.07h2.52l1.3,0.04c-0.57-0.6-1.04-1.23-1.04-2.11c0-1.33,0.86-1.92,2.47-1.92h4v1.07h-3.86
		c-1.18,0-1.69,0.36-1.69,1.2c0,0.65,0.34,1.09,0.97,1.73h4.58v1.07L26.43,610.21L26.43,610.21z"/>
	<path class="st3" d="M27.38,603.33c-0.42,0-0.69-0.33-0.69-0.74s0.27-0.74,0.69-0.74c0.4,0,0.69,0.33,0.69,0.74
		S27.79,603.33,27.38,603.33z M29.37,603.14v-1.07h6.32v1.07H29.37z"/>
	<path class="st3" d="M29.22,597.36c0-0.83,0.35-1.42,0.75-1.85l0.69,0.53c-0.33,0.38-0.56,0.77-0.56,1.27
		c0,1.14,0.99,1.98,2.44,1.98c1.44,0,2.42-0.79,2.42-1.95c0-0.6-0.3-1.11-0.64-1.48l0.7-0.48c0.51,0.57,0.82,1.3,0.82,2.05
		c0,1.68-1.21,2.96-3.3,2.96C30.42,600.41,29.22,598.99,29.22,597.36z"/>
	<path class="st3" d="M34.26,594.18c0.44-0.54,0.75-1.1,0.75-1.86c0-0.83-0.44-1.25-0.99-1.25c-0.65,0-0.94,0.75-1.2,1.44
		c-0.33,0.9-0.75,1.89-1.82,1.89c-1.01,0-1.79-0.81-1.79-2.17c0-0.79,0.33-1.48,0.71-1.96l0.68,0.51c-0.33,0.43-0.56,0.88-0.56,1.44
		c0,0.79,0.43,1.16,0.91,1.16c0.59,0,0.82-0.69,1.09-1.4c0.34-0.91,0.71-1.92,1.91-1.92c1.03,0,1.88,0.82,1.88,2.31
		c0,0.9-0.38,1.76-0.87,2.35L34.26,594.18z"/>
	<path class="st3" d="M34.21,588c0-0.42,0.34-0.77,0.83-0.77c0.47,0,0.81,0.35,0.81,0.77c0,0.43-0.34,0.78-0.81,0.78
		C34.55,588.78,34.21,588.43,34.21,588z"/>
	<path class="st3" d="M29.22,583.14c0-0.73,0.27-1.21,0.73-1.77l-1.08,0.05h-2.43v-1.08h9.26v0.88l-0.74,0.09v0.04
		c0.48,0.49,0.9,1.17,0.9,1.91c0,1.59-1.2,2.61-3.3,2.61C30.49,585.89,29.22,584.58,29.22,583.14z M34.95,583.04
		c0-0.58-0.29-1.09-0.87-1.61h-3.3c-0.48,0.53-0.66,1.01-0.66,1.53c0,1.01,0.98,1.82,2.42,1.82
		C34.04,584.78,34.95,584.14,34.95,583.04z"/>
	<path class="st3" d="M29.22,575.85c0-1.61,1.16-2.52,2.96-2.52c0.22,0,0.43,0.01,0.58,0.04v4.26c1.37-0.08,2.22-0.9,2.22-2.11
		c0-0.6-0.19-1.11-0.49-1.57l0.7-0.38c0.35,0.55,0.65,1.22,0.65,2.08c0,1.69-1.24,3.03-3.3,3.03
		C30.48,578.68,29.22,577.29,29.22,575.85z M32.06,574.26c-1.29,0-2,0.57-2,1.56c0,0.88,0.73,1.69,2,1.82V574.26z"/>
</g>
</svg>
