<?xml version="1.0" encoding="UTF-8"?>
<svg id="Linien" xmlns="http://www.w3.org/2000/svg" version="1.1" viewBox="0 0 751.2 751.2">
  <!-- Generator: Adobe Illustrator 29.1.0, SVG Export Plug-In . SVG Version: 2.1.0 Build 142)  -->
  <defs>
    <style>
      .st0 {
        fill: #92dab0;
      }

      .st1 {
        fill: #fff;
      }

      .st2 {
        fill: #b2e7c7;
      }

      .st3 {
        fill: none;
        stroke: #fff;
        stroke-width: 2px;
      }
    </style>
  </defs>
  <rect class="st2" y="0" width="751.2" height="751.2"/>
  <polygon class="st0" points="694.2 751.2 694.2 0 741.6 0 741.6 751.2 694.2 751.2"/>
  <polygon class="st0" points="31 751.2 31 0 78.4 0 78.4 751.2 31 751.2"/>
  <polygon class="st0" points="125.8 751.2 125.8 0 173.1 0 173.1 751.2 125.8 751.2"/>
  <polygon class="st0" points="315.1 751.2 315.1 0 362.5 0 362.5 751.2 315.1 751.2"/>
  <polygon class="st0" points="410 751.2 410 0 457.3 0 457.3 751.2 410 751.2"/>
  <polygon class="st0" points="504.7 751.2 504.7 0 552.1 0 552.1 751.2 504.7 751.2"/>
  <polygon class="st0" points="599.5 751.2 599.5 0 646.8 0 646.8 751.2 599.5 751.2"/>
  <polygon class="st0" points="220.4 751.2 220.4 0 267.8 0 267.8 751.2 220.4 751.2"/>
  <g>
    <polyline class="st3" points="0 77.8 694.3 77.8 694.3 723.8 0 723.8"/>
    <line class="st3" x1="220.6" y1="77.8" x2="220.6" y2="723.8"/>
    <path class="st3" d="M299.4,400.8c0,43.5-35.3,78.8-78.8,78.8s-78.8-35.3-78.8-78.8,35.3-78.8,78.8-78.8,78.8,35.3,78.8,78.8Z"/>
    <path class="st3" d="M685.7,723.8c0-4.8,3.8-8.6,8.6-8.6"/>
    <path class="st3" d="M694.3,86.4c-4.8,0-8.6-3.8-8.6-8.6"/>
    <polyline class="st3" points="694.3 574.5 552.2 574.5 552.2 227.2 694.3 227.2"/>
    <polyline class="st3" points="694.3 479.7 647 479.7 647 321.9 694.3 321.9"/>
    <path class="st3" d="M552.2,463.8c-19.1-14.4-31.4-37.2-31.4-63s12.3-48.6,31.4-63"/>
    <circle class="st1" cx="599.6" cy="400.8" r="3"/>
    <circle class="st1" cx="220.6" cy="400.8" r="3"/>
  </g>
</svg>