<?xml version="1.0" encoding="UTF-8"?>
<svg id="Linien" xmlns="http://www.w3.org/2000/svg" version="1.1" viewBox="0 0 757.3 568">
  <!-- Generator: Adobe Illustrator 29.1.0, SVG Export Plug-In . SVG Version: 2.1.0 Build 142)  -->
  <defs>
    <style>
      .st0 {
        fill: #92dab0;
      }

      .st1 {
        fill: #fff;
      }

      .st2 {
        fill: #b2e7c7;
      }

      .st3 {
        fill: none;
        stroke: #fff;
        stroke-width: 2px;
      }
    </style>
  </defs>
  <rect class="st2" y="0" width="757.3" height="568"/>
  <polygon class="st0" points="757.3 186.2 0 186.2 0 144.7 757.3 144.7 757.3 186.2"/>
  <polygon class="st0" points="757.3 269.3 0 269.3 0 227.8 757.3 227.8 757.3 269.3"/>
  <polygon class="st0" points="757.3 352.4 0 352.4 0 310.8 757.3 310.8 757.3 352.4"/>
  <polygon class="st0" points="757.3 435.4 0 435.4 0 393.9 757.3 393.9 757.3 435.4"/>
  <polygon class="st0" points="757.3 103.1 0 103.1 0 61.6 757.3 61.6 757.3 103.1"/>
  <rect class="st0" y="559.9" width="757.3" height="8.1"/>
  <polygon class="st0" points="757.3 518.3 0 518.3 0 476.8 757.3 476.8 757.3 518.3"/>
  <polygon class="st0" points="757.3 20 0 20 0 0 757.3 0 757.3 20"/>
  <g>
    <polyline class="st3" points="93.2 568 93.2 61.7 659.4 61.7 659.4 568"/>
    <polyline class="st3" points="528.5 61.7 528.5 186.3 224.1 186.3 224.1 61.7"/>
    <polyline class="st3" points="445.5 61.7 445.5 103.2 307.1 103.2 307.1 61.7"/>
    <line class="st3" x1="659.4" y1="477" x2="93.2" y2="477"/>
    <path class="st3" d="M307.2,477c0-38.2,30.9-69.1,69.1-69.1s69.1,30.9,69.1,69.1-30.9,69.1-69.1,69.1-69.1-30.9-69.1-69.1Z"/>
    <path class="st3" d="M100.7,61.7c0,4.2-3.4,7.6-7.6,7.6"/>
    <path class="st3" d="M659.4,69.3c-4.2,0-7.5-3.4-7.5-7.5"/>
    <path class="st3" d="M431.5,186.4c-12.6,16.7-32.6,27.5-55.2,27.5s-42.6-10.8-55.2-27.5"/>
    <path class="st1" d="M373.7,144.8c0-1.5,1.2-2.6,2.6-2.6s2.6,1.2,2.6,2.6-1.2,2.6-2.6,2.6c-1.5,0-2.6-1.2-2.6-2.6Z"/>
    <path class="st1" d="M378.9,477c0,1.5-1.2,2.6-2.6,2.6s-2.6-1.2-2.6-2.6,1.2-2.6,2.6-2.6,2.6,1.1,2.6,2.6Z"/>
  </g>
</svg>