<?xml version="1.0" encoding="utf-8"?>
<!-- Generator: Adobe Illustrator 27.8.0, SVG Export Plug-In . SVG Version: 6.00 Build 0)  -->
<svg version="1.1" id="Linien" xmlns="http://www.w3.org/2000/svg" xmlns:xlink="http://www.w3.org/1999/xlink" x="0px" y="0px"
	 viewBox="0 0 757.3 568" style="enable-background:new 0 0 757.3 568;" xml:space="preserve">
<style type="text/css">
	.st0{fill:#77AD63;}
	.st1{fill:#A5CF91;}
	.st2{fill:none;stroke:#FFFFFF;stroke-width:2;}
	.st3{fill:#FFFFFF;}
</style>
<g>
	<rect y="0" class="st0" width="757.3" height="568"/>
</g>
<polygon class="st1" points="757.3,186.2 0,186.2 0,144.7 757.3,144.7 "/>
<polygon class="st1" points="757.3,269.3 0,269.3 0,227.8 757.3,227.8 "/>
<polygon class="st1" points="757.3,352.4 0,352.4 0,310.8 757.3,310.8 "/>
<polygon class="st1" points="757.3,435.4 0,435.4 0,393.9 757.3,393.9 "/>
<polygon class="st1" points="757.3,103.1 0,103.1 0,61.6 757.3,61.6 "/>
<rect y="559.9" class="st1" width="757.3" height="8.1"/>
<polygon class="st1" points="757.3,518.3 0,518.3 0,476.8 757.3,476.8 "/>
<polygon class="st1" points="757.3,20 0,20 0,0 757.3,0 "/>
<g>
	<polyline class="st2" points="93.2,568 93.2,61.7 659.4,61.7 659.4,568 	"/>
	<polyline class="st2" points="528.5,61.7 528.5,186.3 224.1,186.3 224.1,61.7 	"/>
	<polyline class="st2" points="445.5,61.7 445.5,103.2 307.1,103.2 307.1,61.7 	"/>
	<line class="st2" x1="659.4" y1="477" x2="93.2" y2="477"/>
	<path class="st2" d="M307.2,477c0-38.2,30.9-69.1,69.1-69.1c38.1,0,69.1,30.9,69.1,69.1s-30.9,69.1-69.1,69.1
		C338.1,546.1,307.2,515.2,307.2,477z"/>
	<path class="st2" d="M100.7,61.7c0,4.2-3.4,7.6-7.6,7.6"/>
	<path class="st2" d="M659.4,69.3c-4.2,0-7.5-3.4-7.5-7.5"/>
	<path class="st2" d="M431.5,186.4c-12.6,16.7-32.6,27.5-55.2,27.5c-22.5,0-42.6-10.8-55.2-27.5"/>
	<path class="st3" d="M373.7,144.8c0-1.5,1.2-2.6,2.6-2.6c1.5,0,2.6,1.2,2.6,2.6s-1.2,2.6-2.6,2.6
		C374.8,147.4,373.7,146.2,373.7,144.8z"/>
	<path class="st3" d="M378.9,477c0,1.5-1.2,2.6-2.6,2.6s-2.6-1.2-2.6-2.6s1.2-2.6,2.6-2.6C377.8,474.4,378.9,475.5,378.9,477z"/>
</g>
</svg>
